<svg xmlns="http://www.w3.org/2000/svg" viewBox="0 0 287.4 280"><defs><style>.a{fill:#b72e2e;}</style></defs><title>character-jiu-red</title><path class="a" d="M147.9,291c-42,0-83.9-.1-125.9.1-10.4.1-15.5-1.4-16-17.3s-.2-31.7-.2-47.6V22c0-8.2,2.7-10.8,10.8-10.8,54.6,0,109.2-.1,163.8.1,32.6.1,65.2.8,97.9,1.2,11.6.1,14.3,3.9,14.1,15.4-.5,31.9-.6,63.9-.4,95.8.2,49.4.7,98.9,1.1,148.3.1,15.8-3.4,19.2-19.3,19.2H148A.3.3,0,0,1,147.9,291ZM273.4,154c0-34.1,0-68.1-.1-102.2,0-4.2-.8-8.3-1.2-12.5s-3.6-7.2-8.5-7.2c-28.7-.3-57.4-.8-86.1-.9q-39.5-.1-78.9.2c-21.4.1-42.9.5-64.3.7-5.9.1-10,2.4-10.2,8.9-.4,15.1-.9,30.3-.9,45.5,0,20.5.6,41,.8,61.5q.8,58,1.3,116.2c.1,5.9,2.3,9.2,8.6,9.3,13,.1,26.1.5,39.1.4l186.8-2.2c11.5-.1,13.5-2.1,13.5-13.3Q273.4,206.1,273.4,154Z" transform="translate(-5.7 -11.2)"/><path class="a" d="M262.9,41.8c0,6.2.4,11.5-.3,16.7-.2,1.5-3.7,3.8-5.7,3.8-20,0-40.1-.4-60.1-.7l-5,.2V94.9c14.4.5,29.2,1.2,44,1.6,6.1.2,12.1-.1,18.2.1s8.3,2,8.3,8.4c-.2,49.2-.1,98.4-.1,147.7,0,8.5-.6,9.1-9.1,9.1H73V96.3H89.9c14.9,0,29.9-.1,44.8.1,4,.1,6.2-1,6.2-5.3.2-8.4.5-16.7.7-25.1.1-4.3-2.7-4.6-6.1-4.6-18,.1-35.9,0-53.9,0h-8V41.7ZM173.1,186.2V114.3c-15.3-1.4-15.2-1.3-19.5,11.4-9.7,29-29.6,48.1-57.9,59.1-1.4.6-3.6,2.1-3.6,3.2-.2,18.3-.2,36.7-.2,55.6H245.1V206c-.1-19.9-.1-19.8-20.5-19.7Zm17.7-17.8h43.1c11.2,0,11.3-.1,11.3-11,.1-14.5,0-29,0-44.1-18.1,0-34.1-.1-50.1.2-1.5,0-4.1,2.9-4.1,4.5C190.7,134.5,190.8,151,190.8,168.4Zm-53.5-54.6c-13.6,0-26.7.1-39.9,0-5.4,0-5.7,3.5-5.8,7.5,0,6-.2,12-.2,18v28.4C109.6,164.9,136.4,135,137.3,113.8Zm35.1-17.6V62.1H158.6V96.2Z" transform="translate(-5.7 -11.2)"/><path class="a" d="M55.1,261.1l-1.8.7c-22.1-.8-18.9,4.7-19.1-18.2-.3-28.6.7-57.2.8-85.8,0-5.6,1.7-8.3,7.6-7.8a33.2,33.2,0,0,0,6.3,0c4.5-.4,6.3,1.4,6.3,5.9-.1,10.5,0,20.9,0,31.4q0,31.3-.1,62.8Z" transform="translate(-5.7 -11.2)"/><path class="a" d="M54.8,61.4c-5.4,0-9.6-.2-13.7.1s-6.6-1.1-6.6-6.3c0-11.2,5.9-16.1,16.8-12.4,1.5.5,3.1,2.8,3.3,4.4C55.2,51.5,54.8,55.9,54.8,61.4Z" transform="translate(-5.7 -11.2)"/><path class="a" d="M35.6,96.8a11.2,11.2,0,0,1,2.2-.5c18-1.1,18-1.1,16.8,17.9h-19Z" transform="translate(-5.7 -11.2)"/><path class="a" d="M233.3,231H109.6c-3.5,0-4.9-1.2-5.3-4.7-1.2-11,.6-12.9,11.6-12.9l68.4-.2c14.7,0,29.4.1,44,.6,1.7.1,4.5,2.4,4.8,4C233.8,221.8,233.3,226.1,233.3,231Z" transform="translate(-5.7 -11.2)"/></svg>