<?xml version="1.0" encoding="utf-8"?>
<!-- Generator: Adobe Illustrator 22.1.0, SVG Export Plug-In . SVG Version: 6.00 Build 0)  -->
<svg version="1.1" id="Layer_1" xmlns="http://www.w3.org/2000/svg" xmlns:xlink="http://www.w3.org/1999/xlink" x="0px" y="0px"
	 viewBox="0 0 300 300" style="enable-background:new 0 0 300 300;" xml:space="preserve">
<style type="text/css">
	.st0{fill:#FFFFFF;}
</style>
<g id="yJ94e8_1_">
	<g>
		<path class="st0" d="M147.9,291c-42,0-83.9-0.1-125.9,0.1c-10.4,0.1-15.5-1.4-16-17.3c-0.6-15.8-0.2-31.7-0.2-47.6
			c0-68.1,0-136.2,0-204.2c0-8.2,2.7-10.8,10.8-10.8c54.6,0,109.2-0.1,163.8,0.1c32.6,0.1,65.2,0.8,97.9,1.2
			c11.6,0.1,14.3,3.9,14.1,15.4c-0.5,31.9-0.6,63.9-0.4,95.8c0.2,49.4,0.7,98.9,1.1,148.3c0.1,15.8-3.4,19.2-19.3,19.2
			c-41.9,0-83.9,0-125.8,0C147.9,291.1,147.9,291,147.9,291z M273.4,154c0-34.1,0-68.1-0.1-102.2c0-4.2-0.8-8.3-1.2-12.5
			c-0.6-5-3.6-7.2-8.5-7.2c-28.7-0.3-57.4-0.8-86.1-0.9c-26.3-0.1-52.6,0-78.9,0.2c-21.4,0.1-42.9,0.5-64.3,0.7
			c-5.9,0.1-10,2.4-10.2,8.9c-0.4,15.1-0.9,30.3-0.9,45.5c0,20.5,0.6,41,0.8,61.5c0.5,38.7,0.9,77.4,1.3,116.2
			c0.1,5.9,2.3,9.2,8.6,9.3c13,0.1,26.1,0.5,39.1,0.4c62.3-0.7,124.5-1.5,186.8-2.2c11.5-0.1,13.5-2.1,13.5-13.3
			C273.4,223.5,273.4,188.7,273.4,154z"/>
		<path class="st0" d="M262.9,41.8c0,6.2,0.4,11.5-0.3,16.7c-0.2,1.5-3.7,3.8-5.7,3.8c-20,0-40.1-0.4-60.1-0.7c-1.4,0-2.7,0.1-5,0.2
			c0,11,0,21.8,0,33.1c14.4,0.5,29.2,1.2,44,1.6c6.1,0.2,12.1-0.1,18.2,0.1c5.3,0.2,8.3,2,8.3,8.4c-0.2,49.2-0.1,98.4-0.1,147.7
			c0,8.5-0.6,9.1-9.1,9.1c-57.9,0-115.7,0-173.6,0c-1.8,0-3.7,0-6.5,0c0-55.1,0-109.7,0-165.5c5.9,0,11.4,0,16.9,0
			c14.9,0,29.9-0.1,44.8,0.1c4,0.1,6.2-1,6.2-5.3c0.2-8.4,0.5-16.7,0.7-25.1c0.1-4.3-2.7-4.6-6.1-4.6c-18,0.1-35.9,0-53.9,0
			c-2.5,0-5,0-8,0c0-6.6,0-12.6,0-19.7C136.2,41.8,198.7,41.8,262.9,41.8z M173.1,186.2c0-24.4,0-48.3,0-71.9
			c-15.3-1.4-15.2-1.3-19.5,11.4c-9.7,29-29.6,48.1-57.9,59.1c-1.4,0.6-3.6,2.1-3.6,3.2c-0.2,18.3-0.2,36.7-0.2,55.6
			c50.6,0,101,0,153.2,0c0-13,0-25.3,0-37.6c-0.1-19.9-0.1-19.8-20.5-19.7C208.2,186.3,191.6,186.2,173.1,186.2z M190.8,168.4
			c14.9,0,29,0,43.1,0c11.2,0,11.3-0.1,11.3-11c0.1-14.5,0-29,0-44.1c-18.1,0-34.1-0.1-50.1,0.2c-1.5,0-4.1,2.9-4.1,4.5
			C190.7,134.5,190.8,151,190.8,168.4z M137.3,113.8c-13.6,0-26.7,0.1-39.9,0c-5.4,0-5.7,3.5-5.8,7.5c0,6-0.2,12-0.2,18
			c0,9.4,0,18.9,0,28.4C109.6,164.9,136.4,135,137.3,113.8z M172.4,96.2c0-11.7,0-22.9,0-34.1c-5.1,0-9.6,0-13.8,0
			c0,11.7,0,22.7,0,34.1C163.3,96.2,167.4,96.2,172.4,96.2z"/>
		<path class="st0" d="M55.1,261.1c-1.4,0.6-1.6,0.7-1.8,0.7c-22.1-0.8-18.9,4.7-19.1-18.2c-0.3-28.6,0.7-57.2,0.8-85.8
			c0-5.6,1.7-8.3,7.6-7.8c2.1,0.2,4.2,0.2,6.3,0c4.5-0.4,6.3,1.4,6.3,5.9c-0.1,10.5,0,20.9,0,31.4c0,20.9,0,41.8-0.1,62.8
			C55.1,253.8,55.1,257.4,55.1,261.1z"/>
		<path class="st0" d="M54.8,61.4c-5.4,0-9.6-0.2-13.7,0.1c-4.7,0.3-6.6-1.1-6.6-6.3c0-11.2,5.9-16.1,16.8-12.4
			c1.5,0.5,3.1,2.8,3.3,4.4C55.2,51.5,54.8,55.9,54.8,61.4z"/>
		<path class="st0" d="M35.6,96.8c0.9-0.2,1.5-0.5,2.2-0.5c18-1.1,18-1.1,16.8,17.9c-6.1,0-12.2,0-19,0
			C35.6,108.5,35.6,102.6,35.6,96.8z"/>
		<path class="st0" d="M233.3,231c-42.1,0-82.9,0-123.7,0.1c-3.5,0-4.9-1.2-5.3-4.7c-1.2-11,0.6-12.9,11.6-12.9
			c22.8,0,45.6-0.2,68.4-0.2c14.7,0,29.4,0.1,44,0.6c1.7,0.1,4.5,2.4,4.8,4C233.8,221.8,233.3,226.1,233.3,231z"/>
	</g>
</g>
</svg>
