<?xml version="1.0" encoding="UTF-8"?>
<svg width="64px" height="67px" viewBox="0 0 64 67" version="1.1" xmlns="http://www.w3.org/2000/svg" xmlns:xlink="http://www.w3.org/1999/xlink">
    <!-- Generator: Sketch 49.3 (51167) - http://www.bohemiancoding.com/sketch -->
    <title>Fill 1</title>
    <desc>Created with Sketch.</desc>
    <defs></defs>
    <g id="PAGES---FINAL" stroke="none" stroke-width="1" fill="none" fill-rule="evenodd">
        <g id="Bai-ology---Lightbox" transform="translate(-1200.000000, -172.000000)" fill="#B72E2E">
            <g id="Page-1" transform="translate(1200.000000, 172.000000)">
                <path d="M27.3781016,48.0650854 C26.488415,49.0813185 25.4503807,49.9960471 23.8197552,50.9103793 C23.9681029,50.402461 23.6714075,49.8941463 24.1160508,49.4877324 C25.1540851,48.4714994 26.488415,47.5571672 27.5264494,46.5409342 C27.9710927,46.1345203 28.1194404,45.7277099 28.4157361,45.3216925 C29.3054226,44.0005499 29.8984137,42.577903 30.7881003,41.3582648 C31.6777869,40.1390231 33.45716,40.0375187 35.0877856,39.9360144 C32.5674734,42.6794074 30.0467615,45.4231968 27.3781016,48.0650854 Z M35.0877856,39.9360144 L35.0877856,38.3099623 C34.9398377,37.3952336 34.9398377,36.4809015 34.4947945,35.4646684 C30.1951092,38.8178805 27.2297539,42.7809117 23.8197552,46.4394298 C20.4093567,50.0975515 17.4440013,53.9590783 14.9236892,57.9221095 L17.7406968,55.17832 C18.0373923,55.17832 18.3336879,55.2798244 18.6303834,55.2798244 C18.4820356,55.8896435 18.4820356,56.4994626 18.1853402,56.9058765 L12.2546295,63.002878 C11.3653428,63.8161023 10.624004,64.7304345 9.58596965,65.4417579 C8.84463082,65.9496762 7.21360541,66.6609997 6.9173098,66.457991 C5.28588454,65.5432623 3.35856352,66.051577 1.57919038,65.5432623 C-0.64482612,64.8323353 -0.496078522,61.6817355 1.87588585,60.5639981 L3.65525899,59.4462607 C5.13793666,58.8368381 6.47226658,57.9221095 7.21360541,56.9058765 C7.65864863,56.2960574 8.54793534,55.7881391 8.99297856,55.17832 C16.7026625,47.2522576 17.2956536,46.8458437 20.113061,43.7971447 C23.2263642,40.1390231 27.9710927,34.9563537 30.4918047,30.9933225 C31.0847958,30.0789904 30.7881003,29.7740808 29.6021181,28.249533 C27.2297539,25.3027349 24.8573896,22.2544323 22.9300686,19.2057333 C21.2990432,16.7668534 19.0750267,13.9215596 18.1853402,11.2796709 C17.4440013,9.45061013 15.665028,8.23097192 15.665028,6.1989024 C15.665028,4.87775984 16.4063669,3.55661728 18.1853402,2.54038427 C20.2614088,1.52454776 22.4850254,1.42264691 24.8573896,2.03246602 C27.822745,2.84529382 29.009127,3.45511293 30.6397526,5.08076854 C31.5294391,5.9954972 31.9744823,7.51964846 33.45716,8.84079102 C34.1984988,9.45061013 34.6431422,10.7713562 35.2361333,11.88949 C36.4225153,14.2264691 37.6084975,16.5638447 38.9428275,18.9008238 C40.4255051,17.681582 43.8359037,13.7185509 44.8735381,11.9909944 C46.0599202,10.0600327 47.2459023,7.72305366 49.1732234,5.9954972 C50.9525965,4.47134594 53.176613,2.74378947 55.2522818,1.32114256 C56.1419683,0.813224308 57.1800026,0.406413903 58.2176371,0 L62.072679,4.16643638 C61.0346447,5.89399285 59.551967,7.82455801 58.5143326,9.95852838 C57.3279505,12.0924988 56.5866117,14.6332795 53.176613,16.0559264 C51.9906308,16.5638447 51.249292,18.1895003 51.249292,19.2057333 C51.1009442,21.3397037 49.1732234,22.7623506 47.8388934,24.5914114 C45.1702336,23.2702688 47.6905457,21.5431089 46.9492069,19.6121472 L42.7978693,24.6933123 L45.3185813,24.0834932 C46.6529112,24.7948166 45.9115724,25.7091488 45.6148769,26.5219766 C44.8735381,28.249533 45.1702336,29.8755851 46.5045635,31.6031416 C49.3215711,35.0582545 51.3972399,38.7163762 53.9179518,42.2729935 L62.8140178,54.0605826 C63.2586612,54.5685009 63.5553566,55.17832 64,55.9915443 C60.8866968,56.7028678 58.0692893,56.194553 55.2522818,56.0930487 C50.8042488,55.8896435 49.0252755,53.5526644 47.5425978,51.2152888 C47.0975546,50.5039654 47.5425978,49.4877324 47.2459023,48.6749046 C46.0599202,45.1182873 43.2425127,41.8665795 39.9808618,39.1227901 C38.0531409,37.4971345 37.7568453,37.5986388 35.9774721,39.1227901 L35.0877856,39.9360144 Z" id="Fill-1"></path>
            </g>
        </g>
    </g>
</svg>