<svg xmlns="http://www.w3.org/2000/svg" viewBox="0 0 1143.5 12.2"><defs><style>.a{fill:#fff;}</style></defs><title>dirty-line</title><path class="a" d="M31.9,3.3c.3,0,.5-.1.5-.3a.8.8,0,0,0-.6-.2c-.2,0-.5.1-.5.2S31.6,3.3,31.9,3.3Z" transform="translate(0 -0.1)"/><path class="a" d="M13.3,3.7h-.5c-.2,0-.4,0-.4.2Z" transform="translate(0 -0.1)"/><path class="a" d="M14.9,3.8c.1-.1,0-.1-.2-.1h-.1c.1,0,.1.1.2,0Z" transform="translate(0 -0.1)"/><path class="a" d="M283.5,3.2h-1.2A1.7,1.7,0,0,0,283.5,3.2Z" transform="translate(0 -0.1)"/><path class="a" d="M41.8,3.4h0Z" transform="translate(0 -0.1)"/><path class="a" d="M6.7,3.5h0Z" transform="translate(0 -0.1)"/><path class="a" d="M257.5,6.6a1.3,1.3,0,0,0-.9.1C256.9,6.7,257.2,6.8,257.5,6.6Z" transform="translate(0 -0.1)"/><path class="a" d="M33.4,4h0c-.3-.2-.5-.1-.9.1A1,1,0,0,0,33.4,4Z" transform="translate(0 -0.1)"/><path class="a" d="M286.8,2.8c-.8-.3-1.4.1-2,.2A4.6,4.6,0,0,0,286.8,2.8Z" transform="translate(0 -0.1)"/><path class="a" d="M428.7,6.7h.7s.1-.1,0-.1-.4-.1-.7,0S428.8,6.7,428.7,6.7Z" transform="translate(0 -0.1)"/><path class="a" d="M379.8,5.6c-.2.1.1.1.2.2h.1l.2-.2A.4.4,0,0,0,379.8,5.6Z" transform="translate(0 -0.1)"/><path class="a" d="M1052.6,5.6c-.2.1.1.1.2.2a.1.1,0,0,0,.1.1c0-.1.2-.2.1-.2S1052.7,5.5,1052.6,5.6Z" transform="translate(0 -0.1)"/><path class="a" d="M928.2,6.9a29.3,29.3,0,0,0-5.2.4h1.3Z" transform="translate(0 -0.1)"/><path class="a" d="M255.5,6.9a30.2,30.2,0,0,0-5.3.4h1.4Z" transform="translate(0 -0.1)"/><path class="a" d="M1101.5,6.7h.7c-.2-.2-.5-.1-.7,0S1101.5,6.7,1101.5,6.7Z" transform="translate(0 -0.1)"/><path class="a" d="M959.6,2.8c-.8-.3-1.4.1-2.1.2A4.9,4.9,0,0,0,959.6,2.8Z" transform="translate(0 -0.1)"/><path class="a" d="M1081.5,4.4h1.6A2.1,2.1,0,0,0,1081.5,4.4Z" transform="translate(0 -0.1)"/><path class="a" d="M1093.6,4.9a4.5,4.5,0,0,0-2,.1A4.5,4.5,0,0,0,1093.6,4.9Z" transform="translate(0 -0.1)"/><path class="a" d="M1100.7,6c.2,0,.4-.1.4-.3l-.6-.2c-.2.1-.5.1-.5.3S1100.4,6,1100.7,6Z" transform="translate(0 -0.1)"/><path class="a" d="M289.8,2.6c1.8,0,3.5-.5,5.3-.5C290.4,2.2,290.3,2.2,289.8,2.6Z" transform="translate(0 -0.1)"/><path class="a" d="M962.6,2.6c1.8,0,3.4-.5,5.2-.5C963.2,2.2,963.1,2.2,962.6,2.6Z" transform="translate(0 -0.1)"/><path class="a" d="M1110.5,5.8h-.6C1110.1,5.8,1110.3,5.9,1110.5,5.8Z" transform="translate(0 -0.1)"/><path class="a" d="M1006.5.1h0Z" transform="translate(0 -0.1)"/><path class="a" d="M1083.2,4.5h0Z" transform="translate(0 -0.1)"/><path class="a" d="M976.9,1.3c-.5,0-.8-.3-1.3-.1v.2A2,2,0,0,0,976.9,1.3Z" transform="translate(0 -0.1)"/><path class="a" d="M410.4,4.5Z" transform="translate(0 -0.1)"/><path class="a" d="M420.8,4.9a4.5,4.5,0,0,0-2,.1A4.4,4.4,0,0,0,420.8,4.9Z" transform="translate(0 -0.1)"/><path class="a" d="M956.3,3.2h-1.2A1.7,1.7,0,0,0,956.3,3.2Z" transform="translate(0 -0.1)"/><path class="a" d="M437.8,5.8h-.6C437.4,5.8,437.6,5.9,437.8,5.8Z" transform="translate(0 -0.1)"/><path class="a" d="M427.9,6c.3,0,.4-.1.4-.3l-.6-.2c-.2.1-.5.1-.5.3S427.6,6,427.9,6Z" transform="translate(0 -0.1)"/><polygon class="a" points="410.4 4.3 410.4 4.3 410.4 4.3 410.4 4.3"/><path class="a" d="M304.1,1.3c-.5,0-.8-.3-1.2-.1s-.1.1,0,.2A1.7,1.7,0,0,0,304.1,1.3Z" transform="translate(0 -0.1)"/><path class="a" d="M333.7.1h0Z" transform="translate(0 -0.1)"/><path class="a" d="M663.5,2.6c-.5-.1-.8-.2-1.1,0A2,2,0,0,0,663.5,2.6Z" transform="translate(0 -0.1)"/><path class="a" d="M408.7,4.4h1.7A2.5,2.5,0,0,0,408.7,4.4Z" transform="translate(0 -0.1)"/><path class="a" d="M708.3,3.3c-.5,0-.8-.3-1.3-.1h0A1.5,1.5,0,0,0,708.3,3.3Z" transform="translate(0 -0.1)"/><path class="a" d="M704.7,3.3c.3,0,.5-.1.4-.3s-.2-.2-.5-.2-.5.1-.5.2S704.4,3.3,704.7,3.3Z" transform="translate(0 -0.1)"/><path class="a" d="M737.9,3.3h0Z" transform="translate(0 -0.1)"/><path class="a" d="M930.3,6.6a1.6,1.6,0,0,0-1,.1C929.7,6.7,930,6.8,930.3,6.6Z" transform="translate(0 -0.1)"/><path class="a" d="M687.7,3.8c.1-.1-.1-.1-.2-.1h-.1c.1,0,.1.1.2,0Z" transform="translate(0 -0.1)"/><path class="a" d="M693.8,4.1c1.9,0,3.6-.4,5.4-.3C694.5,3.7,694.4,3.7,693.8,4.1Z" transform="translate(0 -0.1)"/><path class="a" d="M679.5,3.5h0Z" transform="translate(0 -0.1)"/><path class="a" d="M686.1,3.7h-.5c-.2,0-.4,0-.5.2Z" transform="translate(0 -0.1)"/><path class="a" d="M690.9,4.2c-.8-.4-1.5,0-2.1.1A5,5,0,0,0,690.9,4.2Z" transform="translate(0 -0.1)"/><path class="a" d="M895.3,10.6h0Z" transform="translate(0 -0.1)"/><path class="a" d="M903.6,11.5h0Z" transform="translate(0 -0.1)"/><path class="a" d="M893.9,10.5h0c.1,0,.2,0,.1-.1Z" transform="translate(0 -0.1)"/><path class="a" d="M228.1,9.4a1.4,1.4,0,0,0,1.1,0h.9A3.5,3.5,0,0,0,228.1,9.4Z" transform="translate(0 -0.1)"/><path class="a" d="M841.5,9h.3c.1,0,.1-.1.1-.2h-.4C841.4,8.9,841.4,9,841.5,9Z" transform="translate(0 -0.1)"/><path class="a" d="M891,10.2a14.2,14.2,0,0,0,3.6-.3A8.8,8.8,0,0,0,891,10.2Z" transform="translate(0 -0.1)"/><path class="a" d="M886.4,10.5h2.9c.5-.1,1.2.1,1.6-.2A11.1,11.1,0,0,0,886.4,10.5Z" transform="translate(0 -0.1)"/><path class="a" d="M902.2,11.1c-.2.1-.5.1-.5.3h.6c.1,0,.1-.1.1-.2Z" transform="translate(0 -0.1)"/><path class="a" d="M890.9,10.1h0Z" transform="translate(0 -0.1)"/><path class="a" d="M198.5,7.5c-.1,0,0,.1,0,.1a.6.6,0,0,0,.6,0h0C198.9,7.4,198.6,7.3,198.5,7.5Z" transform="translate(0 -0.1)"/><polygon class="a" points="908.6 8.5 908.6 8.5 908.6 8.4 908.6 8.5"/><path class="a" d="M884.7,10.3l-.5.2h.7Z" transform="translate(0 -0.1)"/><path class="a" d="M921.9,9.9c.3-.1.5-.3.5-.4-1.9.4-3.9.5-5.7.8C918.5,10.3,920.1,10,921.9,9.9Z" transform="translate(0 -0.1)"/><path class="a" d="M908.6,8.6c.4.1.7.3,1.1.1S909,8.7,908.6,8.6Z" transform="translate(0 -0.1)"/><path class="a" d="M871.2,7.5h.1a.6.6,0,0,0,.6,0h0C871.7,7.4,871.4,7.3,871.2,7.5Z" transform="translate(0 -0.1)"/><path class="a" d="M900.8,9.4a1.4,1.4,0,0,0,1.1,0h1A3.8,3.8,0,0,0,900.8,9.4Z" transform="translate(0 -0.1)"/><path class="a" d="M908.7,8.9c.1-.1,0-.2-.1-.3s-1.6,0-2.3.3A4.8,4.8,0,0,0,908.7,8.9Z" transform="translate(0 -0.1)"/><path class="a" d="M632.7,10.3c-.2,0-.5,0-.5.2h.7C632.9,10.3,632.8,10.2,632.7,10.3Z" transform="translate(0 -0.1)"/><path class="a" d="M565,6.4Z" transform="translate(0 -0.1)"/><path class="a" d="M564.1,6.7h1.1A1.4,1.4,0,0,0,564.1,6.7Z" transform="translate(0 -0.1)"/><path class="a" d="M564.1,6.7Z" transform="translate(0 -0.1)"/><path class="a" d="M564.1,6.7Z" transform="translate(0 -0.1)"/><path class="a" d="M617.4,5.9h.1c.1,0,.1-.1,0-.1Z" transform="translate(0 -0.1)"/><path class="a" d="M618.9,5.9h0Z" transform="translate(0 -0.1)"/><path class="a" d="M661.6,7.2h0Z" transform="translate(0 -0.1)"/><path class="a" d="M653.1,7.3h3l3-.3A50.8,50.8,0,0,0,653.1,7.3Z" transform="translate(0 -0.1)"/><path class="a" d="M660.3,7h-.2c-.2,0-.4-.1-.3.1Z" transform="translate(0 -0.1)"/><path class="a" d="M910.9,8.6l5.9-.4h-2l-4,.3Z" transform="translate(0 -0.1)"/><polygon class="a" points="235.8 8.5 235.8 8.5 235.8 8.4 235.8 8.5"/><path class="a" d="M249.1,9.9c.4-.1.5-.3.5-.4-1.9.4-3.8.5-5.7.8C245.7,10.3,247.4,10,249.1,9.9Z" transform="translate(0 -0.1)"/><path class="a" d="M563.3,6.5c.2.2.4.1.7.2h.1a.6.6,0,0,0-.6-.3Z" transform="translate(0 -0.1)"/><path class="a" d="M235.9,8.6a1.3,1.3,0,0,0,1.1.1C236.6,8.5,236.2,8.7,235.9,8.6Z" transform="translate(0 -0.1)"/><path class="a" d="M235.8,8.6h0Z" transform="translate(0 -0.1)"/><path class="a" d="M235.9,8.9c.1-.1,0-.2-.1-.3s-1.5,0-2.2.3A4.4,4.4,0,0,0,235.9,8.9Z" transform="translate(0 -0.1)"/><path class="a" d="M242.7,10.4a8.5,8.5,0,0,0-2.3.3h2.3Z" transform="translate(0 -0.1)"/><path class="a" d="M238.1,8.6l5.9-.4h-2l-4,.3Z" transform="translate(0 -0.1)"/><path class="a" d="M908.6,8.6Z" transform="translate(0 -0.1)"/><path class="a" d="M594.5,3.8h.1c.2.1.4,0,.6,0s.1-.1.2-.2h-.2C594.9,3.7,594.7,3.6,594.5,3.8Z" transform="translate(0 -0.1)"/><path class="a" d="M326,3.5h.1c.2,0,.2-.1.1-.1H326Z" transform="translate(0 -0.1)"/><path class="a" d="M945.4,5.8c.1-.1,0-.1-.1-.1h.1Z" transform="translate(0 -0.1)"/><path class="a" d="M946.5,5.6h.2s.2-.1.1-.1Z" transform="translate(0 -0.1)"/><path class="a" d="M393,5.4h0c0,.1-.1.1-.2.1Z" transform="translate(0 -0.1)"/><path class="a" d="M400,5.2a3.2,3.2,0,0,0-2.2.2A5.5,5.5,0,0,0,400,5.2Z" transform="translate(0 -0.1)"/><path class="a" d="M951.7,5.2l4.3-.5,4.3-.4a28.5,28.5,0,0,1,2.9-.3,2.1,2.1,0,0,0,1.1-.1l3.9-.4c.2,0,.4-.1.5,0a4.5,4.5,0,0,0,2.3-.1c.2,0,.5,0,.5-.2s-.4-.2-.7-.2l-5,.5-5.9.6-7.4.7-3.5.4A8.2,8.2,0,0,0,951.7,5.2Z" transform="translate(0 -0.1)"/><path class="a" d="M389,5.4h0Z" transform="translate(0 -0.1)"/><path class="a" d="M1003.6,3.2a3.4,3.4,0,0,0-1.6.2A5,5,0,0,0,1003.6,3.2Z" transform="translate(0 -0.1)"/><path class="a" d="M1065.8,5.4h0Z" transform="translate(0 -0.1)"/><path class="a" d="M1061.8,5.4h0Z" transform="translate(0 -0.1)"/><path class="a" d="M1000.6,3.5h-.1C1000.5,3.5,1000.5,3.5,1000.6,3.5Z" transform="translate(0 -0.1)"/><path class="a" d="M998.8,3.5a.1.1,0,0,0,.1.1c.1,0,.2-.1.1-.1Z" transform="translate(0 -0.1)"/><path class="a" d="M1072.7,5.2a3,3,0,0,0-2.1.2A4.9,4.9,0,0,0,1072.7,5.2Z" transform="translate(0 -0.1)"/><path class="a" d="M213.6,10.5h2.9c.6-.1,1.2.1,1.6-.2A11.1,11.1,0,0,0,213.6,10.5Z" transform="translate(0 -0.1)"/><path class="a" d="M218.2,10.2a15,15,0,0,0,3.7-.3A9.2,9.2,0,0,0,218.2,10.2Z" transform="translate(0 -0.1)"/><path class="a" d="M222.5,10.6h0Z" transform="translate(0 -0.1)"/><path class="a" d="M218.1,10.1h0Z" transform="translate(0 -0.1)"/><path class="a" d="M168.7,9h.3c.1,0,.1-.1.1-.2h-.4C168.6,8.9,168.6,9,168.7,9Z" transform="translate(0 -0.1)"/><path class="a" d="M915.4,10.4a8.3,8.3,0,0,0-2.2.3h2.3Z" transform="translate(0 -0.1)"/><path class="a" d="M211.9,10.3c-.2,0-.4.1-.4.2h.6Z" transform="translate(0 -0.1)"/><path class="a" d="M229.4,11.1c-.2.1-.5.1-.5.3h.6c.1,0,.1-.1.1-.2Z" transform="translate(0 -0.1)"/><path class="a" d="M327.8,3.5h-.1A.1.1,0,0,0,327.8,3.5Z" transform="translate(0 -0.1)"/><path class="a" d="M230.9,11.5h0Z" transform="translate(0 -0.1)"/><path class="a" d="M221.1,10.5h0c.2,0,.2,0,.1-.1Z" transform="translate(0 -0.1)"/><path class="a" d="M273.8,5.6h0Z" transform="translate(0 -0.1)"/><path class="a" d="M272.7,5.8h0Z" transform="translate(0 -0.1)"/><path class="a" d="M330.8,3.2a3,3,0,0,0-1.5.2A4.4,4.4,0,0,0,330.8,3.2Z" transform="translate(0 -0.1)"/><path class="a" d="M279,5.2l4.3-.5,4.2-.4a28.5,28.5,0,0,1,2.9-.3,2.1,2.1,0,0,0,1.1-.1l3.9-.4c.2,0,.4-.1.5,0a4.4,4.4,0,0,0,2.3-.1c.3,0,.5,0,.5-.2s-.4-.2-.7-.2l-5,.5-5.9.6-7.4.7-3.5.4A8.8,8.8,0,0,0,279,5.2Z" transform="translate(0 -0.1)"/><path class="a" d="M9.9,9.1h0Z" transform="translate(0 -0.1)"/><path class="a" d="M7.1,8.4h0Z" transform="translate(0 -0.1)"/><path class="a" d="M1115,9.7c2.2-.2,4.3-.5,6.5-.6l5.5-.5c3.8-.3,7.6-.7,11.5-.9l5-.5v-3l-6.8.6-6.4.5-4.1.3-6.5.5c-1.2.1-2.3.3-3.5.3l-5.4.3h-1.5l-6.2.3h-1.4l-.6-.3.4-.2h0a19.8,19.8,0,0,1-4.2-.3,24,24,0,0,0-2.8-.3h-14.2c-1.9,0-3.8-.1-5.8,0h-4.1c-3.7-.2-7.4.1-11.1,0a24.4,24.4,0,0,1-2.7.1c-1.2-.1-2.5,0-3.7,0h0a9,9,0,0,1-3.3-.1,15.6,15.6,0,0,0-3-.2,8.9,8.9,0,0,1-2.3-.1l1.2-.3h2.8a23.3,23.3,0,0,0,5.3-.2,2,2,0,0,1,1.1.2,4.8,4.8,0,0,0,2.4.3h.9c1.1,0,2.3.2,3.3-.4h1.1a56.2,56.2,0,0,0,5.8-.2h9.4l2.8-.3-7.8-.2h-6.4c-1.1,0-2.1.2-3.3.1s-4.8,0-7.2,0a2.8,2.8,0,0,1-1.7-.4h-5.7a4.7,4.7,0,0,0-2,.2,17.6,17.6,0,0,0,2.3,0,2.6,2.6,0,0,1,1.6.1,3,3,0,0,0,1.9.3,2.2,2.2,0,0,1,1.4.2h-2.3a17.7,17.7,0,0,1-2.3.1c-.8-.1-1.7.2-2.5.1l-2.4.2c-.7.1-1.4-.3-2.2,0s1,0,1.4.3h-3.1c-.1-.3-.3-.5-.8-.3s-.5-.4-.9-.1a3.3,3.3,0,0,1-1.4,0,6.5,6.5,0,0,0-2.4-.1h-2.1c-1.8-.1-3.5.2-5.2,0s-1.5.3-2.2.2-3.1.1-4.5-.4h-1a5.8,5.8,0,0,0-1.4.3c-.3.1-.9-.2-1.4-.2s-.7-.1-.8.1a1.8,1.8,0,0,1-1,.2,18.5,18.5,0,0,1-2.3.1,17.7,17.7,0,0,1-4.6,0,5.9,5.9,0,0,0-2.3,0l-3.9.4h-5.1c-.2.1-.4,0-.7,0a8.5,8.5,0,0,0-2.3-.3h-5.1a2.5,2.5,0,0,1-1.2-.1h.4c3.2-.3,6.5-.3,9.8-.5a19.2,19.2,0,0,0,3.8-.4c-.3-.3-.8,0-1.2-.1h-.6c.3-.5-.3-.3-.6-.3a34.9,34.9,0,0,1-5.6,0,27.7,27.7,0,0,0-4.1-.1,9.6,9.6,0,0,1-2.4,0h-2l-7.4.4h-.8c-.2,0-.4,0-.5-.2s.3-.2.5-.2l5-.4h.6c.3,0-.3.3.3.3h.9l2.1-.2c.6,0,1.5.1,1.9-.2a5,5,0,0,1,2.7-.4,1.8,1.8,0,0,0,1.3-.4c-3.1.1-6.1.2-9.1,0l1.1-.4c1.6-.3,3.3-.2,5-.5a26,26,0,0,1,5.6-.2h10a3,3,0,0,0,1.3-.2H1002l1-.4h-.7l-7.5.2c-.6,0-1.3.3-1.8.1s-1,.4-1.7.2a15.3,15.3,0,0,1-3.7.1,14.8,14.8,0,0,0-2.1-.1h-2a7.8,7.8,0,0,0-2.2.4,1.7,1.7,0,0,1-1.2,0,5,5,0,0,0-1.7-.2h-.5c.2.7-.7.5-1.1.5s-2.7.3-4.1.4l-3.2.3-.9.2c-2.1,0-4.1.4-6.2.5l-10,1.1c-4.1.3-8.2.9-12.3,1.3l-5.9.7a10.6,10.6,0,0,0-3.1.4,1,1,0,0,0,.7.2l6-.8c1.2-.1,2.4-.4,3.6-.4a54.2,54.2,0,0,0,5.8-.6l3.7-.3,4.1-.4,4.2-.5,4.3-.4,8.9-.9h1.2a8.1,8.1,0,0,0,2.2,0l3.8-.3a3.3,3.3,0,0,1,1.7.1,2.2,2.2,0,0,1-1.4.3l-6,.4-1.3.3h.3c.2.1.4.1.4.3h-.5l-3.1.5c2.1.1,4-.5,6.1-.5a1.4,1.4,0,0,1-1.2.4l-7.1.7a8.2,8.2,0,0,1-2.7.1c-.4,0-.8-.1-1,.2s-.8.2-.8.1-.6-.4-.9-.3a16.6,16.6,0,0,1-3.2.3,2.4,2.4,0,0,0-.9.3l-1.6.3c-.6-.5-1.5-.2-2.1-.1a9.9,9.9,0,0,1-3,.4c-.2-.1-.4,0-.6,0a5.1,5.1,0,0,1-1.3.2,12,12,0,0,0-3.8.5h-.5a3.3,3.3,0,0,0-2.2.1c-1.1.4-2.3.3-3.4.6a3,3,0,0,1-1.3.2,3.4,3.4,0,0,0-2,.2l-1.7.2L930,7.8l-5.7-.4a25.6,25.6,0,0,1-3.9.3l2.6-.4L920.4,7c-1.9-.2-3.9-.1-5.8-.3l-1.3-.2c.1-.2.6-.1.7-.3s-1.1-.2-1.3.1-.8.2-1.2.2a21.9,21.9,0,0,0-3.6-.3c-1.7-.2-3.5-.1-5.1-.7a5.6,5.6,0,0,0-2.3-.3,29.5,29.5,0,0,1-4.2-.2l-3.2-.2c-1.9-.1-3.8-.1-5.7-.3l-5.1-.2a69.4,69.4,0,0,1-7.9,0H874a41.4,41.4,0,0,1-6.1,0h-6c-2.5-.3-5,0-7.5-.1h-3.9c-2.3,0-4.5-.1-6.8.1a27.7,27.7,0,0,1-4.1.1c-1.7-.1-3.4.1-5.1-.1s-5.2.1-7.8.2h-4.1c-.8.1-1.3-.5-2.2-.3a10.3,10.3,0,0,1-2.5.1l-2.1-.2c-1.4-.2-2.8,0-4.2-.2s-.4.1-.7.1a.2.2,0,0,1-.3,0c-.2-.4-.7-.2-1.1-.3a45.2,45.2,0,0,1-7.4-.6h-.4l-6.3-.2h-6.8l-4.9-.3-2.6.2c-4.4,0-8.8-.1-13.1,0-.1-.2.5-.2.3-.4h-1a1.8,1.8,0,0,1-1.9.5h-2.7c-2.2.1-4.5.3-6.8.3-.5.1-1.1-.1-1.5,0a8,8,0,0,1-2.7.2c-3.6,0-7.3.3-10.9.4l-6.4.2h-1c.4-.2.7-.1,1-.4h-8.1a6,6,0,0,1-1.9,0c-.7-.4-1,.4-1.6.2a12,12,0,0,1-3.8-.1l-2.1-.2h-2a5.6,5.6,0,0,0-2.2.3,1.7,1.7,0,0,1-1.2-.1,4.7,4.7,0,0,0-1.7-.2h-.4c.1.7-.8.4-1.2.4s-2.8.2-4.1.3a18.3,18.3,0,0,0-3.3.2h-.9c-2.1-.1-4.2.2-6.3.3h-7.1l-10.4-.3h-3.2a52.3,52.3,0,0,1-5.6,0c-2.7-.2-5.4,0-8-.3l-2.5-.2a31.1,31.1,0,0,0-6.1.2c-.1,0-.3.1-.3.2s-.5.3-.8.3h-1.5c-1.5.2-1.7.3-2,1h-3.5l-11.8-.4-15.9-.4H600c-.2,0-.5.1-.6-.1s.3-.2.3-.4H594c-.2,0-.4.1-.4.2s.3.2.5.2a2.5,2.5,0,0,1,1.2.1,11.3,11.3,0,0,1-2.6,0c-.1-.2.1-.2.1-.3s.1-.6-.8-.5h-1.8c-2.8-.2-5.6.1-8.4,0H578a14.5,14.5,0,0,1,3-.3l9.7-.3c1.7,0,3.4-.2,5.2-.1h4.5c3,0,5.9-.2,8.8,0s4.2.1,6.4,0c-.1-.2-.5-.1-.4-.3h3.1c-.1-.6.6-.4,1-.4,2.4,0,4.7.1,7,0l1.9.2a41.3,41.3,0,0,0,5-.1h.8a62.6,62.6,0,0,0,7.5.2H645a109.9,109.9,0,0,0,11.5.2c1-.1,2,.1,3,0s.6.1.7,0,.4-.3.7-.2.4,0,.4-.1-.2-.2-.4-.2l-3.1-.2-4.6-.4c-3.3,0-6.4-.2-9.6-.4h-7.2c0-.3.6-.2.7-.4s-1.2-.1-1.3.1a1.1,1.1,0,0,1-1.2.3c-1.2-.2-2.4-.1-3.7-.2s-3.4.1-5.1-.5a8.5,8.5,0,0,0-2.3-.1H605.2c-2.6,0-5.2.4-7.9.3h-.4c-2,.2-4,.2-6.1.2h-5.9c-2.5-.2-5,.1-7.5.1h-4c-2.2.1-4.5.1-6.7.3a18.4,18.4,0,0,1-4.1.3l-5.1.2a67.9,67.9,0,0,0-7.8.4l-4,.2c-.9.1-1.4-.5-2.3-.3a6.5,6.5,0,0,1-2.4.2h-2.1c-1.5-.1-2.9.1-4.3,0s-.4.1-.6.2-.3,0-.3-.1-.8-.2-1.2-.2a62.7,62.7,0,0,1-7.5-.3h-.3c-2.1.1-4.3.1-6.4,0h-.5l-6.3.2h-4.9l-2.6.2-13.1.5c0-.2.5-.1.3-.3h-.5c-.2,0-.4,0-.4.1s-1.2.6-2,.6h-2.6l-6.8.6c-.5,0-1-.2-1.4,0a6.3,6.3,0,0,1-2.7.3c-3.7.1-7.3.6-10.9.8l-6.4.5-4.1.3-6.5.5c-1.2.1-2.3.3-3.5.3s-3.6.3-5.4.3h-1.5c-2,.2-4.1.2-6.2.3h-1.4l-.6-.3.4-.2a.1.1,0,0,1-.1-.1h.1a18.9,18.9,0,0,1-4.1-.3l-2.8-.3H407.5c-1.9,0-3.8-.1-5.7,0h-4.2c-3.7-.2-7.4.1-11.1,0a24.4,24.4,0,0,1-2.7.1c-1.2-.1-2.5,0-3.7,0h0a9.1,9.1,0,0,1-3.3-.1,15.1,15.1,0,0,0-3-.2,9.1,9.1,0,0,1-2.3-.1,6.1,6.1,0,0,1,1.3-.3h2.7a23.3,23.3,0,0,0,5.3-.2,2,2,0,0,1,1.1.2,5.1,5.1,0,0,0,2.5.3h.8c1.1,0,2.3.2,3.3-.4h1.1a55.2,55.2,0,0,0,5.8-.2h9.4l2.8-.3-7.8-.2h-6.3c-1.1,0-2.2.2-3.4.1s-4.8,0-7.1,0a3,3,0,0,1-1.8-.4h-5.7a4.7,4.7,0,0,0-2,.2,19.2,19.2,0,0,0,2.4,0,2.4,2.4,0,0,1,1.5.1,3.1,3.1,0,0,0,1.9.3,2.6,2.6,0,0,1,1.5.2h-2.3a19.3,19.3,0,0,1-2.4.1c-.8-.1-1.6.2-2.5.1l-2.3.2c-.8.1-1.5-.3-2.2,0s.9,0,1.3.3h-3.1c-.1-.3-.2-.5-.7-.3s-.6-.4-1-.1a2.9,2.9,0,0,1-1.3,0,7.1,7.1,0,0,0-2.5-.1h-2.1c-1.8-.1-3.5.2-5.2,0s-1.5.3-2.2.2-3.1.1-4.5-.4h-1a7,7,0,0,0-1.4.3c-.3.1-.9-.2-1.4-.2s-.6-.1-.8.1a1.8,1.8,0,0,1-1,.2,17.7,17.7,0,0,1-2.2.1,18.5,18.5,0,0,1-4.7,0,5.4,5.4,0,0,0-2.2,0l-4,.4h-5a2.2,2.2,0,0,1-.8,0,8.5,8.5,0,0,0-2.3-.3h-5.1c-.4,0-.8.1-1.1-.1s.2-.1.3-.1c3.3-.3,6.6-.3,9.8-.5a20.4,20.4,0,0,0,3.9-.4c-.4-.3-.9,0-1.3-.1h-.6c.3-.5-.3-.3-.5-.3a36.2,36.2,0,0,1-5.7,0,26.7,26.7,0,0,0-4-.1,10.4,10.4,0,0,1-2.5,0h-2l-7.4.4h-.7c-.2,0-.5,0-.5-.2s.2-.2.5-.2l4.9-.4h.6c.3,0-.3.3.3.3h.9l2.1-.2c.6,0,1.5.1,1.9-.2a5,5,0,0,1,2.7-.4,1.6,1.6,0,0,0,1.3-.4c-3.1.1-6.1.2-9,0l1-.4c1.6-.3,3.4-.2,5-.5a26,26,0,0,1,5.6-.2h10a3.4,3.4,0,0,0,1.4-.2h-3.6l1-.4h-.6L322,.5c-.6,0-1.3.3-1.8.1s-1,.4-1.7.2a15.3,15.3,0,0,1-3.7.1,14.8,14.8,0,0,0-2.1-.1h-2a7.1,7.1,0,0,0-2.1.4,1.9,1.9,0,0,1-1.3,0,4.7,4.7,0,0,0-1.7-.2h-.4c.2.7-.8.5-1.2.5s-2.7.3-4,.4l-3.2.3-1,.2c-2.1,0-4.1.4-6.2.5l-10,1.1c-4.1.3-8.2.9-12.3,1.3l-5.8.7a11.2,11.2,0,0,0-3.2.4,1,1,0,0,0,.7.2l6-.8c1.2-.1,2.4-.4,3.6-.4a54.2,54.2,0,0,0,5.8-.6l3.7-.3,4.2-.4,4.1-.5,4.3-.4,8.9-.9h1.3a7.4,7.4,0,0,0,2.1,0c1.3-.1,2.6-.1,3.8-.3a3.7,3.7,0,0,1,1.8.1,2.7,2.7,0,0,1-1.5.3l-5.9.4-1.4.3h.3c.2.1.5.1.4.3H300l-3,.5c2,.1,3.9-.5,6-.5a1.4,1.4,0,0,1-1.2.4l-7,.7A8.7,8.7,0,0,1,292,5c-.4,0-.7-.1-1,.2s-.8.2-.8.1-.5-.4-.8-.3a18.4,18.4,0,0,1-3.3.3,2.4,2.4,0,0,0-.9.3l-1.6.3c-.6-.5-1.4-.2-2.1-.1a9.9,9.9,0,0,1-3,.4c-.1-.1-.4,0-.6,0a5,5,0,0,1-1.2.2,12.7,12.7,0,0,0-3.9.5h-.4a3.6,3.6,0,0,0-2.3.1c-1.1.4-2.3.3-3.4.6a2.7,2.7,0,0,1-1.3.2,3.4,3.4,0,0,0-2,.2l-1.6.2-4.6-.5-5.6-.4-4,.3,2.6-.4L247.7,7l-5.9-.3-1.3-.2c.1-.2.6-.1.8-.3s-1.2-.2-1.4.1-.7.2-1.1.2a23.1,23.1,0,0,0-3.7-.3c-1.7-.2-3.5-.1-5-.7a6.3,6.3,0,0,0-2.4-.3,29.5,29.5,0,0,1-4.2-.2l-3.2-.2c-1.9-.1-3.8-.1-5.6-.3l-5.1-.2a71.2,71.2,0,0,1-8,0h-.4a41.4,41.4,0,0,1-6.1,0h-6c-2.4-.3-5,0-7.4-.1h-4c-2.3,0-4.5-.1-6.8.1a26.7,26.7,0,0,1-4,.1c-1.8-.1-3.5.1-5.2-.1s-5.2.1-7.8.2h-4.1c-.8.1-1.3-.5-2.2-.3a9.7,9.7,0,0,1-2.4.1l-2.1-.2c-1.4-.2-2.9,0-4.3-.2s-.4.1-.6.1-.3.1-.3,0-.8-.2-1.2-.3a45.2,45.2,0,0,1-7.4-.6h-.4l-6.3-.2h-6.8l-4.9-.3-2.6.2c-4.4,0-8.7-.1-13.1,0-.1-.2.5-.2.3-.4H95c-.2,0-.4,0-.4.1a2,2,0,0,1-2,.5H90c-2.3.1-4.6.3-6.9.3-.5.1-1-.1-1.5,0a7.6,7.6,0,0,1-2.6.2c-3.7,0-7.4.3-11,.4l-6.5.2-4,.2-6.6.3H47.4c-1.8-.1-3.6.1-5.5.1H40.5c-2.1.2-4.2.1-6.3.1H23.9c-2.2.1-4.4-.1-6.6-.1-4.7,0-9.3-.1-14-.3H0v8.1H1143.5V7.9l-2.2.2-3.9.3c-1.6.1-3.2.4-4.8.4l-.6.2a7.8,7.8,0,0,1-2.3.5c-3.1.2-6.1.7-9.1.8h-.4a8.8,8.8,0,0,1-4,.4,3.4,3.4,0,0,0-1,0c-1.1,0-2.1.2-3.2.3h-1.6c-.3-.3-.7-.6-.2-1h.5C1112.1,9.9,1113.6,9.9,1115,9.7ZM985.8,2.9h.3c0,.2-.2.2-.3.2s-.3,0-.3-.1S985.7,2.9,985.8,2.9Zm-7.2-1.4c.3-.3.5-.2.8-.2ZM612.4,2.7h.2C612.4,2.9,612.3,2.8,612.4,2.7ZM313,2.9h.3c.1.2-.2.2-.3.2s-.3,0-.3-.1Zm-7.2-1.4a.9.9,0,0,1,.8-.2ZM38.7,10.1h-2l-.4-.2.3-.3h.1c1.1.2,2.1-.2,3.1-.1H40A1.4,1.4,0,0,1,38.7,10.1Zm67.1-4.5-7.9.2L89.4,6l-7.6.4L72.2,7H68.4l-4.9.3h-.6a6.4,6.4,0,0,1-2.4.5c-3,0-6.1.4-9.2.5H51a8.1,8.1,0,0,1-4.1.2h-1l-3.2.2H38c-4.2.3-8.3.4-12.5.4h-2c-1.2,0-2.4.2-3.7.1H10.4a2.9,2.9,0,0,1-1.3-.1H8.7c-1,.4-2,0-2.9.1H2.5c0-.2.1-.2.2-.3a2.9,2.9,0,0,1,1.4-.3H1V7.7H2.4a20.2,20.2,0,0,0,3.5.1h4.3a11.9,11.9,0,0,1,3.3.3,10.7,10.7,0,0,0,2.5.3H31l2.7-.2h3.2l4.6-.3h4.4c2.1-.2,4.3-.4,6.4-.4s3.8-.2,5.6-.3l11.6-.5c1.9-.1,3.9-.1,5.8-.3s3.6,0,5.3-.3a41,41,0,0,0,6.1-.2l9.8-.3c5-.2,10.1-.2,15.1-.1h1.2ZM142,8.9l2.4.2A4.9,4.9,0,0,1,142,8.9Zm3.7.4c0-.2.2-.3.3-.2h2.4l.3.2A15.1,15.1,0,0,1,145.7,9.3Zm3.1.1a11.2,11.2,0,0,1,4.1.3A15,15,0,0,1,148.8,9.4Zm5.9.3h1.8C155.8,10.1,155.3,9.7,154.7,9.7Zm3.2.3h0C158,9.9,158,10,157.9,10Zm58.5-2.8a.3.3,0,0,1,.4,0h-.4Zm-31.7,1c-1.7.2-3.1-.1-4.7.1C180.9,7.8,182.9,7.8,184.7,8.2Zm-24.2,2h-.7V9.9c.4,0,.6.1.7.3Zm.1,0a2.1,2.1,0,0,1,1.1-.1A2.1,2.1,0,0,1,160.6,10.2Zm2.9.2c-.2-.1-.4,0-.5-.2h.5c.2,0,.4.1.3.2Zm32.5.7h-.8c.3-.2.7,0,.9-.1S196.1,11,196,11.1Zm11.3-.4c.6-.4,1.1-.1,1.5-.1a5.3,5.3,0,0,1,1.3-.1A8.2,8.2,0,0,1,207.3,10.7ZM228.8,12h0Zm8.3-.5-3.5.2-2.6-.2h-1.5l-.2.2c-.2,0-.3-.1-.3-.2l-6.2-.4-9-.4h-2.1c-.1,0-.3,0-.2-.1l-2.1-.2c-.2,0-.5,0-.5-.1s-1.1-.4-1.7-.5h-3c-3.5-.2-7.1-.3-10.6-.3H185c-4.7,0-9.5.2-14.2-.1h-.4a37.5,37.5,0,0,1-5.8.2h-2.1c-.4,0-1-.1-.9-.3s.6-.1.9-.2h.6a15.4,15.4,0,0,0,4.3-.1,18.6,18.6,0,0,1,5.3.2h1.1a31.4,31.4,0,0,1,4.5-.4h9.8a16.1,16.1,0,0,1,3.1,0c2.1.2,4.2,0,6.3.2s4.8.1,7.3.2l9.8.5,10.6.5a10.9,10.9,0,0,0,1.8.1,45.8,45.8,0,0,1,5.3.3c1.7.1,3.5.1,5.1.3l4.9.5C240.6,11.4,238.8,11.4,237.1,11.5ZM189.8,8.2c0-.2.3-.2.5-.2s.5-.1.6.1-.3.1-.5.2ZM223,9.8c.1-.1.4-.2.5-.1s-.1.2-.3.2Zm35.2-.3-4.8.4-4.3.5-5.2.5-3-.2h-.5l-5.9-.5-15.8-1c-4.9-.3-9.9-.4-14.8-.6-.3,0-.6,0-.7-.2s.4-.2.4-.4h-2a22.6,22.6,0,0,0-3.7-.1c-.2,0-.4,0-.4.2s.2.2.4.2a2.1,2.1,0,0,1,1.3.2,10.6,10.6,0,0,1-2.6-.2c-.1-.1.1-.2.1-.3s.1-.5-.7-.5h-1.9c-2.7-.3-5.5-.1-8.3-.3l-3.9-.2a10.8,10.8,0,0,1,3.1-.2h9.7a45.1,45.1,0,0,1,5.2.1l4.5.2c2.9.1,5.9,0,8.8.3l6.3.2c0-.1-.5-.1-.3-.3a10.5,10.5,0,0,1,2.5.1c.2,0,.6,0,.6-.1s.7-.3,1.1-.3c2.3,0,4.6.3,6.9.3l2,.2c1.6,0,3.3.3,4.9.2a2.2,2.2,0,0,1,.8,0l4,.4,4.1-.4v.2l-2.1.3h4.9l6,.5h-.5c-.3.1-.5.2-.8,0a.6.6,0,0,0-.7,0c-.3.5-1.1.4-1.7.5s-.5-.1-.5.2.3,0,.5,0c2.6-.3,5.2-.6,7.9-.7h2.2Zm37.7-4-4.5.4-4.2.3-6.9.8-5.4.6a18.6,18.6,0,0,1-3.3.4c-2.2.1-4.3.4-6.4.7h-2l7.3-.8,6.6-.7,9-1,2.8-.3,6.4-.6c.4,0,.8-.1,1,.2Zm82.4,1.9h0c.1,0,.2,0,.1.1Zm5.4,4.2h0Zm1.9-4.7a1.7,1.7,0,0,1,1,0Zm17.1.3h-.9c-.1-.1-.1-.1.1-.1h.8c.1,0,.1,0,.1.1Zm.9,5h.1S403.6,12.3,403.6,12.2Zm4.8-4.9c0-.2.3-.2.4-.2s.4-.1.6.1Zm2.4-.1h-.1c0-.1,0-.1.1-.1h.2C411,7.2,410.9,7.2,410.8,7.2Zm91-1.7-7.8.4-8.5.6-7.5.7-9.5.9-3.8.3c-1.7.1-3.3.4-4.9.4l-.6.2a7.8,7.8,0,0,1-2.3.5c-3,.2-6,.7-9.1.8h-.4a8.8,8.8,0,0,1-4,.4,3.4,3.4,0,0,0-1,0c-1.1,0-2.1.2-3.2.3h-1.6c-.2-.3-.6-.6-.2-1h.5l4.4-.3c2.1-.2,4.2-.5,6.4-.6l5.5-.5,11.5-.9c1.9-.2,3.9-.3,5.8-.6s3.6-.2,5.3-.5a30.3,30.3,0,0,0,6-.4l9.7-.7c5-.3,10.1-.6,15.1-.7h1.3C506.4,5.1,504.2,5.4,501.8,5.5Zm36,5a1.3,1.3,0,0,1,1.2.1Zm7.9-5.8,2.4.2A4.8,4.8,0,0,1,545.7,4.7Zm3.6.5c.1-.2.2-.3.3-.2l2.4.2.4.2A15.6,15.6,0,0,1,549.3,5.2Zm3.2.2a13.7,13.7,0,0,1,4,.5A19,19,0,0,1,552.5,5.4Zm33.9-.8c.2-.1.5-.1.6.1s-.2.1-.4.2H586Zm-5.5.4c-1.7.3-3.1,0-4.7.3A8.6,8.6,0,0,1,580.9,5ZM561.3,6.2h.2c-.1,0-.3,0-.3-.1S561.2,6.2,561.3,6.2ZM559.7,6h.4c-.7.2-1.2-.1-1.8-.1Zm-.2,5.1a1.7,1.7,0,0,1,1.2,0A1.3,1.3,0,0,1,559.5,11.1Zm7.8-4.2h-.8c.1-.2.4-.1.6-.1S567.4,6.8,567.3,6.9Zm32,2c-.2,0-.5.1-.7-.1s.6,0,.9-.1S599.5,8.9,599.3,8.9Zm18.4,2.6c-.2.3-.6.3-1,.2H616l.2-.2h1.5Zm1.8.1-1-.2h1Zm2.5.3h.1c.1,0,.2,0,.1.1Zm.4-.4h-1.2c.3-.2.6-.1.9-.1h.3Zm.7.1h0Zm10.8-.9h0Zm10.5-.2a.7.7,0,0,0-.5.4l-3.4-.2-7-.2h-.7c0,.1-.1.2-.3.2s-.3-.1-.3-.2l-9.8-.2c-.2,0-.6.1-.6-.1s-.5-.3-.7-.3H602.8c.1-.2.3-.2.5-.2h7.5a33.8,33.8,0,0,0,4.5.1c2.5-.2,5.1.1,7.7,0l9,.2h12.4l-.9.2h1.2S644.7,10.5,644.4,10.5ZM610.7,9c.6-.4,1-.1,1.4-.1h1.4A8.7,8.7,0,0,1,610.7,9Zm4.1-.1h0ZM617,9a11.3,11.3,0,0,1,4.5-.1,4.3,4.3,0,0,1-1.6.1Zm7.7-2a11,11,0,0,1,2.4.2A8.6,8.6,0,0,1,624.7,7Zm1.9,1.7h-.2c.2-.1.5-.2.6-.1S626.8,8.7,626.6,8.7Zm-1.3,0a15.1,15.1,0,0,1-3.7.2A11.4,11.4,0,0,1,625.3,8.7Zm4.3-1.6a1.2,1.2,0,0,1,.8-.1c.2.1.5,0,.8.2A4.2,4.2,0,0,1,629.6,7.1Zm1.9,1.4a7.6,7.6,0,0,1,2.1-.1l-1,.2A2.2,2.2,0,0,1,631.5,8.5Zm12.4.8h-.6v.2L635,9.3a33.9,33.9,0,0,1,4.5-.2,15.2,15.2,0,0,0,3.7,0l1.5-.2ZM639.4,8c0,.1.1.2,0,.3a6.2,6.2,0,0,1-2.3-.1C637.8,7.9,638.7,8.2,639.4,8Zm-2.1-.7h.3c.2,0,.4,0,.3.2h-.3C637.5,7.4,637.3,7.4,637.3,7.3Zm2.1.7c.3.1.7-.1,1.1.1A1.3,1.3,0,0,1,639.4,8Zm2.2.1V7.9l8.1-.4v.2A73.2,73.2,0,0,1,641.6,8.1Zm32.1-.3a12.6,12.6,0,0,1-2.7.4h-1.3l-10-.3A5,5,0,0,0,658,8h-1.7l-3.9-.2a3.8,3.8,0,0,1,2.1-.1h8.2c.7-.1,1.3.2,2,0a28.5,28.5,0,0,0-4.2-.4h-4.4a40.3,40.3,0,0,1-4.9.3l1.9-.3-1.5-.2c-1.9.1-3.9-.1-5.8-.1l-8.4-.2L627,6.5h-7.8c-3,0-6-.2-9.1-.1h-4.9c-.4-.5-1.1-.4-1.7-.4s-2,.1-3,0c-3.5,0-7.1,0-10.6.2l-8.6.2c-4.8.1-9.4.5-14.2.5h-.3a38.1,38.1,0,0,1-5.9.4h-2.1c-.4,0-.9,0-.9-.3s.6-.2.9-.2h.6a12.3,12.3,0,0,0,4.3-.3,18.8,18.8,0,0,1,5.3.1,4.1,4.1,0,0,0,1.1,0,28.9,28.9,0,0,1,4.4-.7l9.8-.3c1,0,2.1-.3,3.1-.2s4.2-.1,6.3,0,4.8,0,7.3,0,6.6.1,9.9,0h10.5a12.8,12.8,0,0,0,1.9.1h5.3l5.2.2c3.8.3,7.8.3,11.7.4h.5c-.1.4,0,.5.6.5a5.5,5.5,0,0,1,1.8-.1c1.6.1,3.3,0,4.9.2s4.4.4,6.6.4h1c1.8.2,3.5.7,5.3.3h.6c2.4.3,4.9.3,7.4.4Zm10.2.3-5.4.4-3,.3a2.8,2.8,0,0,1,1.3-.3h-1.3l5.2-.3,1.7-.2h1.5Zm26.9-4.7-.8.2C710.3,3.3,710.5,3.4,710.8,3.4Zm-7.9,1.1h-3.8l4.6-.3h-.8Zm4.3,0,3.7-.2h-3.7Zm7.4-.1h.3c1.7-.2,3.4-.1,5-.3a21,21,0,0,1,5.6,0h.7a8.7,8.7,0,0,1,2.3-.1h.8l-5.7.3h-3.4c-1.8-.1-3.6.1-5.5.1Zm63.9,1.2-7.8.2-8.5.2-7.6.4L745,7h-3.9l-4.9.3h-.6a5.6,5.6,0,0,1-2.3.5c-2.5,0-5,.3-7.5.4h-1.1L719.6,8h-1.1c.1-.2.2-.2.3-.2,3.3-.1,6.6,0,9.9,0l3.8-.3c-.3-.4-.8-.1-1.2-.2s-.6,0-.5-.1V6.9l11.5-.5c1.9-.1,3.9-.1,5.8-.3s3.6,0,5.3-.3a41,41,0,0,0,6.1-.2l9.8-.3c5-.2,10-.2,15.1-.1h1.2C783.2,5.5,780.9,5.6,778.5,5.6Zm36.3,3.3,2.4.2A4.8,4.8,0,0,1,814.8,8.9Zm3.7.4c0-.2.1-.3.2-.2h2.5l.3.2A15.1,15.1,0,0,1,818.5,9.3Zm3.1.1a11.4,11.4,0,0,1,4.1.3A14.7,14.7,0,0,1,821.6,9.4Zm5.9.3h1.8C828.6,10.1,828.1,9.7,827.5,9.7Zm3.2.3h0C830.8,9.9,830.7,10,830.7,10Zm58.5-2.8a.2.2,0,0,1,.3,0h-.2C889.2,7.3,889.1,7.2,889.2,7.2Zm-31.7,1c-1.7.2-3.1-.1-4.7.1C853.7,7.8,855.7,7.8,857.5,8.2Zm-24.2,2h-.7c-.1-.1,0-.1.1-.2a.8.8,0,0,1,.7.3Zm.1,0a1.7,1.7,0,0,1,1-.1C834.1,10.3,833.8,10.2,833.4,10.2Zm2.9.2c-.2-.1-.5,0-.5-.2h.5c.2,0,.4.1.3.2Zm32.5.7H868c.3-.2.6,0,.9-.1S868.9,11,868.8,11.1Zm11.3-.4c.6-.4,1-.1,1.5-.1a5.3,5.3,0,0,1,1.3-.1A8.4,8.4,0,0,1,880.1,10.7ZM901.6,12h0Zm8.2-.5-3.4.2-2.6-.2h-1.5l-.2.2a.5.5,0,0,1-.4-.2l-6.2-.4-8.9-.4h-2.4l-2-.2h-.6c-.3-.5-1-.4-1.6-.5h-3c-3.5-.2-7.1-.3-10.6-.3h-8.7c-4.7,0-9.4.2-14.1-.1h-.4a37.5,37.5,0,0,1-5.8.2h-2.2c-.3,0-.9-.1-.8-.3s.6-.1.9-.2h.6a15.4,15.4,0,0,0,4.3-.1,18.9,18.9,0,0,1,5.3.2h1.1a31.3,31.3,0,0,1,4.4-.4h9.9a16.1,16.1,0,0,1,3.1,0c2.1.2,4.2,0,6.3.2s4.8.1,7.2.2l9.9.5,10.5.5a12.8,12.8,0,0,0,1.9.1,47.1,47.1,0,0,1,5.3.3l5.1.3,4.8.5C913.4,11.4,911.6,11.4,909.8,11.5ZM862.6,8.2c0-.2.3-.2.4-.2s.6-.1.6.1-.2.1-.4.2Zm33.1,1.6c.2-.1.5-.2.6-.1s-.2.2-.3.2Zm35.2-.3-4.7.4-4.4.5-5.1.5-3-.2h-.5l-5.9-.5-15.8-1c-4.9-.3-9.9-.4-14.9-.6-.2,0-.5,0-.6-.2s.3-.2.3-.4h-1.9a23.2,23.2,0,0,0-3.7-.1c-.2,0-.4,0-.5.2s.3.2.5.2a2.1,2.1,0,0,1,1.3.2,11.4,11.4,0,0,1-2.7-.2l.2-.3c.2-.4.1-.5-.7-.5h-1.9c-2.8-.3-5.6-.1-8.3-.3l-3.9-.2a10.1,10.1,0,0,1,3-.2h9.8a43.4,43.4,0,0,1,5.1.1l4.6.2c2.9.1,5.8,0,8.7.3l6.4.2c0-.1-.5-.1-.4-.3a11.1,11.1,0,0,1,2.6.1c.2,0,.6,0,.6-.1s.6-.3,1.1-.3c2.3,0,4.6.3,6.9.3l1.9.2c1.7,0,3.3.3,5,.2a2.2,2.2,0,0,1,.8,0l4,.4,4-.4v.2l-2.1.3h4.9l6,.5h-.5c-.3.1-.5.2-.8,0a.6.6,0,0,0-.7,0c-.4.5-1.1.4-1.7.5s-.5-.1-.5.2.3,0,.4,0c2.7-.3,5.3-.6,7.9-.7h2.3Zm37.8-4-4.6.4-4.2.3-6.8.8c-1.8.2-3.6.3-5.4.6a18.6,18.6,0,0,1-3.3.4c-2.2.1-4.3.4-6.4.7h-2l7.2-.8,6.7-.7,9-1,2.8-.3,6.4-.6c.4,0,.8-.1,1,.2A.5.5,0,0,0,968.7,5.5Zm82.4,1.9h0c.1,0,.1,0,.1.1Zm5.3,4.2h0Zm1.9-4.7a2,2,0,0,1,1.1,0Zm17.2.3h-1c0-.1,0-.1.1-.1h.9a.1.1,0,0,1,.1.1Zm.8,5h.2C1076.4,12.2,1076.4,12.3,1076.3,12.2Zm4.9-4.9c0-.2.2-.2.4-.2s.3-.1.5.1Zm2.4-.1h.2C1083.8,7.2,1083.7,7.2,1083.6,7.2Z" transform="translate(0 -0.1)"/></svg>