<?xml version="1.0" encoding="UTF-8"?>
<svg width="180px" height="85px" viewBox="0 0 180 85" version="1.1" xmlns="http://www.w3.org/2000/svg" xmlns:xlink="http://www.w3.org/1999/xlink">
    <!-- Generator: Sketch 50.2 (55047) - http://www.bohemiancoding.com/sketch -->
    <title>Fill 1</title>
    <desc>Created with Sketch.</desc>
    <defs></defs>
    <g id="Symbols" stroke="none" stroke-width="1" fill="none" fill-rule="evenodd">
        <g id="Footer" transform="translate(-212.000000, -48.000000)" fill="#F9F9F9">
            <g id="FOOTER">
                <g id="Links">
                    <g transform="translate(212.000000, 48.000000)" id="Stacked-Group-5">
                        <g>
                            <path d="M158.675693,78.9559812 L159.963491,78.9559812 L159.963491,77.7055272 L157.427519,77.7055272 L157.427519,83.7489158 L22.5631115,83.7489158 L22.5631115,77.7055272 L20.0274538,77.7055272 L20.0274538,78.9559812 L21.3149377,78.9559812 L21.3149377,84.9993699 L158.675693,84.9993699 L158.675693,78.9559812 Z M157.427519,64.5258234 L157.427519,65.7343751 L158.675693,65.7343751 L158.675693,63.2753694 L21.3149377,63.2753694 L21.3149377,65.7343751 L22.5631115,65.7343751 L22.5631115,64.5258234 L157.427519,64.5258234 Z M17.8163402,77.7055272 L16.4728788,77.7055272 L16.4728788,70.5370764 L22.5631115,70.5370764 L22.5631115,67.9596099 L21.3149377,67.9596099 L21.3149377,69.2869374 L15.2250195,69.2869374 L15.2250195,78.9559812 L17.8163402,78.9559812 L17.8163402,77.7055272 Z M164.765611,69.2869374 L158.675693,69.2869374 L158.675693,67.9596099 L157.427519,67.9596099 L157.427519,70.5370764 L163.517437,70.5370764 L163.517437,77.7055272 L162.174605,77.7055272 L162.174605,78.9559812 L164.765611,78.9559812 L164.765611,69.2869374 Z M23.0414366,81.9767304 L156.968377,81.9767304 L156.968377,80.7262763 L23.0414366,80.7262763 L23.0414366,81.9767304 Z M19.5286875,82.4552992 L18.2805137,82.4552992 L18.2805137,83.7495459 L16.4829422,83.7495459 L16.4829422,81.9767304 L20.8646014,81.9767304 L20.8646014,80.7262763 L15.2347684,80.7262763 L15.2347684,85 L19.5286875,85 L19.5286875,82.4552992 Z M20.1023002,67.4930132 L159.907514,67.4930132 L159.907514,66.2425591 L20.1023002,66.2425591 L20.1023002,67.4930132 Z M18.2990681,80.2700764 L19.5472419,80.2700764 L19.5472419,71.0348636 L18.2990681,71.0348636 L18.2990681,80.2700764 Z M19.5286875,63.2750543 L15.2347684,63.2750543 L15.2347684,67.4930132 L17.8034465,67.4930132 L17.8034465,66.2425591 L16.4829422,66.2425591 L16.4829422,64.5251933 L18.2805137,64.5251933 L18.2805137,68.7273994 L19.5286875,68.7273994 L19.5286875,63.2750543 Z M164.774417,80.7262763 L159.145527,80.7262763 L159.145527,81.9767304 L163.526243,81.9767304 L163.526243,83.7495459 L161.730558,83.7495459 L161.730558,82.4552992 L160.482384,82.4552992 L160.482384,85 L164.774417,85 L164.774417,80.7262763 Z M160.462887,80.2700764 L161.71106,80.2700764 L161.71106,71.0348636 L160.462887,71.0348636 L160.462887,80.2700764 Z M161.730558,64.5251933 L163.526243,64.5251933 L163.526243,66.2425591 L162.204481,66.2425591 L162.204481,67.4930132 L164.774417,67.4930132 L164.774417,63.2750543 L160.482384,63.2750543 L160.482384,68.7273994 L161.730558,68.7273994 L161.730558,64.5251933 Z M153.556262,69.4189456 L151.936372,69.4189456 C151.778817,69.4189456 151.640446,69.5575698 151.640446,69.7160426 L151.640446,75.0061343 C151.640446,76.1132382 151.041046,76.7477594 149.995083,76.7477594 C148.95824,76.7477594 148.363243,76.1132382 148.363243,75.0061343 L148.363243,69.7160426 C148.363243,69.5493784 148.233048,69.4189456 148.067002,69.4189456 L146.460006,69.4189456 C146.292702,69.4189456 146.151186,69.5547344 146.151186,69.7160426 L146.151186,75.0061343 C146.151186,77.247752 147.731766,78.8132612 149.995083,78.8132612 C152.266262,78.8132612 153.852503,77.247752 153.852503,75.0061343 L153.852503,69.7160426 C153.852503,69.5575698 153.714131,69.4189456 153.556262,69.4189456 Z M141.832108,69.4189456 L140.212218,69.4189456 C140.054663,69.4189456 139.916292,69.5575698 139.916292,69.7160426 L139.916292,78.3866765 C139.916292,78.5454643 140.054663,78.6840886 140.212218,78.6840886 L141.832108,78.6840886 C141.989663,78.6840886 142.128349,78.5454643 142.128349,78.3866765 L142.128349,69.7160426 C142.128349,69.5575698 141.989663,69.4189456 141.832108,69.4189456 Z M135.661368,69.4189456 L134.041793,69.4189456 C133.884238,69.4189456 133.745867,69.5575698 133.745867,69.7160426 L133.745867,76.2190968 C133.745867,76.4982357 133.519755,76.7991134 133.154957,76.7991134 C132.97476,76.7991134 132.80211,76.7631971 132.732295,76.739883 C132.693929,76.7253905 132.656505,76.7178292 132.620655,76.7178292 C132.551469,76.7178292 132.453037,76.7458691 132.380391,76.8772471 L131.751116,77.9856112 C131.702371,78.0668955 131.690421,78.1579464 131.716837,78.2414361 C131.741996,78.32083 131.79986,78.3854163 131.878166,78.4200724 C132.176608,78.5429439 132.791103,78.7486749 133.55309,78.7486749 C135.131783,78.7486749 135.957924,77.5086177 135.957924,76.2836831 L135.957924,69.7160426 C135.957924,69.5575698 135.819238,69.4189456 135.661368,69.4189456 Z M127.961309,69.4189456 L126.341419,69.4189456 C126.183864,69.4189456 126.045178,69.5575698 126.045178,69.7160426 L126.045178,78.3866765 C126.045178,78.5454643 126.183864,78.6840886 126.341419,78.6840886 L127.961309,78.6840886 C128.118864,78.6840886 128.257235,78.5454643 128.257235,78.3866765 L128.257235,69.7160426 C128.257235,69.5575698 128.118864,69.4189456 127.961309,69.4189456 Z M119.373471,75.8961652 L117.712384,75.889234 C117.708296,75.883248 117.70578,75.8725361 117.709868,75.8615092 L118.538525,73.834129 C118.539468,73.8338139 118.543556,73.8325537 118.550789,73.8325537 L118.569029,73.8486215 L119.391396,75.860879 C119.396428,75.8725361 119.393283,75.883248 119.373471,75.8961652 Z M119.046096,69.6454702 C118.982886,69.5036954 118.855521,69.4189456 118.705199,69.4189456 L118.396694,69.4189456 C118.246372,69.4189456 118.119007,69.5036954 118.055168,69.6467305 L114.389896,78.3085428 C114.358762,78.3948679 114.370712,78.4871791 114.422602,78.560902 C114.475749,78.6371454 114.565061,78.6840886 114.655632,78.6840886 L116.327097,78.6840886 C116.487796,78.6840886 116.616733,78.6015441 116.682145,78.4544134 L116.976185,77.721595 C117.016753,77.630544 117.092857,77.5744642 117.175251,77.5744642 L119.926328,77.5744642 C120.009036,77.5744642 120.085141,77.630544 120.124136,77.7190746 L120.421006,78.4575639 C120.485474,78.6015441 120.614412,78.6840886 120.774797,78.6840886 L122.446261,78.6840886 C122.536832,78.6840886 122.626144,78.6371454 122.679292,78.560902 C122.731181,78.4871791 122.743131,78.3948679 122.71074,78.3050772 L119.046096,69.6454702 Z M108.715721,72.3221791 C108.715721,72.8001179 108.414763,73.1369119 107.970716,73.160541 L107.044885,73.160541 C107.014066,73.160541 106.981045,73.1211591 106.981045,73.0836675 L106.979473,71.4989399 C106.984819,71.4721602 107.006833,71.4324633 107.044885,71.4324633 L107.893668,71.4324633 C108.408159,71.4324633 108.715721,71.7314507 108.715721,72.2320734 L108.715721,72.3221791 Z M106.981045,76.6062996 L106.981045,74.9160285 C106.981045,74.8719208 107.008405,74.8391551 107.044885,74.8391551 L108.484578,74.8391551 C109.115426,74.8391551 109.435567,75.1255402 109.435567,75.6901191 L109.435567,75.7934572 C109.435567,76.3504748 109.070455,76.6702558 108.433317,76.6702558 L107.044885,76.6702558 C107.010921,76.6702558 106.981045,76.6403256 106.981045,76.6062996 Z M110.489392,73.480007 C110.45417,73.4604735 110.432156,73.4333788 110.425552,73.4015582 C110.418634,73.366272 110.431213,73.3253149 110.46046,73.2878233 C110.779029,72.8952645 110.940672,72.4661594 110.940672,72.0127949 L110.940672,71.9094568 C110.940672,70.3505638 109.613563,69.4189456 108.330482,69.4189456 L105.064915,69.4189456 C104.88,69.4189456 104.768988,69.569857 104.768988,69.7160426 L104.768988,78.3866765 C104.768988,78.5536558 104.898869,78.6840886 105.064915,78.6840886 L109.051586,78.6840886 L109.053159,78.6840886 C110.612983,78.6311593 111.78914,77.3769246 111.78914,75.7676227 L111.78914,75.6772019 C111.78914,74.7799247 111.291318,73.9380972 110.489392,73.480007 Z M95.2307896,69.4189456 L93.6241078,69.4189456 C93.4577475,69.4189456 93.3275525,69.5493784 93.3275525,69.7160426 L93.3275525,74.2320437 C93.3275525,74.2518922 93.3014506,74.2496868 93.2932741,74.2414954 L88.5751206,69.5191331 C88.51191,69.455492 88.4166223,69.4189456 88.3144161,69.4189456 L88.1216395,69.4189456 C87.9540213,69.4189456 87.812505,69.5547344 87.812505,69.7160426 L87.812505,78.3866765 C87.812505,78.5479848 87.9540213,78.6840886 88.1216395,78.6840886 L89.7286357,78.6840886 C89.894367,78.6840886 90.024562,78.5536558 90.024562,78.3866765 L90.024562,73.8706754 C90.024562,73.8479914 90.0522363,73.8410602 90.0720486,73.8609087 L94.7128399,78.5577515 C94.7924035,78.6377755 94.9018428,78.6840886 95.0122255,78.6840886 L95.2307896,78.6840886 C95.3984078,78.6840886 95.5399241,78.5479848 95.5399241,78.3866765 L95.5399241,69.7160426 C95.5399241,69.5547344 95.3984078,69.4189456 95.2307896,69.4189456 Z M81.141112,75.8961652 L79.4797106,75.889234 C79.4759368,75.883248 79.472792,75.8725361 79.4771947,75.8615092 L80.3058513,73.834129 C80.3071092,73.8338139 80.310883,73.8325537 80.3181161,73.8325537 L80.3366704,73.8486215 L81.1590374,75.860564 C81.1634401,75.8725361 81.1609243,75.883248 81.141112,75.8961652 Z M80.8134231,69.6454702 C80.750527,69.5036954 80.6231623,69.4189456 80.4722116,69.4189456 L80.1640205,69.4189456 C80.0133843,69.4189456 79.8860196,69.5036954 79.8224945,69.6467305 L76.1572223,78.3085428 C76.1260887,78.3948679 76.1377245,78.4871791 76.1899283,78.560902 C76.242761,78.6371454 76.332388,78.6840886 76.4229584,78.6840886 L78.0944232,78.6840886 C78.2548084,78.6840886 78.3840599,78.6015441 78.4491574,78.4544134 L78.7438258,77.721595 C78.7840793,77.630544 78.8601837,77.5744642 78.9428921,77.5744642 L81.693969,77.5744642 C81.7763629,77.5744642 81.8524673,77.630544 81.8917773,77.7190746 L82.1883326,78.4575639 C82.2521722,78.6015441 82.3814238,78.6840886 82.5421234,78.6840886 L84.2135882,78.6840886 C84.3041586,78.6840886 84.3934711,78.6371454 84.4466183,78.560902 C84.4985076,78.4871791 84.5104579,78.3948679 84.4777519,78.3050772 L80.8134231,69.6454702 Z M72.8492001,69.4189456 L71.2296246,69.4189456 C71.0717553,69.4189456 70.9330693,69.5575698 70.9330693,69.7160426 L70.9330693,75.0061343 C70.9330693,76.1132382 70.3336692,76.7477594 69.2883354,76.7477594 C68.2511782,76.7477594 67.6558662,76.1132382 67.6558662,75.0061343 L67.6558662,69.7160426 C67.6558662,69.5493784 67.5259857,69.4189456 67.3599399,69.4189456 L65.7532582,69.4189456 C65.5853255,69.4189456 65.4438092,69.5547344 65.4438092,69.7160426 L65.4438092,75.0061343 C65.4438092,77.247752 67.0243891,78.8132612 69.2883354,78.8132612 C71.5592004,78.8132612 73.1451264,77.247752 73.1451264,75.0061343 L73.1451264,69.7160426 C73.1451264,69.5575698 73.0070694,69.4189456 72.8492001,69.4189456 Z M61.1250461,69.4189456 L59.5177354,69.4189456 C59.3504317,69.4189456 59.2086009,69.5547344 59.2086009,69.7160426 L59.2086009,73.0965848 C59.2086009,73.1309258 59.1790397,73.160541 59.1453903,73.160541 L55.8156689,73.160541 C55.7719561,73.160541 55.7389356,73.1334463 55.7389356,73.0965848 L55.7389356,69.7160426 C55.7389356,69.5575698 55.6005641,69.4189456 55.4426948,69.4189456 L53.8360131,69.4189456 C53.6683949,69.4189456 53.5268786,69.5547344 53.5268786,69.7160426 L53.5268786,78.3866765 C53.5268786,78.5479848 53.6683949,78.6840886 53.8360131,78.6840886 L55.4426948,78.6840886 C55.6005641,78.6840886 55.7389356,78.5454643 55.7389356,78.3866765 L55.7389356,75.0836379 C55.7389356,75.0363796 55.7684968,75.0067644 55.8156689,75.0067644 L59.1453903,75.0067644 C59.1815555,75.0067644 59.2086009,75.0395302 59.2086009,75.0836379 L59.2086009,78.3866765 C59.2086009,78.5479848 59.3504317,78.6840886 59.5177354,78.6840886 L61.1250461,78.6840886 C61.2826009,78.6840886 61.4209724,78.5454643 61.4209724,78.3866765 L61.4209724,69.7160426 C61.4209724,69.5575698 61.2826009,69.4189456 61.1250461,69.4189456 Z M48.817216,76.3107779 C48.7131229,76.1888515 48.5099684,76.1800299 48.3879499,76.2874638 C48.0156048,76.5886565 47.5526892,76.7477594 47.0482622,76.7477594 C45.7123483,76.7477594 44.9148253,75.8845082 44.9148253,74.4384049 L44.9148253,73.6901488 C44.9148253,72.2500315 45.7321606,71.3552748 47.0482622,71.3552748 C47.5526892,71.3552748 48.0574307,71.5313906 48.394554,71.8225016 C48.5159435,71.9441129 48.7285325,71.9270999 48.8455193,71.7887907 L49.7597146,70.5871702 C49.8455678,70.4665041 49.8559457,70.2749505 49.7046805,70.1574349 C48.9703681,69.5978969 48.0269261,69.2897729 47.0482622,69.2897729 C44.4745524,69.2897729 42.6769809,71.09945 42.6769809,73.6901488 L42.6769809,74.4384049 C42.6769809,77.013981 44.4745524,78.8132612 47.0482622,78.8132612 C48.0923381,78.8132612 48.9615626,78.5375879 49.7046805,77.9714338 C49.769778,77.9229153 49.8125473,77.8460418 49.8216673,77.7622371 C49.8311017,77.6784324 49.8065722,77.596203 49.7581422,77.5394931 L48.817216,76.3107779 Z M38.6151485,69.4189456 L36.9952585,69.4189456 C36.8373893,69.4189456 36.6993322,69.5575698 36.6993322,69.7160426 L36.6993322,78.3866765 C36.6993322,78.5454643 36.8373893,78.6840886 36.9952585,78.6840886 L38.6151485,78.6840886 C38.7730178,78.6840886 38.9113893,78.5454643 38.9113893,78.3866765 L38.9113893,69.7160426 C38.9113893,69.5575698 38.7730178,69.4189456 38.6151485,69.4189456 Z M30.3763838,73.09753 C29.0492754,72.8448557 28.665609,72.6359741 28.665609,72.167487 L28.665609,72.1287353 C28.665609,71.5638413 29.2175225,71.4453805 29.6804381,71.4453805 C30.1320323,71.4453805 30.5050064,71.5947167 30.8852136,71.9261548 C31.0103769,72.0509166 31.2289409,72.0231918 31.3364933,71.8792115 L32.2877974,70.6271822 C32.3862298,70.4958042 32.3651596,70.3212636 32.2349646,70.209419 C31.4446747,69.5906506 30.6090995,69.2897729 29.6804381,69.2897729 C27.7271986,69.2897729 26.4148708,70.4359437 26.4148708,72.1416525 L26.4148708,72.1933216 C26.4148708,74.2881235 27.9281518,74.6242874 28.8322837,74.8252926 L28.9914109,74.8608939 C30.2128539,75.1343618 30.7084754,75.2682602 30.7084754,75.8448112 L30.7084754,75.8964803 C30.7084754,76.4037191 30.2339241,76.6831731 29.372247,76.6831731 C28.7885709,76.6831731 28.0756432,76.4056095 27.5970036,75.9922571 C27.4841051,75.8952201 27.2715161,75.9160137 27.1762285,76.0300637 L26.2145466,77.3044619 C26.1636007,77.3640074 26.1393857,77.4465518 26.1485057,77.5303565 C26.1579401,77.6138461 26.2007094,77.6900895 26.2654925,77.738923 C27.1356605,78.4014841 28.3262843,78.8132612 29.372247,78.8132612 C31.5405913,78.8132612 32.9978947,77.6047095 32.9978947,75.8063745 L32.9978947,75.7547054 C32.9978947,74.2997806 32.1403059,73.4305433 30.3763838,73.09753 Z M4.67324946,36.392025 C5.08710603,36.8992639 19.5258572,54.607571 21.1592698,56.1882029 C21.3624243,56.3794414 26.313608,60.8544853 34.6196715,53.4415517 C34.6819387,53.3889375 40.0378591,48.9249205 49.4942929,44.5195038 C58.214213,40.4574972 72.3193001,35.6059623 89.9959443,35.5612245 L89.9981457,35.5612245 C107.675733,35.6059623 121.781449,40.4574972 130.501684,44.5195038 C139.958432,48.9249205 145.314353,53.3889375 145.367185,53.4333603 C153.685199,60.8544853 158.636068,56.3794414 158.842682,56.1850523 C160.471378,54.607571 174.909185,36.8995789 175.323042,36.392025 L175.363924,36.3343699 C175.521165,36.1172969 175.939109,35.5407459 175.782184,35.1497624 C175.665511,34.8595966 175.205426,34.6283461 174.486209,34.4991734 C173.43207,34.3091952 169.771515,33.5288035 166.950308,31.4494392 C165.627288,30.4749735 164.186652,29.3653491 162.661421,28.1908234 C154.522661,21.9221702 143.388158,13.3366013 134.338034,13.6255069 L134.085506,13.6333832 L133.957827,13.4147349 C133.908139,13.3331357 128.318874,4.88587589 89.9893402,4.18645337 C51.6774177,4.88587589 46.0881527,13.3331357 46.0359489,13.4182006 L45.9073263,13.6296026 L45.6579432,13.6255069 C36.6185107,13.3381765 25.476146,21.9212251 17.3386441,28.1892481 C15.8127839,29.364404 14.3715189,30.4746584 13.0475553,31.4494392 C10.2263492,33.5288035 6.56642311,34.3095102 5.51165494,34.4991734 C4.79243764,34.6286611 4.33203793,34.8599116 4.21568008,35.1500775 C4.05812527,35.5416911 4.47544112,36.117927 4.63268146,36.335 L4.67324946,36.392025 Z M25.6006803,58.5312683 C25.2560095,58.5312683 24.9091373,58.5111048 24.5603783,58.4698325 C22.0310102,58.1667494 20.6299988,56.8586403 20.5718199,56.8031906 C18.8846311,55.1699445 4.6141271,37.664848 4.00749388,36.9206876 L3.94491222,36.8346776 C3.71251101,36.5136363 3.09487096,35.6604669 3.42759152,34.8321868 C3.6637665,34.2439787 4.3147415,33.8498447 5.36164766,33.6614417 C6.37050165,33.4796548 9.87067154,32.7345493 12.5443862,30.7638791 C13.8611168,29.7941392 15.298608,28.6870353 16.8210089,27.5143999 C24.9214021,21.2747318 35.9669067,12.7672965 45.212953,12.7672965 C45.2937745,12.7672965 45.3739671,12.7679266 45.4547887,12.7691869 C46.531256,11.3709719 53.910545,3.99395465 89.9893402,3.3354893 C126.084174,3.99395465 133.464406,11.3709719 134.541503,12.7691869 C134.62201,12.7679266 134.702517,12.7672965 134.783024,12.7672965 C144.030642,12.7672965 155.076776,21.2753619 163.179056,27.5159752 C164.700514,28.6879805 166.138005,29.7947693 167.453792,30.7638791 C170.127507,32.7345493 173.627677,33.4796548 174.636531,33.6611266 C175.683437,33.8498447 176.333783,34.2436637 176.569958,34.8318717 C176.902678,35.6598368 176.284095,36.5133213 176.051379,36.8346776 L175.988797,36.9203726 C175.382164,37.664848 161.112918,55.1699445 159.429189,56.8003551 C159.370695,56.8561199 153.727025,62.0324766 144.811498,54.077018 C144.768414,54.0411017 139.478849,49.6360001 130.114244,45.2778416 C121.476718,41.2580524 107.504656,36.4566113 89.9959443,36.4121886 C56.4701032,36.4975685 35.3844885,53.9094087 35.1753589,54.0852095 C32.8450571,56.1648888 29.3631271,58.5312683 25.6006803,58.5312683 Z M151.801145,36.9178521 C151.70177,37.0621474 151.736048,37.2379482 151.883225,37.339711 L154.049682,38.8333877 C155.164202,39.6021224 156.390047,39.3519685 157.184426,38.196031 L157.283487,38.0517358 C158.07818,36.8957983 157.86622,35.7149714 156.730315,34.9320593 L154.564173,33.4380676 C154.416996,33.3366198 154.240572,33.3671801 154.141511,33.5117905 L151.801145,36.9178521 Z M153.367888,28.2320956 L159.887701,32.7282482 C162.243476,34.3526728 162.815517,37.8504155 161.084929,40.3689667 L160.985868,40.513262 C159.581712,42.557025 157.305186,43.2082441 155.34377,42.859793 C155.154138,42.8200961 155.005703,42.9004351 154.948468,43.0740306 C154.383661,44.7529597 154.845633,46.4715857 156.232807,47.6105102 C156.407973,47.7617367 156.455774,48.0077948 156.314258,48.214156 L154.810725,50.4022143 C154.683046,50.5880968 154.40819,50.6725316 154.197803,50.5272912 C151.000792,48.32285 149.986277,44.6111848 151.475658,41.135496 C151.540126,40.9971867 151.49893,40.7864148 151.351438,40.684652 L150.152638,39.8579472 C150.005461,39.7564994 149.829352,39.7870598 149.73029,39.9316701 L146.581081,44.5144629 C146.43925,44.720824 146.171627,44.749179 145.982624,44.6187462 L143.353251,42.8056035 C143.142864,42.6606781 143.074307,42.4001275 143.216138,42.1937664 L152.748047,28.3218863 C152.875726,28.1360038 153.157501,28.0868552 153.367888,28.2320956 Z M138.074379,20.4111656 L148.478657,25.4155022 C148.709171,25.5260866 148.80666,25.7954588 148.709171,25.9989844 L147.518233,28.4841398 C147.421059,28.6876654 147.150291,28.7796615 146.919776,28.6690771 L140.060324,25.3698192 C139.922267,25.3033426 139.753076,25.3609977 139.687979,25.4964714 L138.345775,28.2982572 C138.280678,28.434046 138.341687,28.6022854 138.479744,28.6687621 L143.451998,31.060031 C143.681883,31.1709304 143.779687,31.4399875 143.671191,31.6658821 L142.631832,33.8350371 C142.534658,34.0385628 142.26389,34.1305589 142.03369,34.0199745 L137.061751,31.6283905 C136.923379,31.5619139 136.754189,31.619569 136.678713,31.7777267 L135.400978,34.4440388 C135.336195,34.5795125 135.397205,34.748067 135.535262,34.8145437 L142.394714,38.1134866 C142.624914,38.224386 142.722403,38.4937582 142.625228,38.6969688 L141.43429,41.1824392 C141.336801,41.3856498 141.066033,41.477961 140.835833,41.3670615 L130.43124,36.3630399 C130.224312,36.2634825 130.126823,35.9941103 130.223997,35.7905847 L137.498879,20.6071299 C137.596368,20.4036042 137.867136,20.3116081 138.074379,20.4111656 Z M119.487313,14.117308 L122.70445,15.1235943 C122.948173,15.1998377 123.09818,15.4043085 123.128685,15.6500515 L123.543485,26.6754079 C123.545686,26.7548018 123.603865,26.8256892 123.676824,26.8483732 C123.749784,26.8713722 123.838153,26.8464829 123.884696,26.7822116 L130.489105,17.9527899 C130.629049,17.7602912 130.893212,17.685308 131.11272,17.7539901 L134.329857,18.7605914 C134.57358,18.8368348 134.686478,19.1610266 134.514457,19.3695931 L123.223029,33.4538203 C123.090003,33.6220598 122.82584,33.6970429 122.606647,33.6283609 L120.681396,33.0262904 C120.461888,32.9576084 120.287352,32.7455763 120.273829,32.5313387 L118.98949,14.5127023 C118.966533,14.243015 119.24359,14.0410647 119.487313,14.117308 Z M112.778182,12.918523 L115.933052,13.5480033 C116.158535,13.5927411 116.319549,13.8293476 116.275836,14.0505163 L112.992972,30.5685449 C112.94926,30.7897136 112.709625,30.9462961 112.484457,30.9012432 L109.329587,30.272078 C109.104104,30.2270251 108.942776,29.9904186 108.986803,29.7692499 L112.269667,13.2515364 C112.31338,13.0303676 112.553014,12.8734701 112.778182,12.918523 Z M96.8079101,19.0561132 C96.794073,19.2309688 96.9113743,19.3658124 97.0893703,19.3799899 L99.7108812,19.5879263 C101.060003,19.6950451 101.996527,18.8642446 102.107224,17.4650845 L102.121061,17.2902288 C102.231758,15.8910687 101.459079,14.9748882 100.084484,14.8658792 L97.4632879,14.6579427 C97.2849773,14.6437652 97.1478638,14.7587604 97.1340266,14.933616 L96.8079101,19.0561132 Z M93.8282058,10.749368 L101.718211,11.3753827 C104.568664,11.6012773 106.810597,14.3435176 106.56939,17.3916766 L106.555553,17.5665322 C106.359946,20.0400305 104.71364,21.7447942 102.841536,22.4256284 C102.657251,22.4867491 102.569196,22.6304143 102.606305,22.8093657 C102.955378,24.54658 104.213301,25.8030201 105.982884,26.0941311 C106.210253,26.1372936 106.374412,26.3263268 106.354914,26.5761655 L106.145156,29.2245194 C106.12723,29.4491538 105.931309,29.6599257 105.677209,29.6397622 C101.808153,29.3328984 99.0768882,26.6272045 98.6315836,22.8711165 C98.6177464,22.7192599 98.4771736,22.5573215 98.2991775,22.543144 L96.8481637,22.4281489 C96.6701676,22.4139714 96.533054,22.5286515 96.5192169,22.7035071 L96.0802019,28.2500537 C96.0603896,28.4998925 95.842769,28.6586803 95.613827,28.6404071 L92.4322261,28.3880479 C92.1778112,28.3678844 91.9878649,28.1766459 92.0079916,27.9268071 L93.336358,11.1378311 C93.3542834,10.9128817 93.5734764,10.7292045 93.8282058,10.749368 Z M66.032517,21.275677 C65.332483,16.3384471 68.4184819,12.4572822 73.322808,11.759435 C75.193339,11.4935284 77.0654425,11.7840093 78.6611174,12.6705746 C78.9098716,12.787145 78.9737112,13.0565172 78.846661,13.2518514 L77.3572805,15.8428653 C77.2553888,16.0344189 77.0132387,16.1450032 76.7324074,15.9824347 C75.8895992,15.4947293 74.8543288,15.2877381 73.8432735,15.4317183 C71.2393735,15.8019081 69.7301808,17.8894638 70.1276843,20.69314 L70.3317823,22.1323121 C70.7327451,24.9605625 72.6256043,26.4885802 75.2546627,26.1146097 C76.1644553,25.985122 77.0176414,25.6360408 77.7745964,24.9712744 C78.0063686,24.786652 78.032156,24.6058104 77.9969342,24.3575469 L77.8280581,23.1666382 C77.8069879,23.0179322 77.6632702,22.9117586 77.5113761,22.9334974 L75.2364229,23.2570591 C74.9835804,23.2929754 74.7530661,23.1231606 74.721618,22.9001016 L74.4260062,20.8156964 C74.3907843,20.567748 74.5684659,20.3651675 74.8213084,20.3292512 L80.9892178,19.4518225 C81.2420603,19.4159062 81.4436424,19.5646123 81.4788642,19.8125607 L82.6572233,28.1243467 C82.6889859,28.3474058 82.539922,28.571095 82.287394,28.6070113 L81.857499,28.668132 C81.6552879,28.6971171 81.4389252,28.6265447 81.294893,28.5203711 L80.0243911,27.5622883 C79.880359,27.4561147 79.7287793,27.4775384 79.5948105,27.623409 C78.4636235,28.9230116 76.9380778,29.6211739 75.168495,29.872903 C70.6434326,30.5165608 66.9328752,27.6275047 66.236615,22.7148491 L66.032517,21.275677 Z M45.2749057,19.1298361 L45.6390743,19.0104302 C45.7846789,18.9628568 45.945693,18.9628568 46.0740011,19.0261829 L57.8248859,24.826349 C57.953194,24.8899901 58.1638961,24.7945284 58.1016289,24.60392 L55.3807421,16.2666145 C55.3106129,16.052377 55.4184798,15.8063189 55.6612589,15.7266099 L58.694425,14.7326108 C58.9372041,14.6532169 59.1935058,14.7801841 59.2633205,14.9944217 L64.4874735,31.0020608 C64.5572882,31.2162984 64.4252063,31.4705479 64.1827417,31.5499418 L63.770143,31.6851005 C63.6003235,31.7408653 63.4072323,31.7251125 63.2468472,31.6457186 L51.6569765,25.8455525 C51.4969058,25.7661586 51.2940658,25.8852495 51.356333,26.0758579 L54.0769053,34.4131634 C54.1470345,34.6274009 54.0391676,34.8737741 53.796703,34.953168 L50.7632224,35.9471671 C50.5204433,36.026561 50.2644561,35.8995938 50.1943269,35.6853562 L44.9704884,19.6780321 C44.9003592,19.4634795 45.0324411,19.20923 45.2749057,19.1298361 Z M36.1162851,23.4123813 L39.0183127,22.0210976 C39.2255555,21.9218552 39.4963233,22.0141664 39.5934979,22.217692 L46.849196,37.407763 C46.9463705,37.6112886 46.8482525,37.8803457 46.6410098,37.9795881 L43.7389821,39.3708719 C43.5314249,39.4704293 43.2609715,39.3778031 43.163797,39.1742774 L35.9084133,23.9845215 C35.8112388,23.7809959 35.9090423,23.5119387 36.1162851,23.4123813 Z M17.6219912,34.6573311 L17.8550214,34.5004337 C18.0034562,34.4008762 18.186484,34.3986708 18.3059866,34.4389979 L27.5919719,37.9758075 C27.6410309,38.0032173 27.7187077,37.9811634 27.7608481,37.9528084 C27.803303,37.9241384 27.8529909,37.8608123 27.8463868,37.8047325 L28.1023741,27.8559197 C28.1105506,27.7298976 28.1819377,27.5613431 28.3303726,27.4614706 L28.5637172,27.3048882 C28.7332223,27.1908382 28.9863793,27.2015501 29.1332417,27.3748304 L40.3212061,40.1342506 C40.4815913,40.3283246 40.4161793,40.6436948 40.2042193,40.7860998 L37.6173013,42.5245743 C37.4264116,42.6528018 37.1943248,42.6275974 37.0477768,42.4546321 L31.7695332,36.2250458 C31.6368224,36.0725591 31.439014,36.1450218 31.4166859,36.3409861 L31.1235899,42.3317605 C31.1157279,42.4577826 31.065411,42.6121596 30.9380463,42.6978547 C30.8109961,42.7832346 30.649353,42.7709475 30.5298504,42.7306204 L24.8855513,40.7297049 C24.6959194,40.6761455 24.5540886,40.8317828 24.6443446,41.0126244 L28.396099,48.2683455 C28.5005066,48.4696657 28.4354091,48.6943001 28.2445193,48.8225276 L25.6576013,50.5610021 C25.4456414,50.703407 25.1292738,50.6444917 25.0110291,50.4220628 L17.4704115,35.2115132 C17.3663184,35.010193 17.4521716,34.7713811 17.6219912,34.6573311 Z M89.9880823,37.7262838 C122.4167,37.8088282 143.081854,54.3602526 143.945733,55.064716 L143.978439,55.092756 C147.523894,58.2461434 151.028152,59.8450484 154.392781,59.8450484 C158.026605,59.8450484 160.11853,57.9553474 160.345271,57.7398497 C161.624264,56.5007376 169.781578,46.6136756 176.991991,37.7697614 L177.119984,37.5980563 C177.973799,36.4191198 178.194565,35.3517128 177.787627,34.3444813 C177.377544,33.320867 176.369005,32.6387725 174.869561,32.3694004 C172.932674,32.0196891 170.172163,31.1365894 168.231188,29.7052937 C166.915716,28.736499 165.466589,27.6227789 163.973434,26.4712521 C155.529314,19.9672528 145.024087,11.8756903 135.531802,11.4689541 L135.152539,11.4525712 L134.877997,11.1898152 C132.204282,8.63062188 122.481798,2.61401291 90.0299082,2.02107905 L89.9478287,2.02107905 C57.514808,2.61401291 47.792009,8.63062188 45.1182943,11.1901302 L44.8437527,11.4525712 L44.464489,11.4689541 C34.9709465,11.8756903 24.4650906,19.968513 16.0234859,26.4715672 C14.5070601,27.6394768 13.0746006,28.742485 11.7666755,29.7056087 C9.82444289,31.1362743 7.06487498,32.019374 5.1298754,32.3690853 C3.60904686,32.6422382 2.62692372,33.3060594 2.20992235,34.3429061 C1.80424228,35.3536031 2.03003941,36.4295166 2.90083639,37.630507 L3.00084124,37.7659807 C12.360415,49.2402907 18.5978247,56.7209612 19.674921,57.7631637 C19.8925416,57.9695249 21.977863,59.8450484 25.6053975,59.8450484 C28.9662525,59.8450484 32.4698817,58.2461434 36.0181671,55.0924409 L36.0505586,55.064716 C36.9141225,54.3602526 57.5751883,37.8088282 89.9880823,37.7262838 Z M154.392781,61.8658124 C150.524983,61.8658124 146.576364,60.1005582 142.656047,56.6191984 C141.604424,55.7653988 121.527349,39.8277019 89.9880823,39.7473628 C58.4629672,39.8277019 38.3893514,55.7669741 37.3402438,56.6191984 C33.4170975,60.1005582 29.4691071,61.8658124 25.6053975,61.8658124 C21.2894648,61.8658124 18.7468885,59.665467 18.2811427,59.2243897 C16.7024497,57.6966871 7.04474822,45.9174036 1.42780892,39.0309273 L1.25798935,38.8031424 C-0.342717272,36.5949206 -0.126669049,34.7471219 0.338447866,33.5883489 C0.815829528,32.401851 1.97248944,30.8826549 4.77293984,30.3801419 C6.48434366,30.0707577 8.90710276,29.3032832 10.571649,28.0774035 C11.8625921,27.126882 13.2865606,26.0301749 14.794181,24.8691965 C23.3543449,18.2747763 33.9825337,10.0874371 44.0047183,9.4692988 C47.8099344,6.05977153 58.7645542,0.569619784 89.9292744,0.00031505519 L90.0484626,0 C104.211729,0.258660311 115.639013,1.56361891 124.031244,3.87864445 C130.768364,5.73715501 134.235513,7.89906373 135.990944,9.4692988 C146.012185,10.0874371 156.639745,18.273201 165.199595,24.8666761 C166.687717,26.013792 168.12741,27.1202658 169.426529,28.0770884 C171.089818,29.3035983 173.513206,30.0710727 175.226496,30.3801419 C178.028519,30.8836001 179.183607,32.4027962 179.659101,33.5886639 C180.125162,34.7430262 180.345927,36.5854689 178.744906,38.795266 L178.568797,39.0309273 C175.050387,43.3462382 163.438817,57.5539671 161.740622,59.1991853 C161.266699,59.6500293 158.717204,61.8658124 154.392781,61.8658124 Z" id="Fill-1"></path>
                        </g>
                    </g>
                </g>
            </g>
        </g>
    </g>
</svg>