<svg xmlns="http://www.w3.org/2000/svg" width="180" height="85" viewBox="0 0 180 85">
  <defs>
    <style>
      .a {
        fill: #2a4546;
      }
    </style>
  </defs>
  <title>footer-logo-green</title>
  <path class="a" d="M158.7,79H160V77.7h-2.6v6H22.6v-6H20V79h1.3v6H158.7Zm-1.3-14.5v1.2h1.3V63.3H21.3v2.4h1.3V64.5ZM17.8,77.7H16.5V70.5h6.1V68H21.3v1.3H15.2V79h2.6Zm147-8.4h-6.1V68h-1.3v2.5h6.1v7.2h-1.3V79h2.6ZM23,82H157V80.7H23Zm-3.5.5H18.3v1.2H16.5V82h4.4V80.7H15.2V85h4.3Zm.6-15H159.9V66.2H20.1ZM18.3,80.3h1.2V71H18.3Zm1.2-17H15.2v4.2h2.6V66.2H16.5V64.5h1.8v4.2h1.2ZM164.8,80.7h-5.7V82h4.4v1.7h-1.8V82.5h-1.2V85h4.3Zm-4.3-.4h1.2V71h-1.2Zm1.2-15.8h1.8v1.7h-1.3v1.3h2.6V63.3h-4.3v5.4h1.2Zm-8.1,4.9h-1.7a.5.5,0,0,0-.3.3V75a1.6,1.6,0,1,1-3.2,0V69.7a.3.3,0,0,0-.3-.3h-1.6a.3.3,0,0,0-.3.3V75a3.6,3.6,0,0,0,3.8,3.8,3.7,3.7,0,0,0,3.9-3.8V69.7A.5.5,0,0,0,153.6,69.4Zm-11.8,0h-1.6a.5.5,0,0,0-.3.3v8.7l.3.3h1.6a.3.3,0,0,0,.3-.3V69.7A.3.3,0,0,0,141.8,69.4Zm-6.1,0H134a.5.5,0,0,0-.3.3v6.5a.6.6,0,0,1-.5.6h-.6s-.1,0-.2.2l-.6,1.1a.3.3,0,0,0-.1.2l.2.2a5.2,5.2,0,0,0,1.7.3,2.4,2.4,0,0,0,2.4-2.4V69.7A.5.5,0,0,0,135.7,69.4Zm-7.7,0h-1.7a.5.5,0,0,0-.3.3v8.7l.3.3H128l.3-.3V69.7A.5.5,0,0,0,128,69.4Zm-8.6,6.5h-1.7l.8-2.1h.1l.8,2.1Zm-.4-6.3c0-.1-.1-.2-.3-.2h-.3c-.2,0-.3.1-.3.2l-3.7,8.7v.3h1.9a.5.5,0,0,0,.4-.2l.3-.8c0-.1.1-.1.2-.1h2.7c.1,0,.2,0,.2.1l.3.8a.5.5,0,0,0,.4.2h1.9v-.3Zm-10.3,2.7a.9.9,0,0,1-.7.9h-1V71.5h.9a.7.7,0,0,1,.8.8ZM107,76.6V74.9h1.5a.8.8,0,0,1,.9.9h0c0,.6-.3.9-1,.9H107Zm3.5-3.1h-.1a.1.1,0,0,1,.1-.1,2,2,0,0,0,.4-1.3h0a2.6,2.6,0,0,0-2.6-2.5h-3.2a.3.3,0,0,0-.3.3v8.7a.3.3,0,0,0,.3.3h4a2.9,2.9,0,0,0,2.7-2.9h0A2.5,2.5,0,0,0,110.5,73.5ZM95.2,69.4H93.6a.3.3,0,0,0-.3.3v4.5h0l-4.7-4.7h-.5a.5.5,0,0,0-.3.3v8.7l.3.3h1.6a.3.3,0,0,0,.3-.3V73.9c0-.1.1-.1.1,0l4.6,4.7h.5a.3.3,0,0,0,.3-.3V69.7A.3.3,0,0,0,95.2,69.4ZM81.1,75.9H79.5l.8-2.1h0l.9,2.1Zm-.3-6.3-.3-.2h-.3l-.4.2-3.6,8.7a.2.2,0,0,0,0,.3h1.9c.2,0,.3-.1.3-.2l.3-.8h3c.1,0,.2,0,.2.1l.3.8.3.2h1.9a.4.4,0,0,0,.1-.3Zm-8-.2H71.2a.5.5,0,0,0-.3.3V75a1.6,1.6,0,1,1-3.2,0V69.7a.3.3,0,0,0-.3-.3H65.8a.4.4,0,0,0-.4.3V75a3.7,3.7,0,0,0,3.9,3.8A3.6,3.6,0,0,0,73.1,75V69.7A.3.3,0,0,0,72.8,69.4Zm-11.7,0H59.5a.5.5,0,0,0-.3.3v3.4a.1.1,0,0,1-.1.1H55.7V69.7a.3.3,0,0,0-.3-.3H53.8a.5.5,0,0,0-.3.3v8.7l.3.3h1.6a.3.3,0,0,0,.3-.3V75.1h3.5v3.3a.5.5,0,0,0,.3.3h1.6a.3.3,0,0,0,.3-.3V69.7A.3.3,0,0,0,61.1,69.4ZM48.8,76.3h-.4a2.1,2.1,0,0,1-1.4.4,2,2,0,0,1-2.1-2.3v-.7A2.1,2.1,0,0,1,47,71.4a2,2,0,0,1,1.4.4.3.3,0,0,0,.4,0l1-1.2c0-.1.1-.3-.1-.4a4.4,4.4,0,0,0-7,3.5v.7A4.2,4.2,0,0,0,47,78.8a4.6,4.6,0,0,0,2.7-.8.3.3,0,0,0,.1-.2v-.3ZM38.6,69.4H37a.3.3,0,0,0-.3.3v8.7a.3.3,0,0,0,.3.3h1.6a.3.3,0,0,0,.3-.3V69.7A.3.3,0,0,0,38.6,69.4Zm-8.2,3.7c-1.4-.3-1.7-.5-1.7-.9h0c0-.5.5-.7,1-.7a2.1,2.1,0,0,1,1.2.5c.1.2.3.1.4,0l1-1.3a.2.2,0,0,0-.1-.4,4,4,0,0,0-2.5-.9c-2,0-3.3,1.1-3.3,2.8h0c0,2.1,1.5,2.4,2.4,2.6H29c1.2.2,1.7.4,1.7.9h0c0,.5-.5.8-1.3.8a3.1,3.1,0,0,1-1.8-.7h-.4l-1,1.3c0,.1-.1.1-.1.2s.1.2.2.2a4.9,4.9,0,0,0,3.1,1.1c2.1,0,3.6-1.2,3.6-3h0C33,74.3,32.1,73.4,30.4,73.1ZM4.7,36.4c.4.5,14.8,18.2,16.5,19.8s5.1,4.7,13.4-2.8a77.4,77.4,0,0,1,14.9-8.9A97.3,97.3,0,0,1,90,35.6h0a97.3,97.3,0,0,1,40.5,8.9,77.4,77.4,0,0,1,14.9,8.9c8.3,7.5,13.2,3,13.4,2.8s16.1-19.3,16.5-19.8h.1c.1-.2.5-.8.4-1.2a1.9,1.9,0,0,0-1.3-.6,19.2,19.2,0,0,1-7.5-3.1,52.9,52.9,0,0,1-4.3-3.2c-8.2-6.3-19.3-14.9-28.4-14.6h-.2v-.2c-.1-.1-5.7-8.5-44-9.2s-43.9,9.1-44,9.2v.2h-.2c-9.1-.3-20.2,8.3-28.4,14.6A52.9,52.9,0,0,1,13,31.4a19.2,19.2,0,0,1-7.5,3.1c-.7.1-1.2.4-1.3.7s.3.9.4,1.1ZM25.6,58.5h-1a6.4,6.4,0,0,1-4-1.7C18.9,55.2,4.6,37.7,4,36.9H3.9a2.3,2.3,0,0,1-.5-2,2.2,2.2,0,0,1,2-1.1,19.6,19.6,0,0,0,7.1-2.9l4.3-3.3C24.9,21.3,36,12.8,45.2,12.8h.3c1-1.4,8.4-8.8,44.5-9.5s43.5,8.1,44.5,9.5h.3c9.2,0,20.3,8.5,28.4,14.7l4.3,3.3a19.6,19.6,0,0,0,7.1,2.9,2.2,2.2,0,0,1,2,1.1,2.3,2.3,0,0,1-.5,2H176c-.6.8-14.9,18.3-16.6,19.9,0,.1-5.7,5.2-14.6-2.7,0-.1-5.3-4.5-14.7-8.8A97.2,97.2,0,0,0,90,36.4c-33.5.1-54.6,17.5-54.8,17.7C32.8,56.2,29.4,58.5,25.6,58.5ZM151.8,36.9c-.1.2-.1.3.1.4l2.1,1.5a2.1,2.1,0,0,0,3.2-.6h.1a2.1,2.1,0,0,0-.6-3.2l-2.1-1.5a.4.4,0,0,0-.5.1Zm1.6-8.7,6.5,4.5a5.7,5.7,0,0,1,1.2,7.7H161a5.7,5.7,0,0,1-5.7,2.4c-.1-.1-.3,0-.4.2a4,4,0,0,0,1.3,4.5c.2.2.3.4.1.6l-1.5,2.2a.4.4,0,0,1-.6.1,7.5,7.5,0,0,1-2.7-9.4.6.6,0,0,0-.1-.4l-1.2-.8a.4.4,0,0,0-.5,0l-3.1,4.6a.5.5,0,0,1-.6.1l-2.6-1.8a.4.4,0,0,1-.2-.6l9.5-13.9A.6.6,0,0,1,153.4,28.2Zm-15.3-7.8,10.4,5a.5.5,0,0,1,.2.6l-1.2,2.5a.4.4,0,0,1-.6.2l-6.8-3.3c-.2-.1-.3,0-.4.1l-1.4,2.8a.4.4,0,0,0,.2.4l5,2.4a.4.4,0,0,1,.2.6l-1.1,2.1a.4.4,0,0,1-.6.2l-4.9-2.4c-.2,0-.3,0-.4.2l-1.3,2.6c-.1.2,0,.3.1.4l6.9,3.3a.5.5,0,0,1,.2.6l-1.2,2.5a.4.4,0,0,1-.6.2l-10.4-5a.5.5,0,0,1-.2-.6l7.3-15.2A.5.5,0,0,1,138.1,20.4Zm-18.6-6.3,3.2,1a.7.7,0,0,1,.4.6l.4,11c0,.1.1.1.2.1h.2l6.6-8.8a.5.5,0,0,1,.6-.2l3.2,1a.3.3,0,0,1,.2.6L123.2,33.5a.6.6,0,0,1-.6.1l-1.9-.6c-.2,0-.4-.3-.4-.5l-1.3-18C119,14.2,119.2,14,119.5,14.1Zm-6.7-1.2,3.1.6a.5.5,0,0,1,.4.6L113,30.6a.5.5,0,0,1-.5.3l-3.2-.6c-.2-.1-.4-.3-.3-.5l3.3-16.5C112.3,13,112.6,12.9,112.8,12.9Zm-16,6.2a.3.3,0,0,0,.3.3l2.6.2a2.1,2.1,0,0,0,2.4-2.1v-.2a2,2,0,0,0-2-2.4l-2.6-.2a.3.3,0,0,0-.4.2Zm-3-8.4,7.9.7a5.5,5.5,0,0,1,4.9,6v.2a5.7,5.7,0,0,1-3.8,4.8.5.5,0,0,0-.2.4,4.2,4.2,0,0,0,3.4,3.3.5.5,0,0,1,.4.5l-.3,2.6c0,.2-.2.5-.4.4a7.5,7.5,0,0,1-7.1-6.7c0-.2-.1-.3-.3-.4H96.8a.3.3,0,0,0-.3.3l-.4,5.6a.4.4,0,0,1-.5.3l-3.2-.2a.5.5,0,0,1-.4-.5l1.3-16.8A.7.7,0,0,1,93.8,10.7ZM66,21.3c-.7-5,2.4-8.8,7.3-9.5a8.3,8.3,0,0,1,5.4.9.4.4,0,0,1,.1.6l-1.4,2.5a.6.6,0,0,1-.7.2,4.6,4.6,0,0,0-2.9-.6c-2.6.4-4.1,2.5-3.7,5.3l.2,1.4c.4,2.9,2.3,4.4,5,4A5.1,5.1,0,0,0,77.8,25a.7.7,0,0,0,.2-.6l-.2-1.2a.3.3,0,0,0-.3-.3l-2.3.4a.7.7,0,0,1-.5-.4l-.3-2.1a.7.7,0,0,1,.4-.5l6.2-.8c.2-.1.4.1.5.3l1.2,8.3c0,.2-.2.5-.4.5h-.4l-.6-.2L80,27.6a.3.3,0,0,0-.4,0,7.3,7.3,0,0,1-4.4,2.3c-4.6.6-8.3-2.3-9-7.2ZM45.3,19.1h.8l11.7,5.8c.2.1.4,0,.3-.2l-2.7-8.3a.4.4,0,0,1,.3-.6l3-1a.7.7,0,0,1,.6.3l5.2,16a.4.4,0,0,1-.3.5l-.4.2h-.6L51.7,25.8c-.2,0-.4.1-.3.3l2.7,8.3a.7.7,0,0,1-.3.6l-3,.9a.4.4,0,0,1-.6-.2L45,19.7A.4.4,0,0,1,45.3,19.1Zm-9.2,4.3L39,22a.5.5,0,0,1,.6.2l7.2,15.2a.5.5,0,0,1-.2.6l-2.9,1.4a.4.4,0,0,1-.5-.2L35.9,24A.5.5,0,0,1,36.1,23.4ZM17.6,34.7l.3-.2h.4L27.6,38h.2c0-.1.1-.1,0-.2l.3-9.9a.5.5,0,0,1,.2-.4l.3-.2a.3.3,0,0,1,.5.1L40.3,40.1a.5.5,0,0,1-.1.7l-2.6,1.7c-.2.2-.4.1-.6,0l-5.2-6.3c-.2-.1-.4-.1-.4.1l-.3,6c0,.2,0,.3-.2.4h-.4l-5.6-2a.3.3,0,0,0-.3.3l3.8,7.3a.4.4,0,0,1-.2.5l-2.5,1.8a.6.6,0,0,1-.7-.2L17.5,35.2A.4.4,0,0,1,17.6,34.7Zm72.4,3c32.4.1,53.1,16.7,53.9,17.4h.1c3.5,3.1,7,4.7,10.4,4.7a8.3,8.3,0,0,0,5.9-2.1c1.3-1.2,9.5-11.1,16.7-19.9v-.2a3.2,3.2,0,0,0,.7-3.3,3.4,3.4,0,0,0-2.9-1.9,18.9,18.9,0,0,1-6.7-2.7L164,26.5c-8.5-6.5-19-14.6-28.5-15h-.3l-.3-.3C132.2,8.6,122.5,2.6,90,2h-.1c-32.4.6-42.1,6.6-44.8,9.2l-.3.3h-.3c-9.5.4-20,8.5-28.5,15l-4.2,3.2a18.9,18.9,0,0,1-6.7,2.7,3.4,3.4,0,0,0-2.9,1.9,3.2,3.2,0,0,0,.7,3.3v.2c9.4,11.4,15.6,18.9,16.7,20a9,9,0,0,0,5.9,2c3.4,0,6.9-1.6,10.4-4.7h.1C36.9,54.4,57.6,37.8,90,37.7Zm64.4,24.2c-3.9,0-7.8-1.8-11.7-5.3-1.1-.8-21.2-16.8-52.7-16.9S38.4,55.8,37.3,56.6c-3.9,3.5-7.8,5.3-11.7,5.3a10.3,10.3,0,0,1-7.3-2.7C16.7,57.7,7,45.9,1.4,39v-.2a5.5,5.5,0,0,1-1-5.2c.5-1.2,1.7-2.7,4.5-3.2a15.6,15.6,0,0,0,5.8-2.3l4.2-3.2C23.4,18.3,34,10.1,44,9.5,47.8,6.1,58.8.6,89.9,0H90c14.2.3,25.6,1.6,34,3.9,6.8,1.8,10.2,4,12,5.6,10,.6,20.6,8.8,29.2,15.4l4.2,3.2a15.6,15.6,0,0,0,5.8,2.3c2.8.5,4,2,4.5,3.2a5.5,5.5,0,0,1-1,5.2V39c-3.5,4.3-15.2,18.6-16.9,20.2A10.3,10.3,0,0,1,154.4,61.9Z" transform="translate(0)"/>
</svg>
