<?xml version="1.0" encoding="utf-8"?>
<!-- Generator: Adobe Illustrator 22.1.0, SVG Export Plug-In . SVG Version: 6.00 Build 0)  -->
<svg version="1.1" id="Layer_1" xmlns="http://www.w3.org/2000/svg" xmlns:xlink="http://www.w3.org/1999/xlink" x="0px" y="0px"
	 viewBox="0 0 145 85" style="enable-background:new 0 0 145 85;" xml:space="preserve">
<style type="text/css">
	.st0{fill:#B72E2E;}
</style>
<title>Logo</title>
<desc>Created with Sketch.</desc>
<g id="Symbols">
	<g id="Footer-_x2F_-Logo">
		<g>
			<path class="st0" d="M102.3,26.8c0-0.3,0-0.6,0-1c0-1.5,0-3,0-4.5c0-1.8,0-3.7,0-5.5c0-1.2,0-2.3,0-3.5c0-1.7,0-3.5,0-5.2
				c0-1.7,0-3.4-0.1-5.2c0-0.4,0-0.9,0-1.3c0-0.2,0.1-0.3,0.3-0.3c0.3,0,0.6,0,0.9,0c1.6,0,3.2-0.1,4.7-0.1c0.3,0,0.5,0.2,0.5,0.5
				c0,0.6,0,1.2,0,1.9c0,1.2,0,2.3,0,3.5c0,0.7,0,1.4,0,2.1c0,1.2,0,2.3,0,3.5c0,1.7,0,3.4,0,5.1c0,2.5,0,5.1,0,7.6c0,1.5,0,3,0,4.5
				c0,2,0,3.9,0,5.9c0,1.9,0,3.8-0.1,5.7c0,0.3-0.2,0.3-0.4,0.3c-0.9,0-1.8,0-2.7,0c-0.8,0-1.6,0-2.4-0.1c-0.1,0-0.2-0.1-0.3-0.2
				c-0.5-0.9-0.9-1.7-1.4-2.6c-0.5-1-1-1.9-1.5-2.9c-0.8-1.6-1.7-3.1-2.5-4.7c-0.7-1.2-1.4-2.3-2-3.5c-0.6-1.1-1.3-2.3-1.9-3.4
				c-0.6-1.1-1.2-2.1-1.8-3.2c-0.6-1.2-1.3-2.3-1.9-3.5c-0.4-0.8-0.8-1.5-1.3-2.3c0,0-0.1-0.1-0.1-0.1c0,0-0.1,0-0.1,0
				c0,0.3,0,0.5,0,0.8c0,1.1,0,2.2,0,3.3c0,1.2,0,2.4,0,3.7c0,1.3,0,2.6,0,3.9c0,1,0,2,0,3c0,1,0,2,0,3c0,1.6,0,3.2,0,4.7
				c0,1.1,0,2.3,0,3.4c0,0.5,0,0.6-0.6,0.7c-1.1,0-2.2,0-3.2,0.1c-0.6,0-1.2,0-1.8,0c-0.4,0-0.5,0-0.5-0.5c0-1.7-0.1-3.5-0.1-5.2
				c0-1.3,0-2.7,0-4c0-1.6,0-3.3-0.1-4.9c0-2,0-4,0-6.1c0-1.6,0-3.2,0-4.8c0-1.1,0-2.3,0.1-3.4c0-1.3,0-2.6,0-3.9c0-1.8,0-3.5,0-5.3
				c0-0.6,0-1.3,0-1.9c0-0.6,0.1-0.7,0.7-0.7c1.7,0,3.4,0.1,5.1,0.1c0.3,0,0.5,0.1,0.7,0.4c0.7,1.3,1.4,2.6,2.1,4c1,1.9,2,3.8,3,5.7
				c1.4,2.7,2.8,5.4,4.2,8.1c1.2,2.2,2.3,4.5,3.5,6.7C101.6,25.7,101.9,26.3,102.3,26.8C102.2,26.9,102.3,26.9,102.3,26.8z"/>
			<path class="st0" d="M8.7,40.9c-2.1-0.1-4.3-0.1-6.4-0.2c-0.5,0-1,0-1.4,0c-0.2,0-0.3-0.1-0.3-0.4c0-3.5,0-7-0.1-10.6
				c0-1.5,0-3.1,0-4.6c0-3.7,0.1-7.4,0.1-11.2c0-2-0.1-4-0.1-6c0-2.4,0-4.7,0-7.1c0-0.5,0.1-0.6,0.6-0.6c1.2,0,2.4,0,3.6,0
				c1.4,0,2.8,0.1,4.2,0.1C11.6,0.6,14.3,1,16.8,2c1.9,0.7,3.6,1.7,5,3.1c1.4,1.4,2.6,2.9,3.3,4.8c0.6,1.6,1.4,3.1,1.7,4.8
				c0.5,2.3,0.7,4.6,0.7,6.9c0,1.9-0.2,3.7-0.6,5.6c-0.2,0.8-0.5,1.7-0.7,2.5c-0.5,1.5-1.1,2.9-1.9,4.3c-0.7,1.2-1.6,2.1-2.6,3.1
				c-1,1-2.2,1.8-3.5,2.3c-1.4,0.6-2.9,1-4.4,1.2C12,40.8,10.3,40.9,8.7,40.9z M6.4,11.2C6.4,11.2,6.4,11.2,6.4,11.2
				c0,0.5,0,0.9,0,1.4c0,1.8,0,3.6,0.1,5.3c0,2.1,0,4.1,0,6.2c0,2.2,0,4.5,0,6.7c0,1.3,0,2.7,0,4c0,0.2,0.1,0.3,0.3,0.3
				c1,0,2.1,0,3.1-0.1c1.1-0.1,2.1-0.2,3.2-0.4c2.1-0.4,3.7-1.6,5.2-3c1.2-1.2,1.9-2.7,2.4-4.3c0.6-2,0.9-3.9,0.8-6
				c-0.1-1.7-0.3-3.5-0.6-5.2c-0.3-1.5-0.7-2.9-1.4-4.2c-1.1-2-2.5-3.5-4.6-4.4c-1.2-0.5-2.5-0.9-3.8-1.2C9.7,6.1,8.3,6,6.8,6.1
				c-0.3,0-0.4,0.1-0.4,0.4C6.4,8.1,6.4,9.6,6.4,11.2z"/>
			<path class="st0" d="M50.4,21.2c0.9,1,1.5,2.1,2.1,3.3c0.5,0.9,0.9,1.9,1.4,2.8c0.4,0.9,0.9,1.7,1.3,2.5c0.5,1,1,2,1.5,2.9
				c0.7,1.3,1.4,2.7,2,4c0.4,0.7,0.7,1.5,1.1,2.2c0.3,0.5,0.6,1,0.8,1.5c0,0.1,0.1,0.1,0.1,0.2c-0.3,0-0.6,0.1-0.8,0.1
				c-1.7,0-3.4,0-5.1,0c-0.1,0-0.2,0-0.3,0c-0.5,0.1-0.7-0.1-1-0.6c-0.6-1.2-1.2-2.4-1.8-3.6c-0.7-1.4-1.4-2.9-2.1-4.4
				c-1.1-2.3-2.2-4.5-3.5-6.7c-0.5-0.7-0.9-1.5-1.6-2c-0.6-0.5-1.3-0.9-2.2-0.9c-0.7,0-1.5,0-2.2-0.1c-0.3,0-0.4,0.1-0.4,0.4
				c0,1.6,0,3.2,0,4.9c0,1.6,0.1,3.3,0.1,4.9c0,1.4,0,2.9,0,4.3c0,1.1,0,2.3,0,3.4c0,0.3-0.1,0.4-0.3,0.4c-1.8,0-3.7,0-5.5,0
				c-0.3,0-0.4-0.1-0.4-0.4c0-1.7,0-3.4,0-5.1c0-1.5,0-3,0-4.5c0-1.5,0-3.1,0.1-4.6c0-2.3,0-4.5,0-6.8c0-1.2-0.1-2.4-0.1-3.6
				c0-1.4,0-2.8,0-4.2c0-1.2,0-2.3,0-3.5c0-1.9,0.1-3.8,0.1-5.7c0-0.6,0-1.1,0-1.7c0-0.2,0.1-0.3,0.3-0.3c1.2,0,2.4-0.1,3.6-0.1
				c2.3,0,4.5,0,6.7,0.2c2.4,0.2,4.8,0.7,6.9,1.9c2.6,1.4,4.4,3.5,5.2,6.4c0.5,1.9,0.4,3.8-0.2,5.7c-0.3,0.9-0.7,1.8-1.2,2.7
				c-0.6,1-1.4,1.9-2.4,2.6C52,20.2,51.2,20.7,50.4,21.2z M41.7,17c1,0,1.9-0.1,2.8-0.1c1.2-0.1,2.4-0.2,3.5-0.8
				c1.5-0.7,2.7-1.8,3.1-3.5c0.2-1.1,0.2-2.1-0.1-3.1c-0.4-1.3-1.5-2.2-2.7-2.8c-0.9-0.4-1.9-0.6-2.9-0.8c-1.8-0.3-3.5-0.3-5.3-0.2
				c-0.1,0-0.2,0.1-0.2,0.2c0,1.2-0.1,2.3-0.1,3.5c0,1.4,0,2.8,0,4.2c0,1,0,2,0,3c0,0.2,0,0.4,0.3,0.4C40.7,17,41.3,17,41.7,17z"/>
			<path class="st0" d="M0.5,46.4c0.4,0,0.8,0,1.3-0.1c1.9,0,3.8-0.1,5.7-0.1c2.3,0,4.5,0.2,6.7,0.7c1.8,0.4,3.5,1.2,5,2.4
				c1.4,1.1,2.3,2.5,2.8,4.1c1,3.1,0.7,6-1,8.8c-0.4,0.6-0.9,1.1-1.4,1.6c0.2,0.1,0.5,0.3,0.8,0.4c1.4,0.8,2.6,1.8,3.5,3.1
				c0.7,0.9,1.1,2,1.4,3.2c0.2,1,0.4,2,0.4,3c0,1.5-0.2,3-0.8,4.4c-0.4,1.1-1,2.2-1.7,3.2c-0.9,1.2-2.1,2-3.5,2.6
				c-1.8,0.8-3.8,1.1-5.7,1.2c-1.8,0.1-3.7,0.1-5.5,0.1c-1.8,0-3.7,0-5.5,0c-0.7,0-1.4,0-2.1,0c-0.3,0-0.4-0.1-0.4-0.4
				c0-3.3,0-6.6,0-9.9c0-9.2,0-18.5,0-27.7C0.5,46.7,0.5,46.6,0.5,46.4z M5.8,79.6c0.4,0,0.7,0.1,1,0.1c1.7,0,3.4,0,5.1,0
				c1.5,0,3-0.1,4.4-0.6c1.4-0.5,2.5-1.4,3.1-2.8c0.5-1.2,0.6-2.5,0.4-3.8c-0.1-1.1-0.5-2.1-1.2-3C18,68.6,17.1,68,16,67.6
				c-1.3-0.5-2.6-0.7-3.9-0.7c-1.9-0.1-3.8,0-5.8,0c-0.5,0-0.6,0.1-0.6,0.6c0,1.5,0,3.1,0,4.6c0,1.8,0,3.6,0.1,5.4
				C5.8,78.2,5.8,78.9,5.8,79.6z M8.9,62C8.9,62,8.9,62,8.9,62C9.3,62,9.7,62,10.1,62c1.2,0,2.3-0.1,3.4-0.4c1.9-0.6,3-1.9,3.5-3.8
				c0.1-0.4,0.1-0.8,0.1-1.3c0.1-1.6-0.6-2.8-1.9-3.7c-1.2-0.8-2.6-1.1-4-1.2c-1.7-0.1-3.3-0.1-5-0.2c-0.5,0-0.5,0-0.5,0.5
				c0,1.8,0,3.6,0.1,5.4c0,1.5,0,3,0.1,4.5C6,61.9,6,62,6.2,62C7.1,62,8,62,8.9,62z"/>
			<path class="st0" d="M123.6,40.9c-0.6,0-1.1,0-1.7,0c-1.3,0-2.5,0-3.8-0.1c-0.4,0-0.5-0.1-0.5-0.5c0-1.1,0-2.2,0-3.4
				c0-1.4,0-2.7,0-4.1c0-1.8,0-3.6-0.1-5.4c0-2.1,0-4.2,0-6.3c0-1.3,0-2.5,0-3.8c0-1.7,0-3.4,0-5.1c0-1.8,0-3.6,0-5.4
				c0-0.4,0-0.9,0.1-1.3c0-1.5,0.1-3,0.1-4.5c0-0.1,0-0.2,0-0.3c0-0.2,0.1-0.3,0.3-0.3c1.7,0,3.5,0,5.2-0.1c0.2,0,0.3,0.1,0.3,0.3
				c0,1.9,0,3.8,0,5.6c0,2.1,0,4.2,0.1,6.3c0,0.9,0,1.7,0,2.6c0,0,0.1,0,0.1,0c0.1-0.1,0.2-0.2,0.3-0.3c1.2-1.7,2.4-3.4,3.6-5
				c1.4-1.9,2.9-3.8,4.3-5.7c0.9-1.2,1.8-2.3,2.7-3.5c0.2-0.3,0.4-0.3,0.7-0.3c1,0,2.1,0.1,3.1,0.1c1.2,0,2.3,0,3.5,0
				c0.1,0,0.2,0.1,0.3,0.1c0,0.1-0.1,0.2-0.1,0.3c-0.6,0.8-1.3,1.6-1.9,2.5c-1.6,2.1-3.3,4.3-4.9,6.4c-1,1.3-2,2.7-3,4
				c-0.7,0.9-1.4,1.8-2.1,2.7c-0.1,0.1-0.1,0.2-0.2,0.2c0.6,0.3,1.1,0.6,1.7,1c0.3,0.2,0.5,0.4,0.7,0.6c0.9,1.1,1.6,2.3,2.3,3.6
				c0.5,1,1,2,1.5,3c0.6,1.2,1.2,2.5,1.8,3.7c0.6,1.2,1.2,2.3,1.7,3.5c0.5,1,1,2.1,1.5,3.1c0.6,1.1,1.1,2.2,1.7,3.3
				c0.3,0.5,0.5,1.1,0.7,1.7c0.2,0.4,0.1,0.5-0.3,0.5c-2,0-4,0-6,0.1c-0.3,0-0.5-0.1-0.6-0.4c-0.5-1.1-1-2.1-1.4-3.2
				c-0.5-1.1-1-2.2-1.6-3.3c-0.6-1.4-1.3-2.8-1.9-4.1c-0.7-1.3-1.3-2.7-2-4c-0.6-1-1.3-2-2.4-2.6c-0.8-0.4-1.7-0.6-2.6-0.6
				c-0.3,0-0.6,0-0.9,0c-0.2,0-0.3,0.1-0.3,0.3c0,1-0.1,2-0.1,3c0,2.2,0.1,4.4,0.1,6.7c0,1.4-0.1,2.8-0.1,4.2c0,1,0,1.9,0,2.9
				C123.6,40.1,123.6,40.5,123.6,40.9z"/>
			<path class="st0" d="M119.4,46.3c0.7,0,1.4,0,2.1,0c1,0,2.1,0,3.1,0c0.4,0,0.5,0,0.5,0.5c0,1.8,0,3.7,0,5.5c0,2.6,0,5.3,0,7.9
				c0,1.3,0.1,2.7,0.1,4c0,1.5,0,2.9,0.1,4.4c0,1.5,0.1,3,0.2,4.4c0.1,1.5,0.5,2.9,1.5,4.1c0.9,1.2,2.1,1.8,3.6,2.1
				c1.4,0.3,2.8,0.2,4.1-0.4c1.7-0.7,2.9-2,3.4-3.8c0.6-2.1,0.5-4.2,0.6-6.3c0-1.4,0-2.8,0-4.2c0-2.3,0-4.7,0-7
				c0-2.7-0.1-5.4-0.1-8.1c0-0.9,0-1.9,0-2.8c0-0.4,0-0.5,0.4-0.5c1.7,0,3.3,0,5,0c0.3,0,0.3,0.2,0.3,0.3c0,2,0,4,0,6
				c0,1.9,0.1,3.9,0.1,5.8c0,1.4,0,2.8,0,4.2c0,1.8,0,3.7,0,5.5c0,2,0.1,4.1-0.2,6.1c-0.2,1.4-0.4,2.7-1,4c-0.6,1.3-1.4,2.4-2.5,3.4
				c-1.4,1.3-3,2.3-4.9,2.7c-1.8,0.4-3.6,0.6-5.4,0.5c-1.3-0.1-2.6-0.3-3.7-0.9c-1.3-0.6-2.5-1.4-3.5-2.5c-1.1-1.2-1.8-2.5-2.3-4
				c-0.5-1.3-0.7-2.7-0.8-4c-0.1-1.8-0.2-3.7-0.2-5.5c0-0.9,0-1.8-0.1-2.7c0-2.1,0-4.3,0-6.4c0-1.4,0-2.8,0-4.1c0-1.1,0-2.3,0-3.4
				C119.4,49.8,119.4,48.1,119.4,46.3z"/>
			<path class="st0" d="M51.1,84.9c-0.9,0-1.8,0-2.7,0c-0.3,0-0.4-0.1-0.5-0.4c-0.4-1.5-0.9-2.9-1.4-4.4c-0.5-1.6-0.9-3.1-1.3-4.7
				c-0.1-0.2-0.1-0.3-0.4-0.3c-2,0-4,0-6,0c-0.5,0-0.9,0-1.4,0c-0.2,0-0.3,0.1-0.4,0.3c-0.4,1.2-0.8,2.3-1.2,3.5
				c-0.4,1.2-0.9,2.3-1.3,3.5c-0.2,0.5-0.3,1-0.5,1.5c-0.4,1.1-0.3,1-1.4,1c-1.2,0-2.4,0-3.7,0c-0.1,0-0.2,0-0.4,0
				c-0.4-0.1-0.5-0.2-0.3-0.6c0.8-2.4,1.6-4.9,2.4-7.3c0.8-2.5,1.7-5.1,2.5-7.6c1.2-3.6,2.4-7.2,3.6-10.8c1-3.1,2-6.2,3.1-9.3
				c0.3-0.9,0.6-1.8,0.9-2.7c0.1-0.2,0.2-0.3,0.3-0.4c0.1,0.1,0.3,0.2,0.4,0.4c0.5,1.4,0.9,2.8,1.4,4.1c0.5,1.5,1,3,1.5,4.4
				c0.6,1.9,1.3,3.8,1.9,5.7c0.7,2.1,1.4,4.1,2,6.2c0.8,2.4,1.6,4.8,2.4,7.1c0.7,2,1.3,4,2,6.1c0.4,1.2,0.8,2.4,1.2,3.6
				c0.1,0.2,0.2,0.5,0.3,0.7c0.1,0.3,0.1,0.4-0.2,0.4C53,84.9,52.1,84.9,51.1,84.9C51.1,84.9,51.1,84.9,51.1,84.9z M43.5,70
				c-0.7-2.2-1.5-4.5-2.2-6.7c0,0-0.1,0-0.1,0c-0.7,2.2-1.5,4.4-2.2,6.7C40.5,70,42,70,43.5,70z"/>
			<path class="st0" d="M89.8,46.4c1.9,0,3.9,0,5.8,0c0,0.2,0,0.3,0,0.5c0,2.5,0,5,0,7.5c0,1,0,1.9,0.1,2.9c0,2.3,0.1,4.6,0.1,6.9
				c0,2,0,4-0.1,6c-0.1,1.9-0.2,3.9-0.7,5.8c-0.6,2.4-1.8,4.5-3.5,6.2c-1.2,1.2-2.7,1.9-4.3,2.2c-1.1,0.2-2.1,0.4-3.2,0.5
				c-1.1,0.1-2.3,0-3.4-0.1c-1.1-0.1-2.2-0.4-3.2-0.8c-1.3-0.6-2.4-1.4-3.3-2.4c-1.7-1.9-2.6-4.2-2.9-6.8c-0.2-1.3-0.2-2.7-0.2-4
				c0-0.3,0.1-0.4,0.4-0.4c1.6,0,3.3,0,4.9,0c0.3,0,0.4,0.1,0.4,0.4c-0.1,1.5,0.1,2.9,0.6,4.3c0.8,2.7,3,4.4,5.7,4.2
				c0.8,0,1.6-0.1,2.3-0.3c1.1-0.3,2-0.9,2.7-1.8c0.9-1.1,1.3-2.4,1.6-3.8c0.4-2.5,0.4-4.9,0.4-7.4c0-2.8,0-5.6,0-8.5
				c0-2.2,0-4.5,0-6.7c0-1.3,0-2.5,0-3.8C89.8,46.7,89.8,46.6,89.8,46.4z"/>
			<path class="st0" d="M67.2,31.4c0-1.8,0-3.6,0-5.3c0-1.5,0-3,0-4.5c0-1.5,0-2.9,0-4.4c0-1.5,0-3,0-4.5c0-1.9,0-3.8,0-5.7
				c0-1.8,0-3.7,0-5.5c0-0.9,0-0.9,0.8-0.9c1.4,0,2.9,0,4.3,0c0,0,0.1,0,0.1,0c1,0,0.8,0.1,0.8,0.8c0,2.8,0,5.6,0,8.4
				c0,2.1,0,4.2-0.1,6.3c0,1.8,0,3.7-0.1,5.5c0,1.4,0,2.9,0,4.3c0,0.9,0,1.8,0,2.7c0,1.1,0,2.3,0,3.4c0,2.2,0,4.3,0,6.5
				c0,0.7,0,1.4,0,2.1c0,0.4-0.1,0.5-0.5,0.5c-0.4,0-0.8,0-1.2,0c-1.3,0-2.6-0.1-3.9-0.1c-0.3,0-0.4-0.2-0.4-0.5
				c0-1.2,0.1-2.5,0.1-3.8C67.2,35,67.2,33.2,67.2,31.4C67.2,31.4,67.2,31.4,67.2,31.4z"/>
			<path class="st0" d="M59.5,52.5c0-1.6,0-3.2,0-4.8c0-0.4,0.1-0.8,0.1-1.2c0-0.2,0.1-0.2,0.3-0.2c0.9,0,1.8,0,2.7,0
				c0.8,0,1.6,0,2.4,0c0.3,0,0.3,0.1,0.3,0.3c0,1.8,0,3.5,0,5.3c0,1.4,0,2.8,0,4.2c0,0.9,0,1.9,0,2.8c0,1.1,0,2.1,0,3.2
				c0,1.6,0,3.1,0,4.7c0,1.7,0,3.4,0,5.1c0,1.1,0,2.3,0,3.4c0,1.4,0,2.7,0,4.1c0,1.7,0,3.5,0,5.2c0,0.2-0.1,0.3-0.3,0.3
				c-1.7,0-3.4,0-5.1,0c-0.2,0-0.4,0-0.4-0.3c0-1.6,0-3.1,0-4.7c0-1.7,0-3.3,0-5c0-1.4,0-2.8,0-4.2c0-2.2,0.1-4.4,0.1-6.7
				c0-1.3,0-2.6,0-3.9c0-0.9,0-1.8,0-2.6c0-0.7-0.1-1.5-0.1-2.2C59.5,54.3,59.5,53.4,59.5,52.5C59.5,52.5,59.5,52.5,59.5,52.5z"/>
			<path class="st0" d="M110.7,46.3c0,1.5,0,2.9,0,4.4c0,1.7,0,3.5,0,5.2c0,0.9,0,1.7,0,2.6c0,1.1,0,2.1,0,3.2c0,2,0,3.9,0,5.9
				c0,1.4,0,2.8,0,4.2c0,0.9,0,1.7,0,2.6c0,1.1,0,2.3,0,3.4c0,2.3,0,4.5,0,6.8c0,0.2-0.1,0.3-0.3,0.3c-1.7,0-3.4,0-5,0
				c-0.3,0-0.4-0.1-0.4-0.4c0-0.6,0-1.3,0-1.9c0-0.9,0-1.9,0-2.8c0-1.4,0-2.7,0-4.1c0-1.7,0-3.3,0-5c0-2.1,0-4.2,0-6.3
				c0-1.4,0-2.9,0-4.3c0-0.9,0-1.7,0-2.6c0-1.5,0-3.1,0-4.6c0-1.4,0-2.7,0-4.1c0-0.7,0-1.3,0-2c0-0.4,0.1-0.4,0.5-0.4
				c0.3,0,0.6,0,0.9,0c1.3,0,2.7,0,4,0C110.5,46.3,110.6,46.3,110.7,46.3z"/>
		</g>
	</g>
</g>
</svg>
