<svg xmlns="http://www.w3.org/2000/svg" viewBox="0 0 879 182.2"><defs><style>.a{fill:#fff;}</style></defs><title>lightbox-dirt</title><path class="a" d="M492.2,44c0,.3.4.4.8.4s.7-.3.6-.6-.5-.4-.8-.4S492.1,43.7,492.2,44ZM181.8,110.4c-1.5-.8-2.3-.1-3.8.8A4.6,4.6,0,0,0,181.8,110.4ZM575.5,70.7a2.1,2.1,0,0,0,2.4,0,.7.7,0,0,0,0-1.1c-.6-.4-1.9.2-2.3,1.2Zm288.2-.5,2-.4c.6-.2,1.6.2,1.6-.8-2.8-.3-9.1,1-13.8,3.1,4.8,0,9,0,13.5-.3C866.1,70.4,864.5,71.2,863.7,70.2ZM463.4,65.1c1,1,1.7,2.3,3.9,1.5C466,66,465.6,64.4,463.4,65.1ZM649.6,86.3a2,2,0,0,0,1.1-.1c.1-.1.2-.4.1-.5s-.9,0-1.3.2S649.3,86.3,649.6,86.3Zm-1,2.3c.7-1.5,3.2-.2,4.3-2a34.3,34.3,0,0,0-4,.6c-1.2.3-.5.9-.2,1.5Zm-258.8-27a3.5,3.5,0,0,0,3.2.2c-1.3-.6-2.2,0-3.2-.1ZM370,60.3c-.1,0-.2.2-.2.2s2.3.9,3.5,1.2C372.1,61.4,371.6,60,370,60.3Zm-12.8-.7c-1.9-.7-3.1-1.4-4.9-.5C353.8,60.1,355,60.2,357.2,59.6Zm178.2,3.7c.2,0,.4-.3.4-.4s-.3-.6-.8-.5-.2.3-.4.4A.6.6,0,0,0,535.4,63.3Zm9.2,5.4c.1-.2-.1-.4-.2-.5s-.5.1-.6.3.1.5.1,1Zm18.9-7.3c.6-.1.9-.3.6-.8s-.9-.3-1.4-.1-.6.3-.6.6A1.4,1.4,0,0,0,563.5,61.4Zm-44.7.1c-.1.5,0,1,.9,1.1s.8-.1.9-.4-.4-.9-.9-1.1S518.9,61.1,518.8,61.5ZM545.2,54c-.5.1-1,.3-1,.8s.6.6,1.2.6a3.7,3.7,0,0,0,2.9-1.3A4.7,4.7,0,0,0,545.2,54Zm22.1,7.1c4.8,1.5,9.5.7,14.2-.3C576.7,59.1,572.1,61.2,567.3,61.1Zm-70,20.5c0,.2.3.3.5.3s.7-.2.6-.6l-.5-.3C497.4,81,497.2,81.3,497.3,81.6Zm59.1,2.5.9-.4-.6-.2a.6.6,0,0,0-.8.4C555.9,84.1,556.1,84.2,556.4,84.1Zm33,0c0-.3-.2-.4-.5-.3s-.2.1-.2.2.2.3.5.3Zm-67,2.2c.4.1.9.2,1-.2s-.4-.5-.7-.7a.7.7,0,0,0-.9.2A.7.7,0,0,0,522.4,86.3Zm76.9,1a.8.8,0,0,0,.9-.3c0-.1-.2-.4-.4-.4l-1,.2Zm-79.2-3.5c.1-.8-.8-.7-1.2-.9s-.8,0-.8.4.5.8.9.9S520,84.1,520.1,83.8Zm-21.8.1c.3,0,.6-.3.8-.5s.3-.5-.2-.5a.9.9,0,0,0-1.1.4C497.7,83.7,497.9,84,498.3,83.9Zm-10-1.6c.8-.8.9-1.6-.1-2s-1,.6-1.5,1-.2.6-.3.8h1.9ZM605.8,86c-1.4,0-2.5-.5-3.9.5C603.6,87,604.6,87,605.8,86ZM488.4,82.2c.1.4-.3.9.4,1s3.3.7,5.1-.3c-1.8-1.1-3.7-.8-5.6-.6Zm-5.7-1.5L481,82.8c2.1.3,3.9,1,5.3-.7h.1c-1.1-.8-3-.1-3.8-1.4Zm183.9,5.4c.4.2.8.1.9-.2a1,1,0,0,0-1-1.4c-.9.2-2.3.6-2.2,1.4s1.3.6,2.1.2ZM249.4,23.3a1.6,1.6,0,0,0-.8-.5c-.5-.1-.7.2-.6.5s.3.5.7.6S249.5,23.7,249.4,23.3ZM472.3,34.8c.1,0,.4-.2.4-.4a.5.5,0,0,0-.5-.6c-.5-.1-.5.2-.6.5S471.8,34.9,472.3,34.8Zm-268.2,2c0-.5-.5-.3-.8-.3s-.5.2-.4.4l.6.2C203.7,37,204.1,36.9,204.1,36.8Zm97.2,129a.4.4,0,0,0-.2-.5.5.5,0,0,0-.8.3l.4.4ZM791.9,55.3a2.5,2.5,0,0,0-.9-.4c-.3-.2-.5-.1-.5.2a1.2,1.2,0,0,0,1.1.5C792,55.6,792.1,55.4,791.9,55.3ZM293,3.5h.7l-.6-.2a.8.8,0,0,0-.7.1ZM235.3,155.3a1.2,1.2,0,0,0,1,.8l.6-.2c-.1-.5-.6-.7-1-.9S235.3,155.1,235.3,155.3ZM449.1,15.2h-.7l-.5.2h.7ZM232,156.2c-.8-.2-1.4-1.7-2.6-.4.9.6,1.9-.2,2.6.3Zm81.4-2.8c.5,0,.5-.3.5-.6s0-.7-.5-.7-.4.4-.4.7S312.9,153.4,313.4,153.4Zm9.9-.7c.2-.1.6-.5.5-.6a1,1,0,0,0-1.2-.4.6.6,0,0,0-.4.7A.7.7,0,0,0,323.3,152.7Zm241.3,22.2c.3-.4-.2-.5-.5-.5s-.9,0-1,.2.1.6.7.7S564.5,175.1,564.6,174.9Zm-101,.2c.1,0,.3-.3.3-.5s-.3-.5-.8-.4-.2.3-.3.4A.7.7,0,0,0,463.6,175.1Zm225.7,7.2.6.2c.4-.1.7-.2.5-.6h-.6C689.5,181.9,689.1,182,689.3,182.3ZM514.8,171.8c-.4.1-.5.4-.3.7a1.6,1.6,0,0,0,1,.1.5.5,0,0,0,.6-.6A1.2,1.2,0,0,0,514.8,171.8Zm9.8.3a.7.7,0,0,0,.9-.2c.2-.2.1-.5-.1-.5a.8.8,0,0,0-1,.2C524.5,171.8,524.5,172,524.6,172.1ZM416.2,171a.6.6,0,0,0,.8-.4c.2-.4-.1-.6-.5-.7s-.7.1-.8.3A.6.6,0,0,0,416.2,171Zm3.6-.8c.1-.4-.1-.6-.6-.7s-.7.1-.8.4a.4.4,0,0,0,.1.6C419.4,170.6,419.7,170.5,419.8,170.2ZM339.8,8.4a2.6,2.6,0,0,0-2.4-.1A2.5,2.5,0,0,0,339.8,8.4ZM447.9,159.6l.6-.2c.2-.3-.1-.6-.4-.7a.8.8,0,0,0-.9.4C447.2,159.4,447.5,159.6,447.9,159.6ZM587.5,39.5a1.1,1.1,0,0,0-.6-.3c-.4,0-.9,0-.9.4s.4.4.8.5S587.6,39.9,587.5,39.5ZM104,45.9a2.7,2.7,0,0,0,.8.7c.3.1.8.1.7-.3s-.5-.4-.7-.6ZM776.4,63.7c-1.1-.3-2.3-1.3-3.6.1a11.1,11.1,0,0,0,3.7-.2A.1.1,0,0,1,776.4,63.7ZM232,156.1c-.3-.4.1-.7.4-1s-.2-1.4-.8-1.1.7,1.4.4,2.2Zm345.2,19.4c-.1.1.1.5.3.5a2.1,2.1,0,0,0,2.1-.8C578.5,174.8,577.7,174.7,577.2,175.5Zm-124.4-3.8a1.5,1.5,0,0,0,1-.2c.3-.3.1-.6-.2-.8a1.1,1.1,0,0,0-1.3.4C452.1,171.5,452.4,171.7,452.8,171.7ZM298.5,4.3a1.6,1.6,0,0,0,1.5-.1c.2-.2.1-.3-.3-.4h-1.6C298.3,4,298.4,4.3,298.5,4.3ZM823.1,42.5c.5,0,1.3.2,1.3-.7l-3.1.2A2.1,2.1,0,0,0,823.1,42.5ZM773,44c-.5-.9-1.3-.9-2.6-.6C771.3,44.1,772,44.5,773,44ZM361.7,145.8c.7.2.9-.2,1-.6s.2-.9-.5-.8a3.9,3.9,0,0,0-1.1.6A.8.8,0,0,0,361.7,145.8ZM163.4,40c-.9-.9-1.8-1.8-3.7-.7a7.4,7.4,0,0,0,3.8.6ZM275.9,53c-1.3-.4-2.5-.8-4.1.5a12.5,12.5,0,0,0,4.2-.6Zm339,123.6c-.2-.3-.6-.3-1-.3s-.8.2-.6.6l.8.4C614.7,177.2,615,177,614.9,176.6ZM250.9,48.2c-.9.1-1.8-.2-2.9.3,1.8.6,1.8.6,2.8-.4Zm53.9,117.9c.4-.1.7-.3.6-.6s-.7-.5-1.2-.4a.7.7,0,0,0-.6.7C303.9,166.2,304.3,166.2,304.8,166.1Zm339.4,12.2c0,.4.5.4.8.4s1.1-.1,1.1-.6-.4-.4-.8-.4S644.2,177.9,644.2,178.3Zm-62.3-6.2c.1-.4-.2-.6-.6-.6a.9.9,0,0,0-1,.8c-.1.3.1.5.6.5A1,1,0,0,0,581.9,172.1ZM472.2,16.5c1.3.2,2.4.6,3.9,0A6.5,6.5,0,0,0,472.2,16.5Zm6.9.6h.7c.3-.1.3-.4.1-.5a1.1,1.1,0,0,0-1.1,0C478.7,16.8,478.7,17,479.1,17.1Zm9.9,0c-1.1-.4-2.1-.2-4,0C486.9,17.3,487.9,17.5,489,17.1ZM343.3,28.3c.2,0,.1-.4-.2-.5s-1.1.3-1.9.7Zm442.4,2.2a1.6,1.6,0,0,0,1.5-.7c.1-.1-.1-.5-.2-.5s-1.1.2-1.5.6A1.1,1.1,0,0,0,785.7,30.5ZM485.9,33.7c.4.5-.2,1.3.5,1.7l.7-.2c.6-.6.1-1.1-.2-1.7l-.8-.6C486,33.4,485.8,33.6,485.9,33.7ZM114.6,37.3c1.6-.2,3,.5,4.6.6-1.4-1.4-3-1.1-4.6-.6Zm33.5,3.1c-1.6-.8-3.1-.3-4.7.1,1.6-.2,3.2.7,4.7-.2Zm776.1,2c.4-.1.7-.3.4-.6s-.7-.2-1.1-.2-.2.3-.3.5S923.8,42.4,924.2,42.4ZM329.6,144.7c.7,0,1.5-.1,1.8-.8a.6.6,0,0,0-.6-.6c-.7.1-1.5.1-1.8.8A.5.5,0,0,0,329.6,144.7Zm3.8-.4a1.7,1.7,0,0,0,1.7.3c.4,0,.8-.4.5-.6a2.9,2.9,0,0,0-1.4-.3c-.3-.1-.6.1-.9.2S333.3,144.2,333.4,144.3ZM238,160.5c-.2-.4-.8-.5-1.3-.5s-.8.1-.5.5.8.4,1.3.5S238.3,160.9,238,160.5Zm333.3,14.6c-.1.5.4.9,1,1.2l.6-.2c.1-.6-.5-.9-.9-1.3Zm29.9,1.7c.6.2,1.2.1,1.4-.5s-.5-.6-.9-.7a2.7,2.7,0,0,0-1.8.3C600,176.4,600.6,176.6,601.2,176.8ZM406.1,12.9c.7.7,1.5.7,2.7.2A2.4,2.4,0,0,0,406.1,12.9ZM108.3,47.8c.1.1.3,0,.4-.1s-.9-1.6-1.2-2.4C107.7,46.1,106.6,47.4,108.3,47.8ZM515.9,175l3.6-.2c0-.1-.1-.2-.1-.3h-3.6A.9.9,0,0,0,515.9,175ZM759.7,39.1c-.5-.1-1.3-.3-1.3.5a3.6,3.6,0,0,0,2.5.1C760.7,39.3,760.1,39.2,759.7,39.1ZM282.4,164.5c.5-.2,1.4-.2,1.1-.9s-.8-.4-1.4-.4a1.5,1.5,0,0,0-1.2.9A1.3,1.3,0,0,0,282.4,164.5Zm309.4,11.7c.5,0,1.2,0,1.3-.4s-.6-.8-1.2-.8-1,.1-1.1.6S591.3,176.2,591.8,176.2ZM100,107.5c1.5.7,2.6,1.4,4.5.7A4.5,4.5,0,0,0,100,107.5ZM352.6,168a.9.9,0,0,0-1.3.2c-.6.6.4.5.6.8s.7.6,1.3.3A1,1,0,0,0,352.6,168Zm257.3,8.2a3.7,3.7,0,0,0-3.2.7C609.9,177,610.1,177,609.9,176.2Zm-105-5.3c-1,.2-2.3,0-3.6,1.1C503.3,172.3,504,171.4,504.9,170.9ZM697,181.4l-4.6.5C695.4,182.6,695.4,182.6,697,181.4Zm-439.8-30c-1,.1-2-.9-3.5.1A8,8,0,0,0,257.2,151.4Zm275.2,20.5a3.7,3.7,0,0,0,3.1.1C533.8,171.2,533.8,171.2,532.4,171.9Zm248.9-112c1.5,0,2.8.8,5.3.2C784.3,58.7,782.8,59.5,781.3,59.9ZM122.6,38.1a1.1,1.1,0,0,0-1.5.5c-.2.7.5.9,1.2.9a4.8,4.8,0,0,0,2.5-.4A19.5,19.5,0,0,0,122.6,38.1Zm666.8,9c-1.6.1-2.9-.3-4.2.5C787.7,48.4,787.7,48.4,789.4,47.1ZM545.5,172.2c-2-.8-3.3-1.3-5.8-.3A19.3,19.3,0,0,0,545.5,172.2Zm-234.3-6.8c-.2.1-.5.6-.4.7s1.8,1,3,.3C313.2,165.6,312.6,164.8,311.2,165.4Zm463-119,3.2,2.3c-.5-1.3-.9-2.6-2.6-2.8ZM582.9,175.5l3,.4c.6.1,1-.2.8-.7s-.5-.6-.7-.6l-3.3.5C582.8,175.2,582.8,175.4,582.9,175.5Zm-141.1-3.6c.8-.1,1.9,0,1.7-1.1s-.4-.9-1-.7-2,.2-2.2,1.3S441.2,172.1,441.8,171.9ZM438.9,159c2,.8,3.8.3,5.6.1A9.7,9.7,0,0,0,438.9,159ZM859,40.6c-.9-.4-1.2.8-2,.3a1.8,1.8,0,0,0-2.1-.1C856.8,42.5,857.2,42.5,859,40.6Zm-400-25c-1.7.2-3.2-1.2-5-.1A7.8,7.8,0,0,0,459,15.6Zm-24.6-1c-2.1-.6-3.5-1.1-5.1-.4A7.8,7.8,0,0,0,434.4,14.6ZM547.5,174.7a9.3,9.3,0,0,0,5.7-.1C548.6,174.1,548.6,174.1,547.5,174.7ZM220.7,47.3a13,13,0,0,1,5.9,1.2c.7.4,1.3.2,1.5-.3s-.3-.9-1-1a17.2,17.2,0,0,0-6.4.1ZM317.9,5.9c-2.8-.3-5.5-1.1-9-.8a17,17,0,0,0,9.1.7A.1.1,0,0,0,317.9,5.9ZM221.7,31.1c1.4.5,3,.2,4.4.3a1.1,1.1,0,0,0,1.1-.7c0-.6-.6-.7-1.1-.7l-4.4.3Zm64.5,133.8c1.4.1,2.8.4,4.1-.2s.2-.4.1-.5-2.5-.5-3.8-.7a2.7,2.7,0,0,0-1.5.3A1.3,1.3,0,0,0,286.2,164.9Zm45.4-24.8a1,1,0,0,0-.9.4c-.2.5.2.8.8.9a9,9,0,0,0,5.5-.6C335.1,139.9,333.3,140.4,331.6,140.1Zm-42.1,2.7c-2-.1-4.1,0-6.2-.3C285.3,144.1,287.4,143.8,289.5,142.8Zm8.5-95c-3.1-.2-5.4,1-7.9,1.3C292.6,49.3,295.3,49.6,298,47.8Zm546.3-8.1c-1-.3-1.9,0-1.9.9s1.3,1.1,2,1a23,23,0,0,0,3.4-1.2C846.6,39.7,845.4,40,844.3,39.7ZM516.9,18.2a28.1,28.1,0,0,0,9.6,0ZM276,52.9c-.6.6-1.4,1.2-.7,1.9a3.8,3.8,0,0,0,2.8.7c.7,0,.9-.6,1-1.1s-.3-1-1-1a5.4,5.4,0,0,1-2.2-.4ZM487.1,172.3c2.5,0,4.7,1.6,7.4-.3C490.7,171.3,488.5,171.4,487.1,172.3ZM316.3,152.5c-.2.5.4.7.8.9l1.4.5c.9.3,2.1.2,2.4-.4s-.9-1.3-2-1.4h-1C317.1,151.8,316.5,151.9,316.3,152.5Zm72,17.1c-2.9-1.5-5.3-.9-7.7.2C383.1,169.6,385.5,170.8,388.3,169.6ZM822.5,46.7c2.7,1.2,4.8.5,4.7-1.6s-.9-1.5-2-1l-2.9,1.5a3.3,3.3,0,0,1,3.6,0c-1.4,1.4-2.6,1-3.8,0l.5,1.2ZM624.4,178.1a6.1,6.1,0,0,1,3.3.2c1.7.5,2.7-.1,4-1.1-2.9-.4-5.3-.6-7.3.9ZM676.9,36.3c-2.9.1-5.7.8-8.7.7-.3,0-.8.4-.3,1.1,2.9-1.4,6.5.2,9.7-1.1C677.2,36.6,677,36.3,676.9,36.3Zm-251-22.6c-3.4,0-6.3-.7-9.4-.4A15.7,15.7,0,0,0,425.9,13.7Zm77,22.2c.8-.3.9-.9.5-1.6s-1-.7-1.1-.6-3.5,1.6-4.3,3.7ZM348.2,145.6c.3-.5,1.4-.7.9-1.5s-2.5-.4-3.7-.4-2.6.3-3.9.4c1.1.8,2,1.9,3.6,1.2s2.1.3,3.2.2Zm9.4,10.7,8.5.5c1.3,0,1.8-.9,2.5-1.9-3.8,1-7.4.3-10.9.6A2.2,2.2,0,0,1,357.6,156.3ZM318,5.8c5,2.2,10.5,1.5,15.7,2a47.4,47.4,0,0,0-9.3-1.4c-2.2-.1-4.3-.4-6.5-.6ZM919,38.7c.6-.1,1.5.1,1.5-.6s.2-1.6-.9-1.9-1.7-.1-1.9.6-1.4,1.2-2.5.7a5.1,5.1,0,0,0-1.7-.7,1,1,0,0,0-1.2.4c-.3.5,0,.7.5.9s1.9,1.1,3.2.8ZM230.2,37a1.6,1.6,0,0,0-1.8-1.5c-1.8.6-3.7-.3-5.7.6a10.4,10.4,0,0,0,3,1.2c1.5.3,3.1.7,3.9,2.1h-.2A4.3,4.3,0,0,0,230.2,37ZM218.8,149.2l5.6,1c.7.2,1.4.1,1.6-.5s-.7-.9-1.4-1a17.9,17.9,0,0,1-4-.9,3,3,0,0,0-2.6-.2c-.3.1-.6.3-.6.6S218.2,149,218.8,149.2Zm82.1.6c-1.6-.7-.9,1.5-2.7,1.4a34.3,34.3,0,0,0-7,.6,3.5,3.5,0,0,0,3.1.5,9.4,9.4,0,0,1,4.4-.3,9.2,9.2,0,0,0,7-1.9C304.1,150,302.5,150.6,300.9,149.8Zm70.6-139a187.1,187.1,0,0,0,21.2,1.4C385.6,11.6,378.6,10.6,371.5,10.8ZM666.1,180.1c4.7.5,9.6.4,14.2,1.8a2.5,2.5,0,0,0,3-1c-2-.2-4,.1-5.4-.5-4.1-1.9-8.3-.7-12.4-.7Zm-289.6-11c-3.1.3-5.8-1.4-9-1.1s-6.5,1-9.7-.1a2.8,2.8,0,0,0-2.7,1.1C362.5,169.4,369.5,169.9,376.5,169.1ZM250.8,48.1l8.8.2c1.4-.1,3.1.2,4-.8s3.1-1.7,5.2-1.4a5.2,5.2,0,0,0,3-.4c2.2-1,4.7-.8,7.1-.7a26.1,26.1,0,0,0,3.9-.2,9.6,9.6,0,0,0-5.5-1.4c-5.3.5-10.5-.4-15.9.1a31.6,31.6,0,0,1-9.1-.7c-3.4-.7-6.4.3-9.7.5.5.8,1.3.5,1.8.8s1.3.2,1.3.9a25.3,25.3,0,0,0-8.2,2,5.4,5.4,0,0,1-2.2.5l-5.9.8c1.5.6,2.4,1.2,3.4,1.5,2.7.6,5.2-.2,7.7-.7.2,0,.5.1.7,0a.6.6,0,0,0,0-.6c-.9-1.3.3-1.2,1.3-1.4,2.7-.7,5.7-.3,8.3-1.2s6.1-.2,9.1.7a40.2,40.2,0,0,1-6,.3c-1.2.1-2.7-.1-3,1.3Zm29.9,108.4c.2-.1.5-.2.5-.3s-.1-.6-.5-.6-.6.1-.6.2S280.3,156.4,280.7,156.5Zm-.6.5-.6.7c-.1.3-.2.6.1.8h.7a.4.4,0,0,0,.1-.7c-.3-.2-.5-.4-.3-.8-2.1.4-4.4-.6-6.8.7C276.1,158.6,278,156.9,280.1,157Zm-35.2.3c-.5-2.3-2.9-2.9-5.1-2.9a28.8,28.8,0,0,1-9.4-2.2,11.1,11.1,0,0,0-2.5-.5c-.4-.1-.7-.3-.6-.7a.6.6,0,0,1,.8-.5c1.4.2,2.9-.4,4.1.3a3.8,3.8,0,0,0,3.6.5,1.9,1.9,0,0,1,1.8.2c1.3,1.2,3,1.2,4.6,1.6a22,22,0,0,0,10.5.5c1.1-.2,2.3-.1,3.4-.2s1.5.1,1.2,1,.6,1.7,1.9,1.5a11.7,11.7,0,0,1,3.8-.4c.6.1.7,0,.6-.7s.3-2.1,2.3-1.6,2.1.7,3.1-.3,1.2-.2,1.8-.1c4.8,1.2,9.5,2.3,14.6,2.2a11.9,11.9,0,0,1,5.7,1.8h0c-2.5.9-4.9-.9-7.7-.3l3,1.7h.1c-1.1,0-2.5-.4-3.1.6-2,3.1-5.4,2.5-8.7,2.4s-6-.9-9.1-1.4c-.8-.1-1.7-.4-2.5.5,2.1.6,4.3.7,6.4,2.3-10.5-1.3-20.2-2.9-29.5-5.8a7.5,7.5,0,0,1,4.9.7c1.9,0,3.8,1.1,6,.3C248.2,156.5,247,156.5,244.9,157.3ZM169,27.5a2.5,2.5,0,0,1,2.4.6c1.3,1.3,3,1.4,4.8,1.5s3,.6,4.6.7,4.4,2.1,7,2c5,0,9.8,1.1,14.8.8A59.1,59.1,0,0,1,211,33a6.3,6.3,0,0,0,5.7-1.8c.8-.9.6-1.6-.7-1.7s-4.6-.7-6.9-.8-2.2-1.5-3.9-1.1-4.5-.3-6.5-1.2a27,27,0,0,0-4.7-1.2c-4-.8-8.3-.5-12.2-1.6a16.8,16.8,0,0,0-4.5-.6c-4.4-.2-8,1.9-12.2,2.5-.2.1-.4.5-.7.8A5.8,5.8,0,0,0,169,27.5ZM351.1,164.7c.5-.1.7-.3.5-.6a1.5,1.5,0,0,0-.9-.4.5.5,0,0,0-.5.7A.8.8,0,0,0,351.1,164.7Zm-5.1.2a1.3,1.3,0,0,0,1.2.4c.4,0,.7-.3.6-.6s-.8-.5-1.2-.4S345.8,164.4,346,164.9Zm-5.2-1.6H346A4.1,4.1,0,0,0,340.8,163.3Zm-7.2,0a1,1,0,0,0-.7-1.6,3.6,3.6,0,0,0-2.9-.2c-2.1.5-3.4,2.3-5.8,2.2s-4.3-.5-6.4.2a7.5,7.5,0,0,1-4.2,0c-2.6-.5-5.1-1-7.9-.3s-1.2-1.4-1.9-2-2.2.9-3.4.9-2.4.3-3.5-1-4-.7-5.9-.2a17.9,17.9,0,0,1-5.1.4c0-1.3,2.3-.4,1.8-1.7s-1.8-.3-2.6-.6,1.6-.5,1.4-1.4h-.1c1.8,0,3,1.4,4.9,1.3s1.8.3,2.3-.6-.5-1.3-1.5-1.6a3.1,3.1,0,0,1-1-.5h0c2.6.2,5.2.1,7.8,1s4.4-.7,6.6-.4c-.2,1.8-.2,1.7,1.4,1.2s5.2-1.1,7.7-1.8a4,4,0,0,1,4.5,1.6c.6.7.9.6,1.5-.7s.2-.5.7-.4l2.2.5c.9.1,2.1-.2,2,.9s-.9,1-1.7,1a34.8,34.8,0,0,1-7.9,0c-.1,0-.2-.4-.3-.6h1.1a1.2,1.2,0,0,0,1.2-.6c.1-.4-.2-.6-.6-.7a1.1,1.1,0,0,0-1.2.5l-.4.8c-.7,1.1-2.8.5-3.3,2.1,1.8.9,3.5,1.5,5.6.4a6.7,6.7,0,0,1,4-.8,11.2,11.2,0,0,0,9.3-2.8c2.5,2.3,2.4,2.2,5.5.5a2.3,2.3,0,0,1,1.8-.2c1,.5-.3.6-.5.9s.1.9.6.8,4.1.1,5.9-.8a2.3,2.3,0,0,1,2.1-.4c1.5.5,2.8,1.4,4.5.6.9,2,3.3-.3,4.5,1l.7.2c2-2.2,4.1-.6,6,0s4.8-.4,6.9-1.2a5.4,5.4,0,0,1,5.1.1h-.1c-2.2.4-3.8,2.1-6.2,2.1s-7.3,1.2-11,.8c-2-.2-3.4.3-3.3,2.1s-1,1.6-2.2,1.6c-5.4,0-10.8-.2-16.1-.3a3.5,3.5,0,0,1-3.3-1.9c-.5-1.1.8-.7,1.4-.8s1.2,1.4,2.5.9.3-.4.2-.5A1.7,1.7,0,0,0,333.6,163.3Zm265.3,4.9.6.2c.5-.2,1.6-.2,1-.8S599.3,167.7,598.9,168.2ZM256.1,21.5c.1.1.1.4.3.5a.8.8,0,0,0,1-.2c.1-.2,0-.4-.3-.5A.9.9,0,0,0,256.1,21.5ZM611.7,167.4a1.1,1.1,0,0,0,1.2.5c.4-.1.6-.5.4-.7a1.5,1.5,0,0,0-1-.3C612,166.9,611.6,166.9,611.7,167.4ZM728.1,49.2c-.4.1-1.1.1-1.2.6s.5.3.9.3,1.1-.1,1-.7Zm197,8.4c.2.2.3.4.5.4s.8,0,.6-.5l-.6-.2C925.4,57.3,925.3,57.5,925.1,57.6ZM448.8,166.3c-.1-.2-.2-.5-.3-.5a.8.8,0,0,0-1,.3c-.3.3-.1.5.4.5ZM912.2,55.8c-.4.1-.8.1-.8.5s.4.3.6.3.8-.2.8-.4S912.5,55.8,912.2,55.8ZM468.9,91.1c.1.2.1.5.3.6s.7,0,1-.2.1-.4-.3-.5A1.2,1.2,0,0,0,468.9,91.1ZM564,56c-.4.1-.8.2-.7.6a.6.6,0,0,0,.8.3c.2-.1.5-.3.5-.4S564.4,56,564,56Zm-24.4,44.6.6.2c.2,0,.5-.1.5-.2s-.1-.3-.4-.3ZM479,92.8c-.1.2,0,.4.3.4s.7.2,1-.1a.9.9,0,0,0-.4-.5C479.6,92.4,479.3,92.5,479,92.8ZM412,39.1c.1.3.5.4.9.3s.5-.2.5-.3-.2-.5-.6-.5S412.1,38.7,412,39.1Zm111.8,9.3h-.6l.6.2h.6ZM575.9,54l-.7.3c-.2.4.2.6.5.7s.9,0,.9-.3S576.1,54.2,575.9,54Zm-235.3-.4c.1.2.1.4.2.5a.9.9,0,0,0,1-.2c.2-.3,0-.6-.4-.6A.6.6,0,0,0,340.6,53.6Zm75.6-.4a1,1,0,0,0,1.2.5c.1,0,.3-.3.3-.4a1,1,0,0,0-1.2-.5C416.4,52.8,416.3,53,416.2,53.2Zm-94.1-.1-.6-.2c-.2,0-.5.1-.5.3s.3.5.7.4A1,1,0,0,0,322.1,53.1ZM446.3,41.2c.2-.1.6-.1.6-.3s-.2-.5-.6-.5l-.6.2C445.5,41.1,445.9,41.1,446.3,41.2Zm75.3,47.7c-.4,0-.8,0-.8.4s.4.2.6.2.7.1.7-.3S521.8,89,521.6,88.9ZM882.3,49.3c-.1.3,0,.4.3.5a.7.7,0,0,0,.6-.3c.2-.2,0-.4-.3-.4ZM615.9,59.7c-.4,0-.7.2-.6.5s.3.3.5.3a.7.7,0,0,0,.7-.6C616.5,59.8,616.1,59.7,615.9,59.7Zm139.7-.4c-.3.3-.6.5-.7.8s.3.5.7.5.9,0,.7-.5S755.9,59.6,755.6,59.3Zm132.5,1.2h1.5c.4,0,.4-.3,0-.3h-1.1C888.1,60.2,888,60.3,888.1,60.5Zm-686,3.9c0,.4.3.6.7.6s.7-.2.7-.5-.2-.5-.6-.5S202.2,64.1,202.1,64.4Zm505.3,1.9c.4-.1.7-.3.5-.6s-.4-.3-.6-.4-.7.2-.6.6S707,66.3,707.4,66.3Zm-469.5,47-.7.2c-.2.3-.1.6.3.7l.7-.2C238.4,113.7,238.2,113.5,237.9,113.3Zm110,37c.5,0,.7-.2.5-.6l-.6-.3c-.4,0-.7.1-.7.5A.6.6,0,0,0,347.9,150.3Zm276.8,22.3.3.5c.3.1.5.1.6-.1a.5.5,0,0,0-.4-.7C625,172.3,624.9,172.5,624.7,172.6Zm38.6-1.3a.5.5,0,0,0,.4.7c.2.1.5,0,.5-.2l-.3-.5A.4.4,0,0,0,663.3,171.3ZM246.1,120.9c-.1.3-.1.4.2.5h.7l-.3-.4ZM610.2,75.1c.2-.1.6-.2.6-.3s-.2-.6-.6-.7-.8.1-.8.5A.8.8,0,0,0,610.2,75.1ZM369.9,147.7c.1.1.1.4.3.5a.6.6,0,0,0,.9-.2c.1-.1-.1-.4-.2-.5A.8.8,0,0,0,369.9,147.7ZM579.4,76.9c-.4.1-.8.2-.7.5s.5.3.9.4.4-.2.4-.4S579.9,76.9,579.4,76.9Zm-184,3.4c-.2.3.1.6.3.8a.6.6,0,0,0,.9-.1.8.8,0,0,0-.3-.8C396,79.9,395.7,80.1,395.4,80.3Zm30.8,8.1c-.6.1-1,.3-1,.8l.6.3c.6,0,1-.3,1-.8S426.4,88.5,426.2,88.4ZM374,42.8a.7.7,0,0,0,.6.7.8.8,0,0,0,.9-.3c.2-.4-.2-.5-.6-.6A.8.8,0,0,0,374,42.8ZM217.2,44a2.5,2.5,0,0,0,1.9.7c.3,0,.3-.2.1-.4S218.2,43.9,217.2,44Zm248.4,3.3h1c.4,0,.9-.1.7-.5s-.6-.3-1-.3S465.6,46.8,465.6,47.3Zm44.2,1.2a3.4,3.4,0,0,0,2.8-.1C511.4,48.5,510.9,48,509.8,48.5Zm16.8,2h1.1c.3,0,.5-.2.3-.4s-.6-.1-.9,0Zm-44.1,6.3c.4,0,.8,0,.8-.4s-.4-.2-.6-.2l-.6.3C482,56.7,482.2,56.8,482.5,56.8ZM671.3,58c.4-.1.7-.3.6-.6a1.1,1.1,0,0,0-.7-.3c-.3,0-.7.1-.7.5S670.9,58,671.3,58ZM529.2,166.8a.8.8,0,0,0,.8.5c.4,0,.7-.2.6-.6s-.4-.4-.7-.4S529.2,166.5,529.2,166.8Zm-74.5-.5a1.1,1.1,0,0,0,.9.5c.6-.1,1-.3.7-.8s-.6-.3-.9-.4A.7.7,0,0,0,454.7,166.3ZM590.3,61.6c0,.5,0,.9.8.9l.5-.4c.1-.5-.3-.8-.8-1S590.4,61.4,590.3,61.6Zm337.7,0a.8.8,0,0,0,1.5.3c.3-.4-.2-.4-.5-.5S928.2,61.3,928,61.6Zm-303.3.9c.1.3.5.4.8.4a1.5,1.5,0,0,0,1-.3c.3-.5-.3-.5-.6-.5A1.4,1.4,0,0,0,624.7,62.5Zm-409.8,52a1,1,0,0,0,1.1.7l.6-.3c.1-.5-.3-.8-.9-.8A.6.6,0,0,0,214.9,114.5ZM89.6,67.2c-.6.1-1.3.1-1.4.8s.3.5.8.4a1.3,1.3,0,0,0,1.2-.6C90.4,67.5,90,67.3,89.6,67.2ZM458,86.5c.1.4.4.5.8.4s.7-.1.7-.5-.3-.4-.7-.4A.8.8,0,0,0,458,86.5ZM256.9,68.9a.6.6,0,0,0,.6.6c.6.1,1.3.2,1.6-.4s-.2-.5-.6-.5S257.3,68.2,256.9,68.9Zm299.2-.6c-.3,0-.8,0-.8.4s.3.4.4.3,1-.1,1.1-.6ZM398,149.2c-.1.2-.9-.3-.6.3a1.3,1.3,0,0,0,1,.4.4.4,0,0,0,.6-.5C398.8,149.1,398.4,149.1,398,149.2ZM781.4,70.3c-.2.1-.7.1-.8.3s.1.6.5.6a1.5,1.5,0,0,0,.9-.4C782.4,70.5,782,70.3,781.4,70.3ZM664.3,174.2a.8.8,0,0,0,.7-.5c.1-.3-.2-.5-.6-.5s-.7.1-.8.4S663.8,174.2,664.3,174.2ZM386.1,147.6c.1.4.4.7.7.6a.9.9,0,0,0,.7-.6c.1-.3-.2-.6-.6-.5ZM619.5,86.2c-.3.1-.7.2-.7.6s.4.2.7.2.8-.1.8-.5S619.9,86.1,619.5,86.2ZM72.2,75.8c-.1.4.2.6.6.6s1-.1,1-.3-.3-.8-.8-.8A.8.8,0,0,0,72.2,75.8Zm364,89.1c.5-.1,1-.2.8-.7s-.3-.3-.5-.3-1.1.2-1.2.7S435.8,164.9,436.2,164.9ZM555.3,49.8c.6,0,.9-.2,1-.5s-.3-.5-.6-.5-1.1,0-1,.5S555.2,49.7,555.3,49.8ZM661,48.1c.6-.1,1.2-.2,1.1-.7s-.6-.3-.9-.3-1,.2-.9.7S660.8,48,661,48.1ZM645.7,61.6l-1,.7.9.4c.4,0,.8-.1.8-.4S646.3,61.7,645.7,61.6ZM206.3,64.2c-.5.1-1.2.1-1.2.5s.5.6.9.7,1.1-.1,1.2-.5S206.8,64.2,206.3,64.2Zm686-10.9c0-.3-.3-.5-.7-.5a1.7,1.7,0,0,0-1,.3c-.2.3.1.5.5.5S892,53.8,892.3,53.3Zm-792,14.2c1.2,0,1.9.3,2.4-.3a.5.5,0,0,0,0-.5C101.8,66.2,101.1,66.6,100.3,67.5ZM624.7,54.9c.1.2.2.5.4.5a1.4,1.4,0,0,0,1.4-.2s-.2-.4-.4-.4A1.7,1.7,0,0,0,624.7,54.9ZM846.8,69.7c.6.1,1,0,1-.4s-.3-.6-.7-.6-1.1.1-1,.6S846.6,69.7,846.8,69.7ZM472.7,84.4c.4,0,.8-.1.8-.4s-.5-.7-.9-.7-1.2,0-1.1.5S472.1,84.4,472.7,84.4Zm-8,7.3a1,1,0,0,0-1.3-.5c-.5.1-1.3-.1-1.3.7A2.9,2.9,0,0,0,464.7,91.7ZM877,59.7a1.9,1.9,0,0,0,2.2.1Zm-595-30c.5.1,1,0,1.1-.5s-.3-.5-.7-.5-1.2.2-1.3.4S281.5,29.7,282,29.7ZM141.1,41.9c-1.4.1-2.3-.2-3,.5s.1.4.3.5S140,42.9,141.1,41.9Zm236.6.9c.1.5.5.7,1,.8s1.3.4,1.4-.3-.5-.6-1-.7A1.7,1.7,0,0,0,377.7,42.8Zm61.9.5c3.2.5,3.2.5,2.9-.2Zm62.4.6,2.9-.4C503.9,43.1,502.9,42.9,502,43.9Zm118.7,3.8c1.2.5,2,.5,2.4-.2a1.1,1.1,0,0,0,0-.6C622.2,46.7,621.7,47.3,620.7,47.7ZM200.9,48.9c-.6.1-1.2,0-1.2.6s.6.3.9.3,1.1.2,1-.5S201.1,49,200.9,48.9Zm690.9.1c.8.4,1.5,1.2,2.8.7C894,48.7,893,48.7,891.8,49ZM564.3,53c-1.3-.4-2.1-.4-2.8.3A4.7,4.7,0,0,0,564.3,53ZM798.1,65.4c1.2.4,2,.9,2.8.2s.1-.6-.1-.7S799.2,65,798.1,65.4Zm-308,2c.4,0,.9,0,1-.3s-.3-.5-.7-.6-1.1,0-1.1.5S489.8,67.4,490.1,67.4Zm112.6-2.6c-1.9.8-3.8.7-1.8,2.9C600.8,66.4,602,66.2,602.7,64.8Zm243.7,1.3-1.6.4c-.5.1-1.1.5-.8.9s1,.2,1.4-.1S846.3,66.8,846.4,66.1Zm-261.1,3c-.2.4,0,.7.5.6a6.9,6.9,0,0,0,1.5-.7c.3-.2.1-.6-.3-.7A1.4,1.4,0,0,0,585.3,69.1ZM477.8,74.6c-.1-.2-.1-.5-.3-.5s-1.5-.8-1.7,0S476.8,74.9,477.8,74.6Zm53.7,26c.5-.4,1.7,1.1,2.8,0a.5.5,0,0,0-.1-.3C532.9,99.3,532.1,100.8,531.5,100.6ZM635,169.7c-.6-.5-1-1.3-2.1-.7s-.5.6-.4.7,1.4.1,2.2.1ZM521.9,49.9a8,8,0,0,0-4,.5C519.1,50.2,520.3,51.1,521.9,49.9ZM485.3,56c2.1.6,2.1.6,4,.1C488.1,55.8,487,55.3,485.3,56Zm318.1,9.2c1.6.7,3.2,1,4.8-.5ZM754,156.9a3,3,0,0,0-2.3.2c-.2.2.1.6.4.7S753.8,157.9,754,156.9ZM327,37.5c-1.3,0-2.3-.6-2.9.6s0,.4.2.5,1.6-.1,2.3-.4ZM758.6,83.4c0,.4.2.7.6.7a2.6,2.6,0,0,0,1.1-.7c.3-.2.1-.5-.3-.5S758.7,82.8,758.6,83.4ZM438,67.2c-1.8-.9-2.8-.1-3.8,0C435.3,67.3,436.4,67.8,438,67.2ZM110.1,105a3.3,3.3,0,0,0,2.8-.9c.1,0-.2-.5-.3-.5A2.7,2.7,0,0,0,110.1,105ZM648.5,81.8c1.6.6,2.9.1,4.4-.1A6.1,6.1,0,0,0,648.5,81.8ZM598.2,60,594,61C595.4,61.2,596.9,61.8,598.2,60Zm136-8.2c.2.3.2.4.3.4a2.4,2.4,0,0,0,2.2.1c.1-.1.3-.5.2-.6s-1.1-.3-1.8-.2ZM571,52.3a5.6,5.6,0,0,0-3.8.7C568.2,52.9,569.3,53.4,571,52.3ZM397.6,42.1a1.1,1.1,0,0,0,1.2.9c.6,0,1.1-.1,1-.7s-.3-1-1.1-1A1.1,1.1,0,0,0,397.6,42.1Zm478.2,9.3c1.6-.1,2.3-.5,2.2-1.5s-.4-.2-.6-.2S876.2,50.5,875.8,51.4Zm-237.1,8c1.5,0,2.6.6,3.7-.2s.2-.5,0-.6-2,.1-3.1.1S639.2,58.9,638.7,59.4ZM329.9,148.6c1.1.3,2.2,1.1,3.9.7A3.8,3.8,0,0,0,329.9,148.6Zm-102.3-32-.6-.3a2.5,2.5,0,0,0-2.1.4c-.1.1-.1.5.1.5s1.1.1,1.7-.1Zm46.1.3c-1.3-.4-2.5-1-4.3,0C271.1,117.1,272.4,117.4,273.7,116.9ZM372,46.7c1,.9,2,.8,3.3.6A2.5,2.5,0,0,0,372,46.7Zm347.7,2.6a4.6,4.6,0,0,0,3.6-.4C721.7,48.1,720.7,48.9,719.7,49.3ZM491.3,160.2c-1.9-.4-3.1-.8-4.4.1C488.3,161.4,489.4,160.8,491.3,160.2ZM836.2,49.4c1.6.9,2.6.9,3.5-.3A4.3,4.3,0,0,0,836.2,49.4ZM611.1,72.5a2.3,2.3,0,0,0,2.8.5c.2-.1.2-.7.1-.8s-1.7.1-2.5,0ZM294.9,31.8c0,.5.3.6.7.6a1.5,1.5,0,0,0,1.8-1.2c.1-.3-.3-.5-.7-.5A1.8,1.8,0,0,0,294.9,31.8Zm-45.4,3.3a3.2,3.2,0,0,0-3.7.1A4.3,4.3,0,0,0,249.5,35.1ZM427.7,67.2l1.7.4c.5.1,1.1,0,1.2-.4s-.6-.7-1.2-.7S428.2,66.3,427.7,67.2ZM400.1,38.7a.9.9,0,0,0,.9,1.1c.6.1,1.1,0,1.1-.5s-.3-.8-.8-1A1.1,1.1,0,0,0,400.1,38.7Zm63,4.6a6.7,6.7,0,0,0,3.7.6A4.6,4.6,0,0,0,463.1,43.3Zm353.4,6.4a2.9,2.9,0,0,0-3.5.6A3,3,0,0,0,816.5,49.7ZM351.7,47c-1.4-1.1-2.8-.4-4.3-.3A7.8,7.8,0,0,0,351.7,47ZM570.3,67c.5-.1.5-.3.1-.4h-.3c-1.4,0-2.8-.3-4.2.8ZM213.6,71.7c-1.5-.6-2.6-1.1-4.3-.1A10.4,10.4,0,0,0,213.6,71.7ZM517.7,89.2c-1.1.2-2.5.1-2.3,1.5s.6.6.8.5S517.4,90.1,517.7,89.2ZM604.1,164c1.2.1,2.2,1.2,3.6,0C606.5,164.3,605.4,162.6,604.1,164Zm15.5-79.3c1.1-.1,2.3,1.1,3.3,0s.1-.2,0-.3S620.7,84.2,619.6,84.7ZM245,68.7a7.6,7.6,0,0,0-4.8-.6C241.5,69,242.9,69,245,68.7ZM595.1,147c-.7-.7-.8-1.7-2.2-1.4s-1,.6-.8,1S593.8,147.2,595.1,147ZM619.2,47c-1.7.2-2.8-.4-3.7.5s-.2.4.1.5A3.2,3.2,0,0,0,619.2,47ZM608.3,60.4c-1.3-.2-2.5-.8-3.8.1C606,62.2,607.1,60.6,608.3,60.4ZM235.2,117.8c-2.3-1.6-2.3-1.6-4.3-1Zm359.7,42.1a5,5,0,0,0,4,.6A4.3,4.3,0,0,0,594.9,159.9Zm64.2-97.6c-1.2.1-2.5-.3-4,.2C657.3,63.2,657.3,63.2,659.1,62.3ZM486.9,57.7l-2.2.9a16.8,16.8,0,0,0,2.4.7c.8.2,1-.4,1-.9S487.5,57.7,486.9,57.7Zm32.2-9.2-2-.3c-.8-.1-1.9-1-2.2.2s1.3.7,2,.8A1.6,1.6,0,0,0,519.1,48.5Zm154.3,9.3c.2.6.8.7,1.4.7s1.5-.1,1.3-.8a1,1,0,0,0-1.5-.9A1.3,1.3,0,0,0,673.4,57.8ZM335.7,148.6c1.3,1.3,2.8,1.5,4.6.3C338.6,148,337.1,148.9,335.7,148.6ZM252.1,68.3c.1-.6-.6-.9-1-1.2s-1.5-.5-1.9.2.2,1,.8,1.2S251.5,69,252.1,68.3ZM814.2,53.7h2.7c.7,0,.8-.4.6-.8s-.6-1-1.3-.6A18.6,18.6,0,0,0,814.2,53.7Zm-405.3-.8-3.1-.5c-.5-.1-1-.3-1.2.2a.7.7,0,0,0,.1.6.9.9,0,0,0,1.3.2A13.5,13.5,0,0,1,408.9,52.9Zm61.1-7c.6.5,1.1,1.2,2.1,1.1s1-.4.8-.8-1.2-1-2.1-.9A.8.8,0,0,0,470,45.9ZM316.6,58.2c1.4.8,2.3,1.5,3.7.8a.6.6,0,0,0,.1-.6C319.6,57.3,318.4,57.6,316.6,58.2Zm507.3-1.5c-1.3-.6-2.2.3-3.1.6s-1.1.7-.5,1.2a.9.9,0,0,0,1.3-.2C822.1,57.5,823.2,57.4,823.9,56.7ZM567.1,55.1c3.3.7,3.3.7,4.4-.6A13,13,0,0,0,567.1,55.1Zm336.4-9.4a4.9,4.9,0,0,0,5.5-.6C906.9,45.3,905.6,45,903.5,45.7ZM712.6,66.5a6.8,6.8,0,0,0,5.7-.5C716.4,66.5,714.5,66.3,712.6,66.5Zm212.6.2c.1.7.7,1,1.1,1.3s1.1,1.1,1.9.5-.1-1.1-.6-1.5A2.4,2.4,0,0,0,925.2,66.7Zm-310.6-.8c-.1.6.2.8.8.9s1.8.4,2.1-.5-.4-.9-1.1-1S614.9,65.3,614.6,65.9Zm29.3-6.4c0,.5.3.8.6.7s2.1-.1,2.3-1.2-.4-.7-.6-.7A2.5,2.5,0,0,0,643.9,59.5Zm41.9-1.2c-1.4,0-2.9-.2-3.9.9s.1.5.2.5C684,60.3,684.7,59.1,685.8,58.3Zm-130,108.3c-2.7-.7-2.9-.7-5.7.3C552.4,167.9,554,166.6,555.8,166.6ZM253.6,23.8c1.9.9,3.4,1,4.9,1.7-1.4-.9,1.1-1.2.1-2C257.3,24.3,255.9,23.3,253.6,23.8ZM716.1,51c1.9,2,3.6,0,5.2.3a1.2,1.2,0,0,0,.2-.5.8.8,0,0,0-.9-.4Zm-215,108.6a12.2,12.2,0,0,0-4.5-.3c-.3,0-.7,0-.8.4s.3.8.8,1S499.1,160.3,501.1,159.6ZM229,67.3a4.9,4.9,0,0,0-4.3-.6c-.4.2-.9.5-.7,1s.6.6,1.2.5ZM388.1,47.4c-3.4-1.8-3.4-1.8-4.5,0Zm-59.3,9,1.1.2c1,.2,1.6,1.6,2.9.5s.2-.4.2-.5-2.1-1.1-3.4-.9S328.8,55.9,328.8,56.4Zm112.3.3c1.9,1.1,3.7.5,6,.1C444.8,55.8,443,56.8,441.1,56.7Zm221.7-.1a6.8,6.8,0,0,0-3.8.5.8.8,0,0,0-.4,1.1.8.8,0,0,0,1.2.2C660.6,57.7,662.1,58,662.8,56.6Zm170.3,1.8c1.4-.2,2.1-.8,3-.8s2,.4,2.8-.4C836.5,56.4,835.6,56.5,833.1,58.4ZM163.1,113v-.8c-1.4,0-2.5-.7-3.9-.9a1.1,1.1,0,0,0-1.1.7.4.4,0,0,0,.4.6ZM809.7,76.3c-1.7-.4-3-1.1-4.4-.3C807.4,77.5,807.4,77.5,809.7,76.3ZM588.1,43.9c0,.1-.1.2-.1.3s2.5.1,3.7.3,2.3.8,3.4-.6Zm283.3,1c3.3,1,3.3,1,5.1-1.4ZM488.8,52.2v.6c1.7.3,3.4,1.2,5.3-.6ZM826.6,58c2.2.3,3.4.5,4.6-.2s1.1-.6.6-1.2a1.1,1.1,0,0,0-1.3-.4C829.4,56.6,828.5,57.1,826.6,58Zm-660-13.5-1.3-.3c-.5,0-1,.2-1,.7s.6.6,1.1.6a11.2,11.2,0,0,1,4.1-.2c.4.1,1-.3.8-.8s-.6-.4-.9-.5S167.6,44.9,166.6,44.5ZM647.4,173.7c-1.2-1-2.6-.5-3.9-.5s-2.8-1.3-4,.4C642.2,173.7,644.8,173.5,647.4,173.7Zm-62-101.5c-.9.2-2.4-.4-2.6.8s1.1.9,1.9,1,2.1-.1,2.1-1.2S586,72.2,585.4,72.2Zm-53,19.3c.7.3,1.6-.1,2.2.6s1.4.4,1.8-.1.1-1.4-.9-1.7A2.5,2.5,0,0,0,532.4,91.5ZM325.2,30.9c3.3,1.7,3.9,1.7,6,.5C329.3,30.2,327.2,31.2,325.2,30.9Zm352,51.4c-.5.1-1.8-.4-1.9.5s1.1.8,2,.9h1.8c.4-.1.7-.3.6-.7s-.3-.5-.7-.5ZM328.1,42.5l.7-.2c-.9-1.1.7-1.7.8-2.5s-.3-.6-.6-.7-1.4.3-2,.6-.5,1.2-.3,1.9A1.6,1.6,0,0,0,328.1,42.5Zm75.5,122.1c1.9,1.8,1.9,1.8,4.6-.3C406.7,163.4,405.3,164.1,403.6,164.6Zm-28-22c3.8,1,3.8,1,5.5-1.6C379.1,141.4,377.5,141.5,375.6,142.6Zm158.9,15.3c-3.5-.6-3.5-.6-6.1.7C530.7,159.5,532.6,158.8,534.5,157.9ZM294,146.8c2.1.3,3.8.9,4.9-.9s.4-.6.1-.8l-1-.4C297,145.7,294.9,145.2,294,146.8Zm394.8,27.3a10.9,10.9,0,0,0-3.7-2.6,1.2,1.2,0,0,0-1.6.4c-.3.3-.9.6-.6,1.1a1.1,1.1,0,0,0,1.6.2C686,172.5,686.8,173.8,688.8,174.1ZM578.6,160.8c.1.9,1.2.9,2.2.8s1.3-.4,1.1-1.2-.6-1.6-1.9-1.4S578.5,159.7,578.6,160.8ZM199,106.9h1.1c.6,0,1.1-.1,1.1-.6s-.7-1.1-1.4-1.2-2.1-.6-3,.1-.2.8.1,1.1l1,.5A2.6,2.6,0,0,0,199,106.9Zm114.5,39.7c-2.4-.8-4.6-2.1-7.9-1.5C308.1,146.6,310.9,146.5,313.5,146.6ZM169.8,99.1c-1.2,0-2.4.1-3,1.1s0,.4.1.5,2,.5,3.1.1,1.7-.2,1.6-1S170.5,99.2,169.8,99.1ZM879.4,55.5c-2-.9-3,.5-4.5.4s-1.9.1-2.8,2.2ZM305.7,31.7c-2.1-.5-4.3-1.2-7.2-.7C301.2,32.5,303.5,32.1,305.7,31.7Zm59.1,3.9c1.7.9,3.2-.2,4.7-.3a1.6,1.6,0,0,0,.5-.8c.1-.4-.3-.8-.8-.8S365.4,33.7,364.8,35.6Zm-37.1,113c-2.7-2.3-4.7-2.5-7.3-1.2C322.5,149,325,148,327.7,148.6Zm309,25c-2.2-1.4-4.5-1.3-6.7-1.6s-1.1.4-1.2,1,.6.8,1.2.8ZM794.6,69.1c1.7,3.3,2.5,3.9,7,4.5C799.8,71.5,797.4,70.3,794.6,69.1ZM410.2,143.7H409c-1.1.3-1.6,1.1-1.3,1.9s1.3.9,2.2.5,1.5-.4,2.1-.7.9-.5.8-1a1.5,1.5,0,0,0-1.2-.7ZM445.1,166l.7-.7c.6-1.9-1.5-1.6-2.6-1.9s-2.8-.7-3.8.5-.1.7,0,.9a1,1,0,0,0,1.3.4C442.6,163.6,444,164.6,445.1,166ZM323.3,31c-4.2-.9-8.3-.4-12.5-.2A37.5,37.5,0,0,0,323.3,31ZM629.9,52c5,.8,8,.5,10.2-.8C636.4,51.6,633.1,50.8,629.9,52ZM208.8,113.6l.5.7a12.9,12.9,0,0,1,8.1-1.5c-.4-.7-.4-1.2-.8-1.4a7.6,7.6,0,0,0-3.9-.3C211.3,111.4,210.1,112.7,208.8,113.6Zm342,48c-1.4-1.5-3.1-1.5-3.9-2.5s-2-.5-2.8.1-1.7.8-1.7,1.8A67.5,67.5,0,0,1,550.8,161.6ZM474.3,86.4l-1.2.2a1.2,1.2,0,0,0-1.1,1.1c.1.7.8.9,1.4.8a18.8,18.8,0,0,1,3.4.2c.7,0,1.4,0,1.6-.7s-.5-.9-1.1-1.1ZM630,55c3.5,2,6.7-.1,9.7.8a1.2,1.2,0,0,0,.5-.8c0-.3-.4-.5-.8-.5C636.4,54.5,633.4,54.1,630,55ZM618.2,171h9.6C625.1,168.9,623.2,168.9,618.2,171ZM850,58.2c-1.8.1-3.6.1-5.4.3s-1.4.7-.8,1.5a2.1,2.1,0,0,0,3.1.5A35.5,35.5,0,0,1,850,58.2ZM619.1,74.8c1.5-.1,2.7.6,4.1,1a2.2,2.2,0,0,0,1.4.3,1.5,1.5,0,0,0,1.6-1c.1-.8-.5-1.1-1.5-1s-2.2.4-2.4-.4-1.2-.6-1.7,0S619.3,73.9,619.1,74.8ZM530.5,50.2c2.6,1.2,6.7.4,10.6-1.8C537.1,47.2,534.4,49.9,530.5,50.2Zm366.9-1.1c3.2,2,6.1.7,8.9.9.6.1.9-.6.3-1.1a2.9,2.9,0,0,0-2.4-.6ZM672.8,170.9l-4.5-.3a1.9,1.9,0,0,0-2.1,1c-.5.9.3,1.6,1,2.1s1.4.1,2.1-.3A35.3,35.3,0,0,1,672.8,170.9Zm-23.7-105a24,24,0,0,0,9.2.8,2.1,2.1,0,0,0,1.6-2.1C656.4,66.3,652.6,64.7,649.1,65.9Zm64.2-7.2c3.5,1.3,6.1.5,8.7-.7a.8.8,0,0,0,.6-1c-.1-.6-.8-.5-1.2-.5A28,28,0,0,0,713.3,58.7ZM422.2,46.1c1.2,1.4,3.7.6,4.8,1.6s3.2.3,4.7,0,.9-.4.9-.9a1,1,0,0,0-1.1-.7C428.5,46,425.4,46.1,422.2,46.1ZM396,144c-.3,1.2.6,1.4,1.6,1.3s3.1-1.1,4.7-.1a1.2,1.2,0,0,0,1.9-.3c.2-.9.3-2.2-1.1-2.3s-4.7.8-7,1.3ZM542.7,94.1c-1.5-.7-1.7,1.5-3.2.8s-1.6.1-1.6.8a1.3,1.3,0,0,0,1.7.9c1.6-.3,2.9-.5,4,.8s1.2.9,1.9.2,1.1-1,.5-1.8S544.4,93.9,542.7,94.1Zm73,78.6c-1.9-1-3-2-4.9-1.6a18.2,18.2,0,0,1-5.7,0c-.9-.1-2-.5-3,.7C606.5,171.9,610.4,174.4,615.7,172.7ZM447.5,52.8c3,1.2,9.3,1.4,12.7.7A23.1,23.1,0,0,0,447.5,52.8ZM553.8,80a7.9,7.9,0,0,0-5.1.7,4.1,4.1,0,0,1-4,.5c-2-.9-3.2-.1-4.2,1.3C545.2,82.8,549.8,82.4,553.8,80ZM411.9,46c2.1.1,3.4,1.4,5,2.2a3.9,3.9,0,0,0,3,.1,1.5,1.5,0,0,0,.6-1.7c-.3-1-1.2-1.3-2.3-1.4S413.9,44.8,411.9,46Zm165,6.9a33.1,33.1,0,0,1,5.5.8c1.9.5,3.8-.2,5.6-.2a.8.8,0,0,0,1-.8c0-.5-.5-.7-1-.7C584.2,51.8,580.5,51.6,576.9,52.9Zm342.8-2.8c-3.2-2.2-5.3-2.5-7.8-1-.7.4-1.1,1-.3,1.6S917.5,51.5,919.7,50.1ZM213.3,64.5h-1.1c-.9-.2-1.9-.5-2.3.5s1.2.7,1.7,1.1a2.7,2.7,0,0,0,3.1.4,1.4,1.4,0,0,1,1.7.3c1.7,1.5,3.9.2,5.8.6a.5.5,0,0,0,.6-.6c-.1-.4-.5-.5-.9-.4s-2.5,1-3.3-.1S215.4,64.5,213.3,64.5ZM491.7,63a2.7,2.7,0,0,0-2.1-1.3c-3.6-.6-7,.3-10.5.9-.5.1-.8.5-.5,1a1.1,1.1,0,0,0,1.3.5,13.3,13.3,0,0,1,5.6-.6A14.5,14.5,0,0,0,491.7,63Zm25-9c-.8-.7-2,.1-2.4-.3-2.4-2.1-5-.4-7.5-.3-.9,0-1.6.4-1.4,1.1a1.4,1.4,0,0,0,1.7,1C510.3,55,513.7,55.6,516.7,54ZM315.3,58.3c-2.3,0-2.1-3.2-4.9-2.4s-4.4.1-6.9,1.2A28.5,28.5,0,0,0,315.3,58.3ZM299,39.2c2.3,3.4,5.9,3.4,9.6,3.1.7,0,1.7-.1,1.6-.9s-.5-1.8-1.5-1.6C305.4,40.6,302.6,38.7,299,39.2Zm519.6,16c-6.1,0-12.7,1.3-15,3H806c2.7,0,5.5-1.3,8.2.2.2.1.9,0,1-.2S817.6,56.4,818.6,55.2Zm-6.4,4.3c-3,1.1-6.4-1-9.7,1.2,2.4-.6,2.3.8,2.5,1.6s.4,1.7,1.7,1.2a8.8,8.8,0,0,1,2.7-1C811.3,62.2,811.9,61,812.2,59.5ZM249.3,117.4c1.1-.3,2.4,0,2.7-1.1s-.1-1.9-1.6-2.1-2-.5-3-.7-2.7-.7-4,.1-1.4,1.2-.3,1.7S247.3,116.7,249.3,117.4Zm441.1-68c-.4.3-1.1.6-1.1.8s-1.4,1.4-2.3,2a17,17,0,0,1-1.4,1c-1.2.4-.4,1,.1,1.3a1.7,1.7,0,0,0,2.4-.2c1.5-1.5,3.7-1.8,5.7-2.4s3.2-.4,2.6-1.8-2.3-.6-3.3.1-1.4.6-1.8-.4S690.9,49.4,690.4,49.4ZM596.2,72c-1.8,0-3,0-3.9.8s-.4,1.7.5,1.6c2.5-.2,5.1.7,7.6.1.9-.2,1.9-.2,2.4-.9s1.4-1.3.4-1.8-2.1-1.3-2.8,0-1.4.8-2.2.5Zm311.9-7.7c-1.3-.9-2.7-1.5-4-.6a12,12,0,0,1-4.2,1.2l-7.8,2.3c2.3,1.5,4.4,1.9,5.2.9s4.1-2,6.6-2.3S907,65.9,908.1,64.3ZM534.5,165.7c-.1.1-1.7-1-1.7.4s1.6.6,2.4.9c2.8.9,6-.5,8.6,1s1.8.5,2.5-.4a1.6,1.6,0,0,0-1.1-2.4c-1.7-.2-3.7-2-5.4.3-.4.7-1.4.3-2.1.2S536.1,164.9,534.5,165.7ZM429.7,63.8c1.6.1,3,.6,4.5.3,3-.7,5.8-2.4,9.2-1,.4.2,1.3,0,1.3-.7a.9.9,0,0,0-.9-.8,31.9,31.9,0,0,0-5.3-.6c-1.8.2-3.9.5-5.3-1a.9.9,0,0,0-1.1,0,.6.6,0,0,0,0,1c1.4,1.1.9,1.6-.6,1.9A3.1,3.1,0,0,0,429.7,63.8Zm387.9,9.7c3.1-1.6,7.3-1.1,10.2-3.5-4.5.1-9-1-13.6.6C816.7,70.6,815.9,72.8,817.6,73.5ZM510,59.7c-.4-.9-.8-.8-1.1-.9-3.7-.6-7.4.2-11.1,0a56.2,56.2,0,0,0-5.8.2c-1,.1-1.5.6-1.4,1.2s.9.6,1.5.7a2.5,2.5,0,0,0,1.5-.1,8.2,8.2,0,0,1,4.9,0,5.9,5.9,0,0,0,2.3,0C503.8,60.5,506.6,59.4,510,59.7ZM344.4,37.6c0,.5.4.8.9.9a52.4,52.4,0,0,0,18.1.8c.6-.1,1.3-.4,1.3-1s-.9-.7-1.5-.7c-2.6.1-5.2,0-7.7.2A81.1,81.1,0,0,1,344.4,37.6Zm116.8,6.5a4.7,4.7,0,0,0-3.1-.9,2.3,2.3,0,0,1-1.6-.8c-1.3-1.8-1.4-1.7-2.5-1.8s-3.1,1-4.5,1.6-1.2,1.1.2,1.6C453.3,45.4,456.9,44.7,461.2,44.1Zm21.1,9.7a104,104,0,0,1,12.6,2.5,4.3,4.3,0,0,0,1.6,0,15.1,15.1,0,0,1,6.7-.8.5.5,0,0,0,.7-.6,1.9,1.9,0,0,0-.6-.7c-.5-.5-1.2-.3-1.8-.3l-8,.4c-2.5.1-5.1.3-7.3-1.1S483.5,52.9,482.3,53.8Zm31.7,26c7.8,1.9,15.6.6,23.4.7-.6-1.3-1.4-1.4-2.6-1.3a80.6,80.6,0,0,1-11,.1C520.6,79.1,517.2,78.5,514,79.8ZM386.6,51.9c8.2,3.5,12.9,3.3,16.7-.5-1.7.2-3.1.4-4.3-.5a2,2,0,0,0-2.1.2c-2.2,1.5-4.7.8-7,.6S387.9,51.1,386.6,51.9ZM522.4,74.4a5.1,5.1,0,0,0,5,.7c.8-.3,1.6-.5,2,.2s2.7,1.5,4.3.4.8-.6,1.3-.3,2.8-.5,4.2-.3,1-.3.9-.9a1.1,1.1,0,0,0-.9-.9,15.5,15.5,0,0,0-3.7-.4ZM559.1,46c-5.6-1.7-10.9,1.1-16.3-.3,0,.7-.1.9,0,1.1s-1.2,1.9.7,2.3a1.9,1.9,0,0,0,2.5-1.3.7.7,0,0,1,1.2,0c.8,1.8,2.4,1,3.8.8s3.9-1,6-.8S558.6,47,559.1,46ZM474,43.4c3,1.3,5.9,2,9,1.1a3.9,3.9,0,0,1,2.6.3c4.1,1.8,8.3-.4,12.4.1.3,0,.9-.1.9-.5a1,1,0,0,0-.4-.8c-1.5-.7-3-1.5-4.6-1.3s-3.3-.5-3.9,1.3-.5.7-1,.1-1.9-.5-2.8-.4a24.2,24.2,0,0,1-7.1-.3C477.6,42.8,475.8,42,474,43.4Zm134.6,49c-6.1-.8-12.2-.1-18.8.6,2.1,1.7,4.5,1.4,6.1,2.4a4.2,4.2,0,0,0,3.6.3,47.1,47.1,0,0,1,7.6-2C607.7,93.5,608.6,93.3,608.6,92.4ZM502.5,159.6a7.1,7.1,0,0,0,4.2,1c2.5-.4,5.1.4,7.6.1s4.9-.1,7.4-.2,2.9.7,3.4-.6-1.9-1-2.6-1.8a1.5,1.5,0,0,0-1.3-.5c-2.7.4-5.6-.2-8.2.5a10.2,10.2,0,0,1-3.5.4C507.3,158.2,505.3,158.8,502.5,159.6ZM804.6,77.7c-1.4-2.2-3.1-2.3-4.7-2.3a37.6,37.6,0,0,0-15.3,3c-.6.3-1.3.4-1.3,1s1.1.6,1.7.7c3.9.3,7.4-1.4,11.1-1.8a.7.7,0,0,0,.5-.4c-.4-.8.1-.9.8-.7C799.6,78,801.7,77.1,804.6,77.7ZM680.8,53.8a9.4,9.4,0,0,0-7.7-.3c-.8.2-1.6.6-2.1-.1s.8-.9,1.3-1.3.5-.4.3-.7-.9-.3-1.4-.4c-3.7-.5-7.4.5-11,0-2-.2-3.5,0-4,1.6s-2.1.4-1.8,1.8c2.7-.2,5.1.5,7.9-.4a12.1,12.1,0,0,1,6.8-.2C673.1,55.1,676.9,53.4,680.8,53.8ZM493.1,167.7c3.8.5,7.6,1.3,11.3-.2a8.1,8.1,0,0,1,1.5.1l15.8-.4a20,20,0,0,0-11.2-2.7,32.8,32.8,0,0,1-7,.1c-.9-.2-2.1-.2-2.1.7s-1.9,1.5-2.3,1.4C496.7,165.9,495.2,167.7,493.1,167.7ZM827.9,68c3.4-.7,6.7,1,10.2-.1s3.6-1.8,5.8-2.2,2.3-.9,1.9-2-1.9-1.4-3.2-1.5a19.1,19.1,0,0,0-3.3.6c-1,.1-2.2.6-3,.4s-4.3.1-6.3.6c-.2.1-.3.3-.4.4s1.9,0,1.8.6-1.6,0-1.9,1,1.8.2,2.3,1.1Zm-363,12.5c-2.2-2-4.5-2.1-7-1.4a5.6,5.6,0,0,1-4.4-.1,10.6,10.6,0,0,0-5.3-.6,78,78,0,0,1-14.5.1c-3.1-.2-6.3.3-9.2-.2-4.8-.9-9.6-1.1-14.4-1.7-.4-.1-1-.2-1,.6,4.1.6,8.1,1.4,12.3,1.6s8.4.4,12.4,1.6a2.8,2.8,0,0,0,2.2-.1,6.1,6.1,0,0,1,3-.2c4.4.1,8.9,1.1,13.3-.1a.9.9,0,0,1,.7.1C456.8,81.9,460.6,81.2,464.9,80.5ZM346.5,53.6c2.3,1,4,1.2,5.8-.2a4.2,4.2,0,0,1,3.2-.7c4.9.2,9.7.3,14.5.8.8.1,1.5.3,2.1-.3s0-.2-.1-.2c-5.8-1.3-12.2-.2-17.7-2.8-.3-.2-1,0-1.5.2-2.4.8-5,.5-7.5.3-4.1-.2-8.2-.7-12.3-.5a5.2,5.2,0,0,0-4,1.7,1.1,1.1,0,0,0,1.2.3,4.9,4.9,0,0,1,3.9.2,5.4,5.4,0,0,0,2.1.5c2.2-.6,4.3-.2,6.5-.3,2.2,2.8,3.3-1.3,5.3-.6h1.1a.4.4,0,0,1,.4.4C348.8,53.4,347.5,53,346.5,53.6Zm477.2,1.6a5,5,0,0,0,2.9,1.2c1.1,0,.8-1.2,1.3-1.7a5.1,5.1,0,0,1,4.1-1.5c3.8-.1,7.6.4,11.4-.5a4.5,4.5,0,0,1,2.3.2c1.4.5,2.5,1.2,3.9-.2a2.4,2.4,0,0,1,3,.5c.8,1.5,1.8,1.2,3.1.8a17.9,17.9,0,0,1,4-.9c.7,0,1.4-.1,1.4-.8s1.5-1.6,2.6-2a12.5,12.5,0,0,1,9.5-.4c-.5-1.9-1.3-2.4-3.4-1.9-3.9.8-8,.5-12,1a69.6,69.6,0,0,1-9.2.3,5.6,5.6,0,0,0-2.9.5c-3.4,2.1-7.4,1.6-11,1.5-2-.1-3.8-.3-5.5.4a13.5,13.5,0,0,1-6.3,1,3.9,3.9,0,0,0-2.6.2c-.4.3-.6.7-.3,1.1a.8.8,0,0,0,1.1.1c1.4-1.5,3.1-.6,4.7-.7C825.9,54.9,824,54.2,823.7,55.2ZM119,98.6a20,20,0,0,0-5.1.3c-.5.1-1.1.1-1.1.7a1.2,1.2,0,0,0,.8,1.3,3.2,3.2,0,0,0,2.2.3,5.5,5.5,0,0,1,4.7.5c.8.5,1.5,0,2,.1s3.8-1.2,5.3.2,2.6,2.2,4.6,1a41.4,41.4,0,0,0,10.5,2.6l.3.3a2.1,2.1,0,0,0,1.7.5c3.3-.4,6.6.5,9.9-.4a12.7,12.7,0,0,1,3.9-.1c2.1.1,2.6.7,1.9,2.5-.1.2-1,.2-.6.4a12.6,12.6,0,0,0,2.6,1.3c.8.3,1.2-.2,1.6-.5a12.8,12.8,0,0,1,9.8-1.4,3.8,3.8,0,0,0,1.5.1l.9-.5c.2-.4-.1-.6-.5-.8a46.7,46.7,0,0,0-5-1.4,5.2,5.2,0,0,0-3.8.7c-1.5.8-1.7-1.9-3.7-1.5s-4.6-1.1-7-1.4a26.9,26.9,0,0,0-5.6-.4,30.4,30.4,0,0,1-4.4-.3c-1.7-.3-3.5-1.5-5-.7a3.3,3.3,0,0,1-4.3-.8,7.2,7.2,0,0,0-7-2.3c-3.9.8-7.3-.1-10.8-.4Zm446-3.7a26.3,26.3,0,0,1-5.7-.5c-2.8-.8-4.8.1-6.7,1.8a3.3,3.3,0,0,0-3.8-1.6c-.5.1-1.1.1-1.2.6a1,1,0,0,0,1,1.2,10.5,10.5,0,0,1,4.4.8c2.5,1.2,5,.5,7-.3a37.5,37.5,0,0,0,5-2.1c0,.5-.3,1.1.4,1.4s2.3.4,2.5-.2,1.3-.7,2.4-.5a12.1,12.1,0,0,0,4.1-.5,6.1,6.1,0,0,1,3.3-.2c2.2.6,2.6.3,3.1-1.6a2.9,2.9,0,0,0,.2-.9c.2-1,1.2-1.1,2.1-.9s.4.8.3,1.2.7,1.9,2.1,1.8,1.9-.1,2.2-1.3-2,.3-2.2-.6.9-1.1,1.8-1.3a9.7,9.7,0,0,1,3.4-.6,25.1,25.1,0,0,0,6.7-.8,13.9,13.9,0,0,1,6.4-.5c.8.1,1.9.2,2.2-.4s1.7-.8,2.9-.8,4.1-1.5,4.3-3.1-2.2-1.4-3.3-2.1-1.5,0-2.2,0-3.6.7-5.3.2-3.8.3-5.7.2.2,1.8-1.6,1.2a19.5,19.5,0,0,0-3.4-.3c.2-2.4-1.2-3.6-2.5-2.5s-5.9-.3-8.1,1.6a.9.9,0,0,1-.9-.4c-.7-1.2-2-1.1-3.3-1.2a86.8,86.8,0,0,0-10.2-.2c-1.2,0-2.4-.4-3.4.2s-3.9.8-6,.7-4.7-1-5.5,1.8c-.1.5-1,.6-1.6.7a13.5,13.5,0,0,1-4.9.2,6.6,6.6,0,0,0-4.8.7c-.3.2-.9.7-1.2.2s-3-1.4-4.8-1.3-1.2-.1-1.3-.7.5-.9,1.1-1,2.2.5,3.6-.4c-8.3-1.5-16.1-.9-24,.1,2.5.6,4,2,5.7,3.5-1.4.7-2.5.2-3.7.2s-1.2-.2-.7-.7-.5-1.4-1.2-1.5c-4-.5-8.2-.1-11.9-1.8-.3-.2-1,.2-1.1-.4s.1-.8.7-1,3.2-.2,4.7-.9c-1.7-.9-3.8-.2-5.6-.8-4.3-1.3-8.8-1.1-13.3-1-2.4.1-4,.7-4.9,2.4h.1c-.6.3-1.8,1.4-1.9.2s-.9-1.8-2.6-1.5a7.6,7.6,0,0,1-3,0,7.7,7.7,0,0,0-6.9,1.7c0-.6.4-1.3-.7-1.4s-.6.1-.6.2,1,.6,1.4,1.1c3.3.9,6.9,1.4,9.1,3.9h.7a1.6,1.6,0,0,1,2.3.3c.7.9,3.6.1,2.5,2.2a3.7,3.7,0,0,0,3.8-.2,6.8,6.8,0,0,1,6.8-.2c-1.4.9-3.2.1-4.1,1.3a9.2,9.2,0,0,0,6.2,1.2c3.3-.8,5.9.8,8.9,1.1,1.1.1,1.4.9.2,1.5s-1,.8-2-.2-4.9-.6-7.6-.3a36.4,36.4,0,0,0,8.7,3.3c1.3.3,2.4-.6,3.4-1.2s-.1-1.1-.3-1.6,1.1-1.9,2.4-1.4l2.3,1.1a.5.5,0,0,0,.8-.6c-.4-2.6.7-3.8,3.6-3.3a16,16,0,0,0,4.9-.2c2.5-.4,5-1.7,7.3.4.1.2.4.2.7.2,5.1,0,10.1.4,15.1-1.4,3.2-1.2,7.4-2.4,10.4,1a2.1,2.1,0,0,0,2.3.8c2.7-.8,4.8.1,7,1.2-.6,1.1-1.7,1-2.7.9-4.1-.7-8.3-.3-12.4-.5l-8.8-.4c-.7,0-1.7,0-1.6.9s.5,1.1,1.4,1.3a26.9,26.9,0,0,0,11.3-.1c1.7-.4,3.9-.6,5-.1a22.6,22.6,0,0,0,8.8,1.7C566,93.6,566.3,94.3,565,94.9ZM499.9,65.6a9.3,9.3,0,0,1,6,1.2c-2.3.6-4.6-1.2-6.5.6a7.2,7.2,0,0,1,1.7.2c2.2.6,5.7-.7,6,2.7,0,.1.1.2.3.2,2.1.5,3.3,1.9,4.6,3.9.4-2.1-.4-3.6,0-5.1,1.3,1.5,2,3.4,4.6,3.6.1-.3.3-.5.3-.6s-1.6-.9-.8-1.5a1.2,1.2,0,0,1,2,.7c.4,1.2,1.2.6,2,.3s.9-.9,1.3-1.4,1.8-1.6,3.8-1.1,4.1,1.3,6.1-.3,2.5-2.2,2.3.6c-.1.7,1.1.5,1.8.6,2.6.4,5.3.5,7.3,2.3l-.3.3c-.6.5-1.3,1-.5,1.8s1,.1,1.4-.1-.5-1.2-.6-1.8-.1-.2-.1-.3c2.6,0,5.3.6,7.8-.6a1.9,1.9,0,0,1,1.8,0c2.2,1.1,3.5.1,5.1-1.4-2.7.1-4.5-1.9-7-.8-.6-.9-3.3-.7-1.9-2.6s0-.9-.7-1.1-1.8,0-1.3-1,1.1-.6,2.1-.6,3,1.3,5,.9,0,1.3.9,1.7a3.6,3.6,0,0,0,3-1.1c2-2.7,5.1-2.8,8.3-2.4,1.3.2,2.6.1,3.8.3s4.1-1.3,6-.7c3.9,1.3,7.8-.5,11.8.3,1.3.3,2.4-.6,1.6-1.6s.2-2.1,2.1-2.9c-3.2-.4-5.6-1.6-8.2-.6s-7.2-.3-10.5,1.2c-.2.1-.7-.2-1-.3a16.4,16.4,0,0,0-10.5-.3,12.2,12.2,0,0,1-6,0c1.3-1.6,1.3-1.6-.7-2.4,2-.2,3.5-.5,4.6,1s1.3.1,2-.2.7-.7.5-1.3a1.2,1.2,0,0,0-1.3-.9c-1.7.4-3.2-.6-4.9-.3s-1.8-.8-1.9-1.8,2.1.5,3.2-.1c-1.4-1.4-2.1.5-3.2.1l-5.7-.4a8.8,8.8,0,0,0-6.4,2.2c-2.2,1.8-2.2,1.7-5.1.5s-5.4-.8-8.1-.2a.9.9,0,0,0-.8.6,2.4,2.4,0,0,0,.8,1,3.6,3.6,0,0,0,1.8.2h11.9c1.2,0,2.4-.1,3,.9s2.5,2,4.3,2.4,1.4.3,1.2,1-1.1.8-1.9.7l-1.4-.5a18.2,18.2,0,0,0-12,.5,38.2,38.2,0,0,1-7.9,2,70.1,70.1,0,0,1-8,.5,61.9,61.9,0,0,1,16-4.9c-2.8.3-4.4-2.1-7.1-1.7s-5.3.5-7.9,1-5.1-.2-7.3.8c.3,1.1,2.9,1.1,1.5,2.2a8.3,8.3,0,0,1-3.9,1.7c-1.4.2-2.2-.1-2.8-1.2s-.9-.2-1.3-.3c-3-.7-5.9.2-9.5-.1,1.6,1.5,3.5,2.1,3.5,3.7-2.1-1.2-4.2-1.4-7.2-.3A45.7,45.7,0,0,0,499.9,65.6ZM389.8,61.7h0c.7,1.7-1,1.6-1.9,1.5s-1.7-.6-2.9-.3a18.8,18.8,0,0,1-7.1.1c.3-1.6,1.8-1.8,3.7-2l-1.5-.7c-.6-.2-1.7,0-1.7-.9s1.1-.8,1.9-1.1,3.1.2,4.3-.8c-.6-.9-1.5-.6-2.2-.6-3.4-.3-6.9-.2-10.2-.8s-9.7-.4-14.6-.8c-.5-.1-1.3-.1-1.4.1-1.4,1.7-3.2.7-4.9.7a27.8,27.8,0,0,1-5.7-.7,6.2,6.2,0,0,0-3.8.2c-1.9.8-3.8,1-5.4-.6a1.2,1.2,0,0,0-1.4,0c-.5.2-.4.7-.4,1.1s.8,1.6,2.3,1.5c4.1,0,8.1,1.2,12.2.7.4-.1,1.1,0,1.1.6-2.8.8-5.6,1.3-8.6.4a11.8,11.8,0,0,0-4.2-.1,19,19,0,0,1-4.1-.4,92.4,92.4,0,0,0-9.2-1c-.5,0-1,.1-1.2.6s.2.8.7.8c3.9.1,6.9,2.7,10.7,2.6s4.6,2.6,7.5,1.6c4.3,1.3,8.8.5,13.2,1s9.5.6,14.2.9a4.8,4.8,0,0,1,2.2.4c1.5.8,2.8.5,4.4.2s4.8-1.5,6.7-.6,3.4.7,5.3.5,3.2-.5,4.9,0a16.7,16.7,0,0,0,5,0c.7,0,1.4-.1,1.3-.8s-.7-1-1.6-.7l-.7.2c-.6,0-1.1,0-1.1-.6s.1-1,.5-1.1c2.1-1,4.7-.3,7-1.2.8-.3,1.7.5,2.3.9a4.4,4.4,0,0,0,5.2.6,2.1,2.1,0,0,1,2.4.1c2,1.2,4.3.9,6.6,1s3.2.2,3.3-1.6.3-.9.9-.7,3.5-.7,5.8-.9c-1.3-1.1-2.2-1.5-3.4-1.4-3.7.3-7.4-.5-11.1,0-1.4.2-3,.4-4.2-.8s1.2-1.7,2.5-1.8a3.7,3.7,0,0,0,3-2c-6-1.1-7-.3-5.4,3.9-1.4.3-2.9,1.1-4.1.6-3.2-1.3-6.9,1-9.9-1h-.7a13.5,13.5,0,0,1-6.6,1,1.2,1.2,0,0,0-1.3,1C388.2,61.3,389.2,61.4,389.8,61.7ZM666.4,86.1h.2a9.8,9.8,0,0,0,6.1,1.6l4.9.4c6.2.1,12.3,1,18.4-.2a16.8,16.8,0,0,1,5,.1c5.7.8,11.4,1.5,17-.6a2,2,0,0,1,1.1-.3,114.6,114.6,0,0,1,21.1-.7c4.2.3,7.1-1.3,10.6-2.3.3-.1.6-.4.4-.7a1.9,1.9,0,0,0-1.4-.5c-2.1-.2-4,.6-6,.7l-12.6.7c-3.2.1-6.4,1.7-9.6-.2a.8.8,0,0,0-.7.1c-2.6,1.5-5.5.6-8.2,1s-4.4.2-6.6.3-4.3,1.3-6.4-.1c-.2-.1-.5,0-.8,0a108.8,108.8,0,0,0-11.4.6,3.7,3.7,0,0,1-2.9-.5c-.6-.7-1.2-.5-1.9-.1s-3.6.2-4.9,1.5c-1.9-1-4.3-.8-6.3-1.6s-.6-.6-.5-1.1c.5-2.1.5-2.1-1.9-2.1a19.3,19.3,0,0,0-4.2.4c-4.1,1.2-8.4.9-12.6,1.5-2.3.4-4.8.9-7.1-.6a2.5,2.5,0,0,0-2.5.3c-2.8,1.9-5.6.1-8.4.3,1.4-1.1,3.6-.7,5.4-2.2-1.4.1-2.4.4-2.7.2-1.9-1.5-4.1-.7-6.2-.7a5.6,5.6,0,0,0-5.1,2.7c-.3.5-.5,1,.1,1.5a1.5,1.5,0,0,0,1.7,0c1.4-1,3.1-1.3,5.6-1.5-1.3,1.1,1,2.9-2,3.1-.5.1,0,.8.5.9,2.7.9,5.7.5,8.4,1.5,2.8-1.4,5.9-.1,8.7-.8h-.1a21.5,21.5,0,0,0,10.1-.2c-.1-1-1.5-.5-1.6-1.5s1.3-1.3,2.8-1.3c-.1,1.5.7,2.2,2.5,2.1S665.5,87.4,666.4,86.1ZM455.5,68.9a2.3,2.3,0,0,0-2.8-1.2c-.5.1-.5.5-.3.8s1.8.3,2.8.3h.4c1.3,1.5,2.7.6,4,0s1.4-.8,2.2.1a2.6,2.6,0,0,0,1.8.4c3.3.3,6.5-1.3,9.9-.7.7.1,1.6-.6,2.3-1.1a4.4,4.4,0,0,1,2.5-.6c5-.1,5-.1,9.3-1.7-2.5-.1-4.7-.8-7-.1s-3.2-.5-4.7-1-1.5-.9-1.2-1.8,1.2-.8,1.9-.8,2.6-.1,3.6-1,1.6-1,1.1-1.8a2.2,2.2,0,0,0-2.6-.8c-1.1.3-2.2.9-3.4.6-4.1-.7-8.3-.1-12.5-.8a5.8,5.8,0,0,0-5.1,1.5c2.4.3,4,1.2,6.2,1.3,3.9,0,3.9.1,5.3,1.4a121,121,0,0,0-16.1,1c-.8.1-1.9.2-2.1-.4s-2.2-.3-3.2-.7-1.4-.4-1.4.4.4,1.2,1.4,1.2c4.1-.1,7.8,1.2,11.7,1.7a1.8,1.8,0,0,1,1.8,1.3C458.6,66.1,457.1,67.5,455.5,68.9Zm436.9-7.5c-1.3,0-2.1.8-3.1,1.2a3.8,3.8,0,0,1-2.1.5c-3.5-.3-6.6,1-9.5,2.2a11.4,11.4,0,0,1-5.7.9,8.9,8.9,0,0,0-3.6.2c-4.2,1.2-8.2,3-12.9,2.4-1.5,1.1-4.2,0-5.4,1.9l1.8.3c0,2.8,2.4,2.2,4.2,1.9a31.9,31.9,0,0,1,6.9-.3,7.8,7.8,0,0,1,2.4.9c1.3.5,1-1.1,2.3-1.1,3.4-.1,6.8-.9,10.2-1,5.1,0,8.4-2.9,12.9-4.5-.8-.4-1-.7-1.4-.7s-1.7-.2-1.6-1.1,1.1-.5,1.8-.6c3.5-.2,3.5-.2,2.7-3.2,2.6-.1,5.5.7,8.3-1a43.7,43.7,0,0,1-6.5-.3C892.6,59.7,892.4,60.5,892.4,61.4Zm-314,5.5.2.2c.1.1,0,.3,0,.3a32.3,32.3,0,0,1-7,1.5c-2,.3-3.8,1.9-6.3.3-1-.6-3.1,0-4,1.4a9.5,9.5,0,0,1,2,.2c2.4,1.6,5.2,1,7.2.2a11.1,11.1,0,0,1,5.1-.2h-.1c.2.6.3,1.2,1.3,1.3a6.1,6.1,0,0,0,5.7-1.9,8.5,8.5,0,0,1,2.8-2.5c1.5-.7,2.7-.7,3.2.9s.4.2.7.1,1.2-1.6.4-2.6a53.4,53.4,0,0,1-6.9-.5c-1.5-.2-3.7-.7-4.3,1.4-1.1-.3-1.9-1.7-3.4-.4C576.1,67.2,577.3,66.5,578.4,66.9ZM438.8,46.1a9.7,9.7,0,0,0-3.8.1c-.7.1-1.2.4-1.1,1.1s.7.6,1.2.6c3.9-.2,7.7,1,11.6.1-1.3-1.2-3.1-.8-4.6-.8s-2.6-.1-3.4-1.1a7.5,7.5,0,0,0,3.9-.2C441,45.2,439.9,45.8,438.8,46.1ZM583.5,166.5c-1.2,0-2.6-.5-3.9.9a12.5,12.5,0,0,0,4-.9c-.1.4-.2.9.3,1.1s6.9.6,8.9-.5l-4.5-.9C586.7,166,585,165.5,583.5,166.5Zm8.2-97.3a5.5,5.5,0,0,0,4.7-2.2,1.3,1.3,0,0,0-1.1-2.1,23.3,23.3,0,0,0-3.1,1.1c.7,1.2-2.1,2-.4,3.2s.9,1.9,2.6,1ZM703.3,52.6c-1-1.3-2.3-.9-3.6-.3s-.9.6-.2,1.1,1.2.8,1.4,0,1.6-.7,2.5-.9-.9,1.3.6,1.4,2,.4,2-.9a4.1,4.1,0,0,1,1.3-2.5C704.2,49.3,704.6,51.9,703.3,52.6ZM426,40.7l-.3.5c-.3,1,.1,1.6,1.4,1.7s1.3.1,1.5-.6-.5-1.2-1.3-1.6a2.2,2.2,0,0,0-1.4,0c-.7-.8-2-1-2.7-1.6a2.4,2.4,0,0,0-1-.5c-1,0-1.9.2-2.2,1s.9.8,1.5,1.1S424.5,40.5,426,40.7Zm-89.8-3.4c-.4-.5-.6-1.2-1.6-.7s-.4.5-.2.8,1.3.2,1.9-.2c1.9,2.2,2.3,2.3,5,1.5C340.2,36.7,337.8,38.1,336.2,37.3ZM253.8,72.4l-8.9-.8a17.8,17.8,0,0,1-7.6-1.5c-.8-.2-1.4-.6-1.9.2s.3,1.3,1,1.3,3.9,1.2,5.9,1.8,2.7.2,2.6-1.8c2.7,1.6,5.8,1.1,8.7.7.2-.7,1.4-.1,1.4-.6s-1-.6-1.5-.7-.8.1-.7.4A3.2,3.2,0,0,0,253.8,72.4Zm-55.1,37.3c-1,.5-2-.1-2.9,0s-1.2-.5-1.8-.1-.8.9-1.5.4-.1-.8.1-1.2.5-.7-.1-1.3-2.9,0-4.4-.1c-3.1-.1-6.1-.5-9.2.9-1.6.8-1,2.8-3.1,2.8a17.7,17.7,0,0,0-5.2.7c-.3.1-.4.3.1.9,4-.3,8.3.2,12.5.1,1.3,0,1.7-.6,1.2-1.3s-.1-1.4.9-1.6l3.4-.4c.7,0,1.7-.2,1.6.8s1.4,1.2,0,1.8-1.2.5-.4,1.1,2.4-2,4.4-1.2.6-.5.5-.9.3-1.1,1.1-1.5c.8,2,1.8.7,2.8.1s-1.1,1.5-.9,2.3.9.8,1.5.7.9-.5.4-1.1A3,3,0,0,1,198.7,109.7ZM843,72.5c.9-.3,1.4.9,2.4.5s1.2-.5,1-1.1-.9-.6-1.6-.3l-1.9.9a3.7,3.7,0,0,0,.5-2.3c-.1-.4-.2-.8-.9-.7s-1.3.5-1.1,1A9.4,9.4,0,0,0,843,72.5ZM368.7,38.8a3.3,3.3,0,0,0,3.5,0c-1.5-.5-2.4-1.5-3.5.1h-1.5c-.2,0-.5.2-.5.3s.5.4.8.3Zm-21.5,102c-.1-2.3-.4-2.8-2.8-2.7-5.5,0-10.8-1.5-16.3-1.5s-11-1.1-16.5-1.4-9.6-1.1-14.5.2a10.2,10.2,0,0,1-8.9-1.9,3.8,3.8,0,0,0-2.7-.9c-10.8-.8-21.4-2.7-32.1-3.8-2.4-.3-4.9.1-7.3-.5-5.3-1.3-10.8-1.4-16.1-2.4a8.6,8.6,0,0,0-3.5-.4c-2.6.5-4.5-1.4-7-1.2-.7-1.6-1.4-.5-2.5-.3a8.9,8.9,0,0,1-6-.5,6.3,6.3,0,0,0-3.6-.6c-1.9.2-3.7-1.2-5-.9s-3.5-.3-5.2-.6-6.1-1.5-9.4-.5c-1.2.4-2.6-.2-3.7-.6a20.3,20.3,0,0,0-6-.9,4.3,4.3,0,0,1-3-.5c-1.7-1.2-3.1.8-4.7.2s-2.4-2-4-1.7c-4.1.7-7.8-.5-11.6-1.3a3.1,3.1,0,0,0-1.9,0,8.9,8.9,0,0,1-5.6-.2,3.9,3.9,0,0,0-2.8.1,7.4,7.4,0,0,1-6.5-.7,35.1,35.1,0,0,0-11.5-4.1c-5.9-1-11.7-2.5-17.5-3.8-3.3-.8-6.6-1.4-9.9-1.9a6.5,6.5,0,0,0-3.1.1c-1.9.7-2.8.7-2.7-1.4s-1.4-1.5-2.6-1.4a6.1,6.1,0,0,1-4.2-1.1,5.8,5.8,0,0,0-3.7-.7,2.6,2.6,0,0,1-2.3-.8c-.9-1.1.6-1,1-1.5s.9-2-.6-2-3-1-4.5-1.5a8.3,8.3,0,0,0-3.4-.5c-4,.6-5.2-1.7-6.6-3.8.7-1,2.1-.4,2.8-1.2s.6-.7.4-1.1-.8-.3-1.3-.2c-2.6.4-3.8-.4-3.1-2.3s.5-3.7,2.3-5.5a10.5,10.5,0,0,1,4-2.5c-.7-1.6-1.6-3.4,1.4-4.5,1.4-.5-.2-1.4-.3-2.3l3.9-.9a3.6,3.6,0,0,1,3.2.4c.9.6,1,.4,1.5-.6a2.7,2.7,0,0,1,.8-.7,4.4,4.4,0,0,1,2.5-.8c1.9-.1,2.7-.8,2.4-2.4s.2-1.4,1.7-1.3,3.2.9,2.9-1.3c0-.1.2-.2.3-.2,3.2.1,6-1.8,9.3-1.4a5.7,5.7,0,0,0,3.4-.3l.7-.2c3.2,3.4,5.2-.4,7.8-.9s4.2-1.9,6.7-.1c-1.8,1.4-5.7-.9-6.5,2.4a16.1,16.1,0,0,0,5.4.8,4,4,0,0,0,3-1.7c1.5-1.9,3.4-3.7,6.7-3.9a6.5,6.5,0,0,0,1.9-.4c.8-.3,1.2-.7,1.1-1.5a1.4,1.4,0,0,0-1.5-1.2,30.1,30.1,0,0,1-10.3-3.6,5.5,5.5,0,0,0-2.2-.6c-4.1,0-6.2-2-7.5-5.2,1.2.4,2.7,0,3.3,1.3s.8.8,1.1.4,1.6-.5,2.2.4,2.9,1.7,5.5,1.4l-4.2-1.4c.7-1,1.9.2,2.5-.6-7.5-2.6-15.3-4.5-23.6-6.6,1.8-.6,2.9-.1,4,0s4.4.6,6.1-1.2,1.9-.6,2.9-.6,2,.4,3.1-.2c-.4-2.5-4-1.2-5.5-3.1,2.9.2,5.5-.1,7.4,1.8h0c-.5,1.9-.5,2,.8,2.1s5.2.1,7.4,1.3,1.4-.3,2.1-.4,4-1,6.3.1,3.7.3,5.6-.2,3.1-.6,4.7.9,4.9,1.2,6.6-.8h0a67,67,0,0,1,11,.6c1.8.2,3.4.3,4.4-1.1h-.1c.7-.2,1.5.2,2.2-.4a3,3,0,0,1,2.4-.8c2.9.3,5.8-.3,8.8-.2,1.4,0,3.4,1.5,4.1-.8,1.7.8,3.3-1.3,5.2,0s3.6-.2,5.2.7l.6-.2c-.8-1.5.5-1.4,1.6-1.6s2.2.6,3.3-.2a.5.5,0,0,1,.8.6c-.4,1.6.8,1.7,2.2,1.7s4.4-.5,6.7-.6,1.6-.3,2.3.3a.8.8,0,0,0,.9.3,26.1,26.1,0,0,1,9.6.3c-.9.3-1.7,1-2.8,1s-1.9,1.2-1.5,2.4c-1.8-1.2-3.6-2.4-6.2-1.8-.4.1-1-.2-1.5-.3-3.5-1-7.1.5-10.6-.2-3.7,2-7.4,1.4-11.2.3a4.5,4.5,0,0,0-2.3-.1,8.7,8.7,0,0,1-6.9-.5,1.7,1.7,0,0,0-2.3,1.3,27.1,27.1,0,0,1,4.1.4c2.9.4,5.9,1,8.7.6a15.3,15.3,0,0,1,6-.2,25.2,25.2,0,0,0,12.5-.1c1.4-.4,3.4-.6,4.5.2s3.4.8,5.2.4,2.1-1.8,4-.6,3.7.1,5.6,0a.6.6,0,0,0,.5-1,1.2,1.2,0,0,0-.9-.5,8.4,8.4,0,0,0-1.4.6c-.9.3-2,.6-2.3-.3s1-.8,1.8-1a22.3,22.3,0,0,1,7.3-.3h-.2c.8-.3,2.1-.9,1.9.2s-.3,1.5,1.4,1.4,1.3.4,1,1.1a.9.9,0,0,1-1.3.3c-1.5-.6-2.6-.6-3.6.6s-.9.3-1.4.3c-3.5,0-5.3,1.8-6.7,4h0a.7.7,0,0,0-1.2,0c-.4.4-.1.9.4,1a19.1,19.1,0,0,0,3.3.6c1.8.3,3.6.4,4.8,1.7a2.2,2.2,0,0,0,1.4.5c4.2.2,8.4.6,12.6.4a50.6,50.6,0,0,1,8.7.2c2.5.2,4.9.2,7.2,1.3-3.5.2-7-.3-10.5,1.2l9.5,1.4c2.7.2,5.5,0,7.7,1.3s1.3-1.6,3-.9,1.4,1.6,2.7,1.5,3.2-.9,4.9-.9c3.9.1,7.8,0,12,0-1-1.2-1.3-2.2,1.3-2.3s6.6-2.1,10.4-1.9a3.5,3.5,0,0,0,2.9-1.8,6.2,6.2,0,0,0,3.5-.3c-1.6-.6-2.7-.6-3.4.4s-2.1-.2-4-.2c2.2-1.1,3.6-1.9,5.6-1.8s2.5.2,3.5-.9,1.7-.4,2.4,0a1.9,1.9,0,0,0,1.8.1,17,17,0,0,1,9.7-1.3,3.2,3.2,0,0,0-2.6-1.3c-2.5,0-5,0-7.4-1.2a5.6,5.6,0,0,0-4.7.6c-.6.4-1,1-1.8.8s-.4-.7-.3-1.2-.6-.3-.9-.3l-8.5-1.9-1.2-.2c-5,.7-9.6-1-14.4-1.6h-2.3a20.7,20.7,0,0,1-9.9-.1,35.1,35.1,0,0,0-12.5-.3,30.8,30.8,0,0,1-4.3,0,28.6,28.6,0,0,0-10.9.7,13,13,0,0,1-3.4.1c-1.4,0-2.5-.1-2.2-1.4s-1.6-1-1.6-2a4.1,4.1,0,0,1,2.4-.6c1.6.3,3.4,1.4,4.3-.8,0-.2,1,0,1.5-.1a8.2,8.2,0,0,0,2.9-.7c.6-.4.3-1.5,1.5-1.7a11.7,11.7,0,0,0-2-.6c-1-.1-1.9.8-3,.3a.9.9,0,0,1-.7-.6c0-.5.3-.6.7-.7a14.1,14.1,0,0,1,7.4.9c1.4.6,1.9-.3,2.7-.6s.2-.4,0-.8c-1.5-1.9-1.3-2.1,1.2-2.1s4.9-.5,7.3,0a3.3,3.3,0,0,0,2.4-.8A13.4,13.4,0,0,0,249.1,27c-.6.2-1.1.8-1.7.5s-2.7-1.2-4-1.8a.6.6,0,0,1-.1-.6.7.7,0,0,1,.9-.3c2.8.9,5.4.5,8.5-.2-2.3-1.2-2.9-3.3-5.4-4.9,2.7,0,4.4-1,6.4-1.3s1.5-1.9,2-3.1c3.3-.1,6.7-.6,10,.4.7.2,1.7.2,2,.8s2.8,1.8,4.7,2.1L282.7,20c1.3.2,2.8.1,4,1.1-.9,1.3-2.5.8-3.7.6s-2.7-.7-2.9,1.2c-.1.3-1.2.6-2.1,1,3.4,1.1,6.6,1.8,10,1.2a6.2,6.2,0,0,1,2.3.4,18.7,18.7,0,0,0,8.8.5,7.7,7.7,0,0,1,3.4.1c4.5,1.6,9,.4,13.5.5,6.8.2,13.8,0,19.7,3.4,3,1.7,6.5,2.6,9.4,4.4s3-.5,4.5-.8-.5-1.4.6-2.1a3.8,3.8,0,0,0,4.7.9c5.6,1.4,11.3-.2,16.9.5,1.5.2,3.1.2,4.6.3,3,.1,5.7.4,8.3,2s6.5,1.2,9.6.4a14.3,14.3,0,0,1,7.1-.3c2.9.5,5.9,1.2,9-.1a9.2,9.2,0,0,1,6.9.1,24,24,0,0,0,9.7,1c.5,1.1-.7,1-1.2,1.3s-.7.7-.3,1.1,3.7,1.8,5.8,2.1,3.9-.1,3.6-1.8-3.1-.4-4.3-2c2-.4,3.9,0,5.7,0s1,1.6.9,2.7.8-1.5,2.1-1.6c4.4-.3,8.6-1.6,13-1.3s10.6.4,15.6,2.1c.3.6,0,1-.6,1.3s-.1,1.2.6,1.4a1.6,1.6,0,0,0,1.9-.5c-.7-.7-1.3-1.5-1.9-2.2,2.6-.4,5,1.5,7.5.9s4.5-1.8,7.2-1.5a2.5,2.5,0,0,0,1.4-.4c3.7-1.8,7.7-1.9,12.1-1.2-1.8,1.4-4.3.6-6.3,2,2.9,1.2,5.1,3.3,8.9,2.1a2.5,2.5,0,0,1,1.9.1c1.4.8,3,0,4.3.2a29.7,29.7,0,0,0,8.4.2c1.3-.1,2,.8,2.7,1.5s2.5,1.4,3.4-.1,1.9-.8,3-.9,3,.4,4.5.5a10.4,10.4,0,0,0,5-.8c1.3-.7,3-.3,4.5-.1a7.8,7.8,0,0,0,3.4.3c5.8-1.5,11.4-.2,17,.8a59.8,59.8,0,0,0,6.1.7,10.7,10.7,0,0,0,4.4-.7c1.1-.5,2.2-1,2.9.7s2.6.6,3.9.5,3.3-2.3,5.3-.4c1-1.9,2.9-.5,4.3-.9,3.3-.9,6.7-.3,10-.1.9,0,1.7.3,2.5-.3s.9-.4,1-.1c1,3,2.9.7,4.3.5l4-.8c.7,1-.3,1.2-.9,1.4s-1.1.2-1.4.5c-3.2,2.3-7,3-11.2,2.6A30.9,30.9,0,0,0,577.8,48a1.8,1.8,0,0,1-2.1-.3l1.5-1.2c-5-1.9-9.4.5-14.1.8,1.9-.1,3.5.6,5.2.7a23.1,23.1,0,0,0,3.7-.3c1.2-.2,2.6-1.2,3.8.1-1,.2-2.2.1-3.3,1.4a12,12,0,0,1,5.8.6c1,.4,1.9-.1,2.9-.5a8.6,8.6,0,0,1,5.7-.3,6.3,6.3,0,0,0,3,.3c3.4-.6,6.8-.1,10.2-.3s6.4-.8,9.6-1a3,3,0,0,0,3-2.4c.2-1.2,2.5-2.2,4.4-2.3s4.1-.4,6.2.2a9.2,9.2,0,0,0,5.2-.1c4.4-1.4,8.9-1,13.4-1a8.1,8.1,0,0,0,2.2,0c2.5-1.1,3.1.2,4.2,2.1-3-1.1-4.3.9-6.3,1.2s-5.1.5-7.6,1-4.8-.2-7.8.7c2.7,1.2,4.9,0,6.8.3s4.1,0,6.1,0a1,1,0,0,1,.5.4c.2.2.5.5.9.3s.2-.4.2-.4l-1-.3h-.7c.6-.3,1.3-.7,1.7-.6,3.2.7,6.2-.6,9.3-.7.9,0,.9-.4,1.1-.9s2.3-2.2,4.2-3,3.3-1.8,5.5-.8a2,2,0,0,0,1.5-.1c4.3-1.7,8.4-.4,12.5.7.8.2,1.9-.1,2.5,1.2-5.7.4-11.4.2-16.7,1.8,4.3-1,8.6-.1,12.9,0-2.8,1.7-6.3.4-9.4,1.5A15.9,15.9,0,0,1,671,48a3.9,3.9,0,0,0,3.8-1c1.3,1.5,2.6.7,4.4.1-1.9-1.2-3.2,0-4.5,0,1.1-1.9,2.9-2.4,5.4-1.6s2.7.5,3.9-.5a2.3,2.3,0,0,1,2.5-.4c.9.3,1.6-.2,2.7-.3-2.1-1-4-1.6-6.6,0a4.8,4.8,0,0,1,5.6-2.2l1.4.4c.7-2.8,4.5-.7,6.2-2.5s3.6-.7,5.4-.3.6,1,0,1.5l-3.8,2.9a6.5,6.5,0,0,0-4.7.5,5,5,0,0,0,4.8-.6c-.4,2.4-.4,2.3,1.9,2.5a6.2,6.2,0,0,0,3.4-.3,6.8,6.8,0,0,1,5.4-.2c1.6.6,2.4-.5,2.8-1.5,1.6-3.5,5.3-4.1,9.1-4.6a22.1,22.1,0,0,0,5.9-1c2.3-1,4.6-.5,6.8-.8a2.3,2.3,0,0,1,2,.8c1.1,1.3,2.5,1,4,.5s5.8-2.6,9.2-1.1c.6.3,1.2-.1,1.7-.4a7.9,7.9,0,0,1,3.7-.7c2.6-.1,3.3.6,2.6,2.7s.5,1.5,1.3,1.3,3.7.8,5.5,1.3.6,1.3-.2,2.3c2.6-.1,4.6,1.3,7.1.9a2,2,0,0,1,2.5,1.5c.1,1.1-.9,1.6-2.2,1.7a4.8,4.8,0,0,0-1.2,0c-.9.3-.9,1-1.1,1.6s.5.9,1.1,1l2.8.8c-1.9.4-3.7.7-2.8,2.5-4.7-1.1-9.5.2-14.4,0,1.5,1.2,2.5,3.1,4.7,3.2s3.1.9,4.8.8c-.3.5-.4,1,.5,1.2a4.7,4.7,0,0,0,3.8-1.1c.5,2.1,1.5,2.6,3.8,2.1.3-.1.8-.3.6-.6s-1-.1-1.1-.7c2-.8,4.4-1.2,6.4-2.5-1.5-.4-2.3.1-3.3.3s-4,1.9-6.5,1.4a30.5,30.5,0,0,0-4.3-.1c.2-.6,2-.7,1.1-1.8s-1.6-1.7.9-2l3-.2c1.1-.9,2-1.6,3.9-.7s3.9.1,5.5-2.1c-.6,3.9-4.3,2.8-6.3,3.9,1.6.4,1.6.3,4.8-.1a43.8,43.8,0,0,1,5.2-.1c-1,1.1-1.2,2.4-3.2,2.5a5.4,5.4,0,0,0-3.1,1.8,9.9,9.9,0,0,1-7.3,2.3,19.8,19.8,0,0,0-4.5.4,3.4,3.4,0,0,1-3.1,0c-1.8-.7-4.1-.5-6.3-.2-3.9.6-3.9.5-6.7,3,2,.9,4.3-.6,6.2.6,6.6-1.3,13.2,1.1,19.8.2a27.6,27.6,0,0,1,6.5-.6c-.4-1.2-1.2-1.3-2.2-1.1s-1.5-.1-1.5-1h0c.4-.2.9-.7,1.3-.6,2.7.3,5-1.1,7.6-1.2s2.7-.7,3.5.8,1.4.6,2,.1-.2-.8-.4-1.2a6.4,6.4,0,0,0-1-1.3c-.4-.5-.9-.9,0-1.2s.9.2,1.4.3.3,2,1.9,1.4,4-.6,6-1a2,2,0,0,0-2.4-.6c-.9.3-2,.7-2.5.1s-2.1.4-3.1.2-.1-.4-.2-.6c-1.4-2.3-1.7-2.4-4.3-.6a3.6,3.6,0,0,1-.9-3c1.8,0,3,1.2,4.8,1s4.1,1.1,5-1.4c0-.2.6-.3,1-.3,4.7-.3,8.7-2.9,13.6-2.7a1.3,1.3,0,0,0,1.5-1,14.7,14.7,0,0,0-6.9.9c-2,.9-2.6.6-3.6-1.1a19.5,19.5,0,0,0,5.5-1.2h-3.8a1.3,1.3,0,0,0-1.6,1.3c-3.9.8-7.9.3-11.7,1.4a9.1,9.1,0,0,1-6.1-.4c.2-.5.7-1,1.1-.9,2.1.2,3.7-.7,5.3-1.5a8,8,0,0,1,4.6-.9,18.7,18.7,0,0,0,8.4-1.2,11.1,11.1,0,0,1,4.4-.8c4.7.4,9.5-.5,14.1.5a8.6,8.6,0,0,0,1.6-.1h-.1c.3.7-.5,2,.7,2.2a5.5,5.5,0,0,0,3.5-.4c3.4-1.5,7-2.8,11-2.7s10.8.1,16.2,0,8.4-.2,12.2-1.9a3.6,3.6,0,0,1,3.5-.2,5.4,5.4,0,0,0,4.6-.6c2.4-1.5,4.9-.9,7.3-.7s4.1,1.1,6.3,1.4,0,1.4-.3,2.5l11.3-.5c1.7-.1,3.3-.4,4.3-1.7s2.1-.6,3.2-.8a16.6,16.6,0,0,1,6.3.2c.4,1.5-1.6,1.8-1.3,3.2a10.6,10.6,0,0,0,8.7,0c2.2-1.2,3.5-.4,5.1.2s1.1,1,1.9,1.1,1.7.4.2,1-.9,1-.3,1.6l1.8,1.6-3.2.5a1.5,1.5,0,0,0-1.4,1.7,1.4,1.4,0,0,0,1.4,1.2c2,.4,3.2,2,5.4,2.2a3.1,3.1,0,0,1,2,1.8c-3-.6-6,.6-8.6-.8s-7.7-.9-11.6-.3c-.5.1-.9.4-.8.9s.5.5.9.6l4.5.7c.7.1,1.4.3,1.8-.2a1.8,1.8,0,0,1,2.3-.6c2.7,1.3,5.9-.4,8.5.9a1.3,1.3,0,0,1,.6.4c2.7,2.3,2.9,2.4,5.5,3.1v.3c.1.7-.9,1.7.6,2.1a1.1,1.1,0,0,0,.7-.3c.7-1-.5-1.4-1.1-2h-.4c.7-.2,1.2-.4,1.1-1.1s-.7-1.6.4-2.5c1.6,1.3,1.4,3.3,2.7,4.7s.6,1.3,1.2,1.8c3.5,2.5,2.9,5.8,2.4,9-.1,1-1,.7-1.7.6s-.8.1-.9.5a.6.6,0,0,0,.5.7c2.6.5,3.2,1.5,1.8,3.3a.6.6,0,0,0-.1.7c.9,1.8.9,3.4-1.5,4.5s-3.2,2.5-5.8,2a5.4,5.4,0,0,0-3.2.9c-1.7.8-3.2,1.8-5.3,1.2h-.7c-3.4,2.4-7.7,2.3-11.7,2.6s-6.4.2-9.5.7c-.8.2-1.5,0-2.2.4s-3.2.3-4.2,1.4.2,2.2.2,3.4-.4,4.1-.4,6.2a8.7,8.7,0,0,0,1.5,4.7,38.2,38.2,0,0,1,5.5,12c.6,1.9,1.6,3.7,2.1,5.6,1,3.7,1.3,7.6,2.1,11.3s.8,7.7,1.7,11.5c.6,2-.3,3.4-2.5,4.7s-5.6,2.5-7.9,4.4a3.5,3.5,0,0,1-2.1.7c-4.6.3-9.3,1.7-13.5-1.1a1.4,1.4,0,0,0-1.1-.1c-2.9,1.4-6.3.6-9.7,1.2a31.7,31.7,0,0,1,1.7,3.8,16.5,16.5,0,0,1,.1,9.6,4.5,4.5,0,0,1-1,1.4c-1.4,1.5-3.8,2.5-4.4,4.6a1.5,1.5,0,0,1-.9.6c-1.9-.1-3.8,1.1-5.6.8-3.9-.5-7.9.4-11.8-.1-1.8-.3-3.6-.1-5.1-1.2a1.4,1.4,0,0,0-1.1-.2c-4.2,1-8.4-.2-12.6-.1s-8.8.7-13.1.6-6.2.5-9.4,0-5.3.3-7.8.9c-4.8,1.1-9.7,1.2-14.6,1.5s-9.4.7-14.1,1.4a71.7,71.7,0,0,1-10.4.6c-4.1.1-8.2,1-12.3.3-2.2-.3-4.4-.2-6.6-.3a15.2,15.2,0,0,0-5.3.6c-2.2.7-4.4.1-6.5,0-.5,0-.7-.1-.9-.7s-.8-1.4-1.8-.2-.7.8-1.7.6c-2.7-.5-5.4-1.2-8.2-.9s-.4-.5-.5-.9-1.5-.5-2.2-.2a18.5,18.5,0,0,1-8.1,1.1c0-.8,1.8-.7,1.1-1.4a4.6,4.6,0,0,0-4.1-.9c-.7.2.8.7.4,1.3s-1.7-.5-2.5-.2-2.2-.2-3.4-1.1-5.5-3.8-9.2-4c-1.3,0-2.6-.2-3.9-.1s-3.3-1-2.4,1.4c-1.5.1-2.5,1.7-4.3.9l-5.7-2.1c-1.1-.4-2.4-1.1-3.6-.5-2.7,1.3-5.5.6-8.3.5s-7.6-.3-11-1.9c2.7-1,5.6.2,8.4-.7a56.8,56.8,0,0,0-8.2-1.7c-.8-.1-1,.5-.8,1.1a4.6,4.6,0,0,0,.7,1.4c-2-.3-3.8-.9-5.7.5s-2.8-.2-3.7-.6c-3.7-1.6-7.4-.4-11-.4-1.9,0-4.1.4-6,.3s-3,.9-3.2,2.5h0c-.4-.7-.5-1.7-1.1-2s-1.7-1.3-.3-2.2.4-.8,0-1.1a7.8,7.8,0,0,0-3.7-.6c-1.1-.1-2.4.2-2,1.9s-1.4,1.4-2.8.7a1.8,1.8,0,0,0-1.4-.2c-3,2.3-6.3.8-9.3.2a9.5,9.5,0,0,0-3.7-.5,23.8,23.8,0,0,1-8.4-.7c-.4-.1-1.1-.1-1.3-.4-3.1-3-7.6-2.7-11.7-3.2-2.4-.3-4.8-.2-7.1-1.1-.6-.2-1.6-.3-1.9,0s-3.3.5-4.7.9c-5.1,1.4-9.9-.1-14.9-.1s-8.1-.1-12.2.2-7.9.6-11.9-.2a23.8,23.8,0,0,0-3.8-.1,30.7,30.7,0,0,1-6.8-.5,8.7,8.7,0,0,0-4.8.2c-3.6,1-7.4.6-11.1.4s-4.8-.4-7.2.2a3.8,3.8,0,0,1-1.5.1l-14.1-.8c.4-1.6.9-2.8,3.2-2.3s1.3.2,1.4-.5-.5-.8-1-.8a17.7,17.7,0,0,1-8.5-1.6c-.5-.2-2-.5-2.4.3s-1.3,1.1-2.3.1a2.4,2.4,0,0,0-2.8-.3,25.4,25.4,0,0,1-5.1,1.6,4.5,4.5,0,0,0,4.5,1.4c2.7-1.1,5.6.2,8.1-1.1.3,1.2,1,2.4.6,3s-2.7.7-4,.6c-4.9-.5-9.9-.5-14.9-.7a10.2,10.2,0,0,0-3.5.2,19.1,19.1,0,0,1-10.6-.9,8.3,8.3,0,0,0-4.7-.2c-4,.8-8.1,1.1-12-.4a2.4,2.4,0,0,0-1.4-.3,28.5,28.5,0,0,1-8.7.7c-.8-.1-1.9.3-2,1.2s-.9,2.1-2.4,1.3,1.1-1.1.8-2.2-3.5-.1-4.9-1-2.7-.1-3.9-1.2a3.1,3.1,0,0,0-3.5.4c-1,1.2-2.3,1-3.7,1-3.9.1-7.9.5-11.6-1.2a3.8,3.8,0,0,0-2.6.3c-1.8.7-2.9-.5-4.4-.7s-1.1-1.5-1.7-2.3c1.7,2,3.6.7,5.5.3s1-.4.7-.9a1.2,1.2,0,0,0-1.6-.4c-1.4.5-2.8,1.4-4.6,1.1s-3.5.4-4.6,1.7,2,.2,2.4,1.4c-4.8,1.2-9.5-.2-14.1.5,1.5-1,5.5-1.6,6.9-1.5s2.3,0,2.8-1.1,2-1.5,3.5-1.5,2.9-1,4.3-1.5,1-1.3.4-2.1h.1a2,2,0,0,1,1-2.2.5.5,0,0,1,.6.6c.1,1.9,1,2.4,2.6,1.5s1.9-1.3,3.7-.5,3.5-.6,5.5-1.5c-1.5,2.9-5.5,3.2-6.7,5.6a1.2,1.2,0,0,0,1.7.5c1.1-1.5,3.3-.5,4.6-1.7s1.7,0,2,.7,1.6,1.1,2.2.1,1.1-.8,1.6.2.8.3,1.1.3c2-.6,3.9-1.2,4.7,1.4.1.3,2,.3,3-.4a8.2,8.2,0,0,1,5.6-1.4c1.6.2,3.5.3,4.8-1.2s2.4-1.7,2.9.5c0,.3,1.3.8,2,.2s2.7-1.5,4.8-1.1,3.6-.1,4.6,1.5,1-.1,1.3-.5a3,3,0,0,1,2.9-1.2c4.1,1,8.1-.9,12.2.3a40.8,40.8,0,0,0,5.2.7c1.5.2,3.1.6,4.1-.8s1.1-.3,1.8-.3a54.3,54.3,0,0,1,11.4.1h1.6c3.7-1,7.6-.4,11.4-.6,2-.1,4.1.1,6-.9s2.7-.2,4.1-.6c-4.5-.8-8.8-1.4-13.5-.5-2.7.6-5.7,1.7-8.5-.2a1.4,1.4,0,0,0-1.1,0c-2.5,1.3-5.2.2-7.8.5a5.7,5.7,0,0,1-3.4-.5,7,7,0,0,0-3.6-.6c-3.7,0-7.5-.9-11.3.1a10.3,10.3,0,0,1-2.2-.4c-.7-.1-1.6-.5-2.2-.3-5.2,1.6-10.2-.5-15.3-.6a2.4,2.4,0,0,1-1.4-.5c-1.4-1.4-2.9-1.3-4.7-.4a5.5,5.5,0,0,1-3.6.3c-4.7-.5-9.3-1.1-14-1.5a29.1,29.1,0,0,0-7.1,1.1,25,25,0,0,1-8.2.4c-.5-.1-1.1-.1-1.2-.6a1,1,0,0,1,.7-1.3l4.2-1.1c-1.7-1.9-4.2-1.3-5.6-.6-3.2,1.6-6.5,1.1-9.8.9a7.9,7.9,0,0,0-2.2.1c-2.3.6-2.3.5-4.2-1.3,2.1-1.8,4.8.5,6.8-.6.2-.9-.9-1.1-1.4-1-2.4.4-5.1-1.1-7.2.8-2.4-.5-4.4,1.9-6.9.6-3.6,1.2-6.9-.5-10.4-.5s-.9,1.2-1,1.9c-3.1.4-6.2.9-9.4.4a4.2,4.2,0,0,0-2.9.6c-1.1,1-2.6.6-3.8,1-.8-1.2-.1-2.2-.5-3.7a20.9,20.9,0,0,0,12.4.3,7.8,7.8,0,0,0-6-1c-3.7.8-7.1-.4-10.6-.9a46.8,46.8,0,0,0-7.5-1.1c-2,0-3.7-.9-5.8-1-6.8-.4-13.5.9-20.3.1-.6-.2-.2-.5,0-.7s-.6-1.8.6-2.2a9.8,9.8,0,0,1,3-.1c1.8,0,.4-.4.3-.9s1.4-1.6,2.7-1.4a20.2,20.2,0,0,1,4.4,1,8.6,8.6,0,0,0,5.9.1c1.8-.7,3.8-.4,5.7-.7s1.7-.2,1.5,1.1,1.4.4,1.9.2c2.7-1.2,5.6-1,8.5-.9s2.6-.3,2.6,1.3.7.5,1.2.6c4.3,1,8.6,1.8,13.1.7a6.7,6.7,0,0,1,4.2.4c2,1.1,3.3.3,4.5-.9h-.1a34.2,34.2,0,0,0,6.5-.3c3-.6,5.2-1.3,6.5,1.7,2.3-.1,4.4,1.9,7-.2a6.4,6.4,0,0,1,6-.7c1.9.8,3.9-.3,5.9-.5a.8.8,0,0,0,.4-.4c0-.4-.4-.6-.8-.6l-23.4-1.4c-5-.4-10-.8-14.9-1.6-.4-.1-.8-.3-.7-.6a.7.7,0,0,1,.6-.7c2.1-.3,4,.3,6.1.4s3.6-.6,5.4-.6c-.2.6-1,1.5.8,1.4a49.8,49.8,0,0,1,10.9.4c1.9.3,3.2-.1,4.2-1.7-2-.1-3.6-.1-5.3-.3-3.5-.2-7.1.3-10.6.2C350.8,139.5,348.9,139.4,347.2,140.8Z" transform="translate(-65 -3.2)"/></svg>