<svg xmlns="http://www.w3.org/2000/svg" viewBox="0 0 357.8 46.4"><defs><style>.a{fill:#fff;}</style></defs><title>sticky-logo</title><path class="a" d="M124.1,47h-5.9a.9.9,0,0,1-.8-.5l-1-1.9c-2.3-4.3-4.7-8.6-7.1-12.9l-6.1-11c-.7-1.2-1.3-2.4-2.1-3.7a2,2,0,0,1-.1.5c0,6-.1,11.9-.1,17.9V46.3c0,.7,0,.9-.7.9H94.3L94,47V46c-.1-3.6-.1-7.2-.1-10.8V1.8c.1-.7.1-.8.9-.8h5.3a1.2,1.2,0,0,1,1.4.8c.8,1.7,1.8,3.4,2.7,5.1l9.3,17.9,3,5.5a2.1,2.1,0,0,0,.4.6c.2-4.9.1-9.9.2-14.9s-.1-9.9,0-15h6.2c.9,0,1,.1,1,1V22c0,6.3,0,12.6-.1,19,0,1.8,0,3.6-.1,5.4Z" transform="translate(-1.1 -0.9)"/><path class="a" d="M164.6,47h-7.2c-.4,0-.6,0-.8-.4L153,38.8c-1.4-2.9-2.8-5.8-4.3-8.7a11,11,0,0,0-1.9-2.5,5.1,5.1,0,0,0-2.3-1.2,10.1,10.1,0,0,0-3,0c-.3,3.5,0,7,0,10.4l-.3,10.3a29.4,29.4,0,0,1-6.6-.1V35.6c-.1-6.8-.2-13.6-.2-20.4,0-4.3.1-8.7.2-13V1.6c0-.3.2-.4.5-.4h6.2c.1,5.6.1,11.1.1,16.9l.5-.5,4.5-6c1.4-2,2.9-3.9,4.4-5.9l3.1-4a1,1,0,0,1,1.1-.5h7.9a3.6,3.6,0,0,1-.7,1c-1.3,1.8-2.7,3.6-4.1,5.3L152,15.7l-2.5,3.2-.5.8.5.3a7.2,7.2,0,0,1,3.6,3.5c1.8,3.4,3.5,6.8,5.2,10.2L163.4,44a20,20,0,0,1,1,2.1A4.1,4.1,0,0,1,164.6,47Z" transform="translate(-1.1 -0.9)"/><path class="a" d="M329.4,1.1h6.8V18.8c0,3.9.1,7.8.2,11.7a31.1,31.1,0,0,0,.6,4.4c1.1,4.6,5.4,6,8.7,5.5a6.9,6.9,0,0,0,5.5-4.4,12.3,12.3,0,0,0,.8-3.8c.3-6,.1-12,.1-18,.1-4-.1-7.9-.1-11.8V1h6.7v.7c.1,5.6.1,11.1.2,16.6s-.1,8.9-.1,13.3a20.3,20.3,0,0,1-.9,6,13,13,0,0,1-5.7,7.3,14.9,14.9,0,0,1-5.8,2,22.2,22.2,0,0,1-6.3-.2,11.6,11.6,0,0,1-6-3.1,12.7,12.7,0,0,1-3.7-6.8,23.3,23.3,0,0,1-.8-5.9c0-2.3-.1-4.6-.1-6.9s0-6.5,0-9.7-.1-4.9-.2-7.4V2C329.3,1.7,329.4,1.4,329.4,1.1Z" transform="translate(-1.1 -0.9)"/><path class="a" d="M241.4,35.5H232a6.9,6.9,0,0,0-.5,1.3l-2.9,8-.6,1.7a.8.8,0,0,1-.8.6h-5.3c-.6,0-.7-.2-.5-.9l1.8-5.4c1.9-5.9,3.9-11.9,5.9-17.9s4.5-13.7,6.8-20.6a7.8,7.8,0,0,1,.5-1.4c.6,0,.7.4.8.7s1,2.9,1.4,4.3c2.6,7.7,5.2,15.4,7.7,23.2,1.8,5.3,3.5,10.6,5.3,16,.2.6.4,1.2.7,1.9h-6.6c-.7,0-.7,0-1-.7-1-3.5-2.1-7-3.1-10.5C241.5,35.8,241.5,35.6,241.4,35.5Zm-7.3-6.3h5.4c-1-2.6-1.7-5.2-2.7-7.9C235.8,24,235,26.6,234.1,29.2Z" transform="translate(-1.1 -0.9)"/><path class="a" d="M272.3,29.8a49.7,49.7,0,0,1,6.7-.1c0,.5.1,1,.1,1.4a12.3,12.3,0,0,0,.9,5,6.6,6.6,0,0,0,6.4,4.3,7.9,7.9,0,0,0,3.4-.6,6.9,6.9,0,0,0,4.2-5,26.5,26.5,0,0,0,.7-6.3c.1-4.5.1-9,.1-13.6s0-8-.1-12V1.2c2.4-.2,4.6-.1,7-.1V2.2c0,4.4,0,8.8.1,13.2s0,9.3-.1,13.9a24.4,24.4,0,0,1-1,7.6,15.2,15.2,0,0,1-4.1,6.9,10.1,10.1,0,0,1-4.8,2.5,22.4,22.4,0,0,1-7.3.7,12.3,12.3,0,0,1-7.5-2.9,13.3,13.3,0,0,1-4.4-8,23.5,23.5,0,0,1-.4-5.9A.8.8,0,0,1,272.3,29.8Z" transform="translate(-1.1 -0.9)"/><path class="a" d="M265.5,47.1c-2.3-.1-4.5.2-6.9,0V1.1h6.9Z" transform="translate(-1.1 -0.9)"/><path class="a" d="M318.9,47.1h-5.8c-1,0-1-.1-1-1.1V37.3c0-7.6.1-15.2.1-22.8.1-3.6,0-7.1,0-10.6V1.1h6.7Z" transform="translate(-1.1 -0.9)"/><path class="a" d="M77.1,47.1c-.1-.6,0-45.1.2-45.8h5.9c.8,0,.8,0,.8.8,0,4.5,0,8.9-.1,13.3V33.6c-.1,4.3-.1,8.6-.1,12.8,0,.8-.1.9-.7.9h-6Z" transform="translate(-1.1 -0.9)"/><path class="a" d="M212.6,23.3l-2.4-1.5,1.3-1.3a8.6,8.6,0,0,0,1-1.6,12,12,0,0,0,.9-7.9,10.8,10.8,0,0,0-3.3-6.1,14.7,14.7,0,0,0-6.8-3.2,37.4,37.4,0,0,0-7.5-.8l-7.9.2h-.4c-.2,1.4-.1,45.2,0,45.8H191c4.1,0,8.2,0,12.3-.2a27.3,27.3,0,0,0,4.9-.6,10.9,10.9,0,0,0,7.8-6.5,15.6,15.6,0,0,0,1.4-6.1A11.8,11.8,0,0,0,212.6,23.3ZM194.2,7.1a43.5,43.5,0,0,1,8,.5A9.7,9.7,0,0,1,205.5,9a5.4,5.4,0,0,1,1.9,5.2,6.4,6.4,0,0,1-5,5.3,15.3,15.3,0,0,1-3,.3H194c-.1-4.2-.1-8.3-.2-12.4Zm16.2,28.7a5.8,5.8,0,0,1-4,4.3,14.4,14.4,0,0,1-4.6.8h-8V26.1a.5.5,0,0,1,.5-.5h.2a58.7,58.7,0,0,1,9.4.3,10.2,10.2,0,0,1,3.7,1.3,6.6,6.6,0,0,1,3,4.9A7.7,7.7,0,0,1,210.4,35.8Z" transform="translate(-1.1 -0.9)"/><path class="a" d="M31.2,18.1A29.3,29.3,0,0,0,29,11.6a15.5,15.5,0,0,0-5.6-6.8,19.6,19.6,0,0,0-6.1-2.7,27.4,27.4,0,0,0-6.4-.9L2.2,1c-1,0-1,.1-1,1.1,0,2.7-.1,5.5-.1,8.2V43.1c0,1.2,0,2.5.1,3.8h1l5.8.2a43.4,43.4,0,0,0,8.8-.6,15.9,15.9,0,0,0,6-2.1,17.8,17.8,0,0,0,2.7-2.1,12.5,12.5,0,0,0,3.6-4.9,28.1,28.1,0,0,0,2.5-9A33.1,33.1,0,0,0,31.2,18.1ZM22.8,34.8a11.3,11.3,0,0,1-7.1,5.3,24.2,24.2,0,0,1-7.6.6c-.1-11-.1-22-.2-32.9l.3-.2A18.8,18.8,0,0,1,18.3,9.7,8.8,8.8,0,0,1,21.9,13a13.4,13.4,0,0,1,2.3,5.5,36.5,36.5,0,0,1,.9,7.4A17.4,17.4,0,0,1,22.8,34.8Z" transform="translate(-1.1 -0.9)"/><path class="a" d="M69.7,44.4,64.3,33.9c-1.6-3.1-2.8-6.4-5-9.2l.6-.3A11.5,11.5,0,0,0,66,17.7,11.2,11.2,0,0,0,64.8,7.2a12.2,12.2,0,0,0-7.2-5,24.5,24.5,0,0,0-7.1-1.1c-3-.1-6,0-9,0H40.4c-.2,15.4.1,30.6-.2,46,2.4.1,4.8.1,7.1,0V36.8c0-3.5-.2-6.9-.1-10.2h2.7a3.7,3.7,0,0,1,3.3,1.5,27.5,27.5,0,0,1,1.9,2.8c1.8,3.7,3.7,7.3,5.5,11L63,46.6c.1.3.3.4.7.4H71C70.5,46.1,70.1,45.2,69.7,44.4ZM55.4,19.5A19.4,19.4,0,0,1,50,20H47.3V16.9c0-1.1-.1-2.2-.1-3.3V10.4c0-1.1,0-2.1.1-3.3h3.6l3.9.5A7.5,7.5,0,0,1,59,9.8a5.1,5.1,0,0,1,1.2,2.3C60.9,16,59,18.4,55.4,19.5Z" transform="translate(-1.1 -0.9)"/></svg>